{"glyphs":{"0":{"ha":949,"x_min":76,"x_max":872,"o":"m 76 497 q 184 872 76 731 q 475 1014 292 1014 q 765 872 658 1014 q 872 497 872 731 q 766 122 872 263 q 475 -18 660 -18 q 183 122 289 -18 q 76 497 76 263 m 175 497 q 254 187 175 301 q 475 72 333 72 q 696 187 617 72 q 775 497 775 301 q 696 808 775 694 q 475 922 617 922 q 254 808 333 922 q 175 497 175 694 z "},"1":{"ha":464,"x_min":49,"x_max":347,"o":"m 251 904 l 49 904 l 49 994 l 347 994 l 347 0 l 251 0 l 251 904 z "},"2":{"ha":781,"x_min":63,"x_max":718,"o":"m 718 0 l 63 0 l 63 79 l 381 357 q 565 547 518 478 q 611 704 611 617 q 554 863 611 806 q 399 921 497 921 q 233 851 296 921 q 167 667 169 782 l 67 667 q 162 918 71 824 q 400 1013 253 1013 q 626 929 540 1013 q 713 710 713 846 q 656 515 713 603 q 449 296 600 428 l 217 93 l 718 93 l 718 0 z "},"3":{"ha":789,"x_min":54,"x_max":728,"o":"m 351 533 l 272 533 l 272 603 l 579 906 l 103 906 l 103 994 l 706 994 l 706 914 l 408 618 q 639 527 550 611 q 728 310 728 443 q 631 73 728 163 q 382 -17 535 -17 q 144 69 233 -17 q 54 303 54 156 l 153 303 q 215 135 153 196 q 382 74 276 74 q 560 139 493 74 q 626 313 626 204 q 555 474 626 415 q 351 533 483 533 z "},"4":{"ha":871,"x_min":56,"x_max":792,"o":"m 792 211 l 675 211 l 675 0 l 578 0 l 578 211 l 56 211 l 56 300 l 542 994 l 675 994 l 675 300 l 792 300 l 792 211 m 164 300 l 578 300 l 578 892 l 164 300 z "},"5":{"ha":810,"x_min":75,"x_max":753,"o":"m 403 -17 q 164 70 253 -17 q 75 304 75 157 l 175 304 q 236 136 175 197 q 404 75 297 75 q 584 143 517 75 q 651 322 651 211 q 585 500 651 429 q 404 571 518 571 q 175 469 267 571 l 96 494 l 215 994 l 696 994 l 696 903 l 288 903 l 213 590 q 418 660 299 660 q 661 564 569 660 q 753 325 753 468 q 656 79 753 175 q 403 -17 558 -17 z "},"6":{"ha":838,"x_min":64,"x_max":774,"o":"m 189 660 l 438 994 l 554 994 l 293 649 q 429 682 360 682 q 678 583 582 682 q 774 336 774 485 q 672 83 774 183 q 421 -17 571 -17 q 167 85 271 -17 q 64 336 64 188 q 91 493 64 422 q 189 660 118 564 m 237 522 q 201 485 237 522 q 165 335 165 449 q 237 147 165 221 q 421 74 308 74 q 602 147 531 74 q 674 335 674 221 q 603 522 674 449 q 421 594 532 594 q 237 522 308 594 z "},"7":{"ha":700,"x_min":13,"x_max":689,"o":"m 13 994 l 689 994 l 689 903 l 297 0 l 194 0 l 588 903 l 13 903 l 13 994 z "},"8":{"ha":850,"x_min":71,"x_max":779,"o":"m 71 271 q 122 431 71 363 q 263 531 174 500 q 147 619 188 561 q 106 756 106 678 q 194 941 106 869 q 426 1013 283 1013 q 655 941 568 1013 q 742 754 742 869 q 701 617 742 676 q 588 531 661 558 q 727 433 675 503 q 779 269 779 363 q 681 63 779 142 q 425 -17 583 -17 q 169 63 267 -17 q 71 271 71 143 m 200 753 q 262 620 200 671 q 425 569 324 569 q 587 619 526 569 q 647 750 647 668 q 587 877 647 831 q 425 924 526 924 q 261 877 322 924 q 200 753 200 831 m 169 279 q 240 130 169 186 q 426 74 311 74 q 610 130 540 74 q 681 279 681 186 q 611 426 681 371 q 424 481 542 481 q 239 426 308 481 q 169 279 169 371 z "},"9":{"ha":838,"x_min":64,"x_max":774,"o":"m 649 336 l 400 0 l 283 0 l 544 347 q 408 314 483 314 q 160 413 256 314 q 64 660 64 511 q 165 912 64 811 q 417 1013 267 1013 q 670 910 567 1013 q 774 658 774 808 q 747 501 774 571 q 649 336 719 431 m 674 660 q 601 847 674 774 q 417 921 529 921 q 235 847 307 921 q 164 660 164 774 q 235 474 164 547 q 417 401 307 401 q 601 474 529 401 q 674 660 674 547 z "}," ":{"ha":385,"x_min":0,"x_max":0,"o":""},"!":{"ha":376,"x_min":101,"x_max":275,"o":"m 222 299 l 153 299 q 136 760 136 447 l 136 994 l 240 994 l 240 760 q 222 299 240 458 m 189 -19 q 127 6 153 -19 q 101 68 101 32 q 127 129 101 104 q 189 154 153 154 q 249 128 224 154 q 275 68 275 103 q 249 7 275 33 q 189 -19 224 -19 z "},"\"":{"ha":440,"x_min":64,"x_max":376,"o":"m 181 926 l 154 650 l 92 650 l 64 926 q 78 978 60 960 q 124 997 97 997 q 167 978 149 997 q 181 926 185 960 m 376 926 l 350 650 l 288 650 l 260 926 q 274 978 256 960 q 319 997 293 997 q 363 978 344 997 q 376 926 381 960 z "},"#":{"ha":938,"x_min":65,"x_max":872,"o":"m 83 383 l 228 383 l 274 611 l 104 611 l 121 701 l 290 701 l 349 994 l 443 994 l 386 701 l 629 701 l 688 994 l 783 994 l 725 701 l 872 701 l 854 611 l 708 611 l 663 383 l 817 383 l 800 293 l 646 293 l 588 0 l 492 0 l 550 293 l 306 293 l 249 0 l 153 0 l 211 293 l 65 293 l 83 383 m 324 383 l 567 383 l 613 611 l 368 611 l 324 383 z "},"$":{"ha":782,"x_min":49,"x_max":724,"o":"m 353 -137 l 353 -15 q 139 63 221 -8 q 49 247 57 133 l 151 247 q 209 128 156 175 q 353 75 263 82 l 353 461 l 299 475 q 61 736 61 532 q 140 926 61 851 q 353 1011 219 1000 l 353 1132 l 426 1132 l 426 1011 q 622 933 547 1003 q 707 746 697 863 l 607 746 q 426 922 592 906 l 426 540 l 488 525 q 724 265 724 467 q 644 71 724 146 q 426 -15 564 -4 l 426 -137 l 353 -137 m 317 567 l 353 558 l 353 921 q 212 863 264 911 q 160 738 160 814 q 317 567 160 606 m 467 433 l 426 443 l 426 75 q 572 134 518 85 q 625 260 625 183 q 467 433 625 396 z "},"%":{"ha":1263,"x_min":67,"x_max":1196,"o":"m 485 944 q 520 909 485 944 q 554 767 554 874 q 485 590 554 660 q 311 521 417 521 q 135 590 204 521 q 67 767 67 660 q 136 944 67 874 q 311 1014 206 1014 q 485 944 417 1014 m 1058 994 l 303 0 l 203 0 l 957 994 l 1058 994 m 471 767 q 426 887 471 840 q 311 933 382 933 q 194 887 239 933 q 150 767 150 840 q 195 647 150 693 q 311 600 240 600 q 426 647 381 600 q 471 767 471 694 m 1127 405 q 1161 370 1127 405 q 1196 228 1196 335 q 1127 51 1196 121 q 953 -18 1058 -18 q 777 51 846 -18 q 708 228 708 121 q 778 405 708 335 q 953 475 847 475 q 1127 405 1058 475 m 1113 228 q 1068 348 1113 301 q 953 394 1024 394 q 836 348 881 394 q 792 228 792 301 q 837 109 792 156 q 953 63 882 63 q 1067 109 1022 63 q 1113 228 1113 156 z "},"&":{"ha":947,"x_min":64,"x_max":929,"o":"m 815 0 l 726 103 q 410 -18 606 -18 q 158 56 253 -18 q 64 253 64 129 q 124 422 64 347 q 318 569 183 496 q 219 703 247 651 q 192 808 192 754 q 254 955 192 899 q 417 1011 317 1011 q 572 958 513 1011 q 632 817 632 904 q 590 681 632 742 q 449 553 547 619 l 719 240 q 763 454 763 331 l 856 454 q 781 171 856 289 l 929 0 l 815 0 m 397 613 l 399 611 q 540 814 540 700 q 507 899 540 868 q 415 931 474 931 q 320 898 356 931 q 285 808 285 865 q 308 730 285 771 q 397 613 331 689 m 163 258 q 230 117 163 168 q 415 65 297 65 q 671 167 581 65 l 368 513 q 209 392 256 450 q 163 258 163 335 z "},"'":{"ha":244,"x_min":64,"x_max":181,"o":"m 181 926 l 154 650 l 92 650 l 64 926 q 78 978 60 960 q 124 997 97 997 q 167 978 149 997 q 181 926 185 960 z "},"(":{"ha":353,"x_min":72,"x_max":353,"o":"m 353 -218 l 265 -218 q 124 72 176 -96 q 72 417 72 240 q 124 757 72 588 q 265 1050 175 926 l 353 1050 q 220 766 269 933 q 171 417 171 599 q 220 67 171 236 q 353 -218 269 -101 z "},")":{"ha":353,"x_min":0,"x_max":281,"o":"m 88 -218 l 0 -218 q 133 67 83 -101 q 183 417 183 236 q 133 766 183 599 q 0 1050 83 933 l 88 1050 q 229 758 178 926 q 281 417 281 589 q 228 72 281 240 q 88 -218 176 -96 z "},"*":{"ha":560,"x_min":40,"x_max":519,"o":"m 128 790 l 40 821 l 64 882 l 149 853 q 260 801 213 832 q 247 921 247 853 l 247 1014 l 313 1014 l 313 921 q 300 801 313 861 q 408 853 357 835 l 493 883 l 519 821 l 431 790 q 314 761 368 768 q 392 669 349 729 l 443 594 l 389 557 l 336 631 q 278 736 300 683 q 222 631 264 689 l 168 557 l 114 594 l 165 669 q 244 761 197 717 q 128 790 183 769 z "},"+":{"ha":917,"x_min":111,"x_max":806,"o":"m 111 511 l 415 511 l 415 815 l 501 815 l 501 511 l 806 511 l 806 425 l 501 425 l 501 119 l 415 119 l 415 425 l 111 425 l 111 511 z "},",":{"ha":364,"x_min":94,"x_max":269,"o":"m 269 47 q 226 -67 269 -17 q 117 -126 182 -117 l 117 -75 q 178 -45 154 -69 q 203 8 203 -21 q 167 -1 189 -1 q 115 19 136 -1 q 94 74 94 39 q 117 133 94 110 q 176 157 140 157 q 242 127 215 157 q 269 47 269 97 z "},"-":{"ha":581,"x_min":89,"x_max":492,"o":"m 89 322 l 89 408 l 492 408 l 492 322 l 89 322 z "},".":{"ha":364,"x_min":94,"x_max":269,"o":"m 244 10 q 231 -3 244 10 q 182 -15 218 -15 q 120 10 146 -15 q 94 69 94 35 q 121 131 94 106 q 182 157 147 157 q 243 131 217 157 q 269 69 269 106 q 244 10 269 35 z "},"/":{"ha":485,"x_min":0,"x_max":485,"o":"m 94 0 l 0 0 l 388 994 l 485 994 l 94 0 z "},":":{"ha":392,"x_min":108,"x_max":283,"o":"m 257 542 q 244 530 257 542 q 196 517 231 517 q 135 542 161 517 q 108 603 108 568 q 134 663 108 638 q 196 689 160 689 q 258 663 232 689 q 283 603 283 638 q 257 542 283 568 m 258 10 q 245 -3 258 10 q 196 -15 232 -15 q 134 10 160 -15 q 108 69 108 35 q 135 131 108 106 q 196 157 161 157 q 257 131 231 157 q 283 69 283 106 q 258 10 283 35 z "},";":{"ha":392,"x_min":108,"x_max":283,"o":"m 257 542 q 244 530 257 542 q 196 517 231 517 q 135 542 161 517 q 108 603 108 568 q 134 663 108 638 q 196 689 160 689 q 258 663 232 689 q 283 603 283 638 q 257 542 283 568 m 283 47 q 240 -67 283 -17 q 131 -126 196 -117 l 131 -75 q 192 -45 168 -69 q 217 8 217 -21 q 181 -1 203 -1 q 129 19 150 -1 q 108 74 108 39 q 131 133 108 110 q 190 157 154 157 q 256 127 229 157 q 283 47 283 97 z "},"<":{"ha":917,"x_min":111,"x_max":806,"o":"m 806 138 l 806 43 l 111 292 l 111 389 l 806 638 l 806 542 l 218 340 l 806 138 z "},"=":{"ha":917,"x_min":111,"x_max":806,"o":"m 111 597 l 806 597 l 806 511 l 111 511 l 111 597 m 111 311 l 806 311 l 806 225 l 111 225 l 111 311 z "},">":{"ha":917,"x_min":111,"x_max":806,"o":"m 806 292 l 111 43 l 111 138 l 699 340 l 111 542 l 111 638 l 806 389 l 806 292 z "},"?":{"ha":715,"x_min":47,"x_max":668,"o":"m 368 228 l 278 228 l 278 264 q 317 391 278 340 q 429 497 356 442 q 500 556 475 532 q 547 622 525 581 q 569 711 569 664 q 512 861 569 801 q 360 921 454 921 q 207 858 269 921 q 144 704 144 794 l 47 704 q 138 924 47 835 q 360 1013 228 1013 q 584 928 500 1013 q 668 714 668 843 q 654 621 668 663 q 610 544 640 579 q 558 490 581 510 q 494 439 535 469 q 399 353 429 392 q 368 264 368 315 l 368 228 m 329 -19 q 267 6 293 -19 q 242 68 242 32 q 267 129 242 104 q 329 154 293 154 q 390 128 364 154 q 415 68 415 103 q 390 6 415 32 q 329 -19 364 -19 z "},"@":{"ha":1260,"x_min":58,"x_max":1201,"o":"m 356 306 q 417 441 356 389 q 589 503 478 493 l 793 518 l 793 539 q 628 699 793 699 q 504 664 549 699 q 460 568 460 629 l 376 568 q 447 716 376 660 q 632 772 517 772 q 816 711 750 772 q 882 538 882 650 l 882 272 q 968 189 882 189 q 1083 264 1039 189 q 1126 460 1126 339 q 987 807 1126 671 q 631 943 847 943 q 277 798 421 943 q 133 440 133 653 q 276 79 133 225 q 631 -67 419 -67 q 946 43 811 -67 l 985 -14 q 631 -136 831 -136 q 222 29 386 -136 q 58 440 58 194 q 223 848 58 683 q 631 1013 388 1013 q 1040 857 879 1013 q 1201 460 1201 701 q 1134 218 1201 313 q 961 124 1067 124 q 800 250 813 124 q 710 157 771 190 q 569 124 649 124 q 413 172 471 124 q 356 306 356 221 m 444 307 q 482 226 444 254 q 589 197 519 197 q 738 256 683 197 q 793 419 793 315 l 793 450 l 610 436 q 444 307 444 421 z "},"A":{"ha":896,"x_min":19,"x_max":878,"o":"m 121 0 l 19 0 l 385 994 l 508 994 l 878 0 l 774 0 l 676 264 l 218 264 l 121 0 m 433 854 l 249 351 l 644 351 l 458 854 q 453 868 457 860 q 448 883 450 876 q 446 894 446 890 q 433 854 443 879 z "},"B":{"ha":874,"x_min":121,"x_max":814,"o":"m 121 0 l 121 994 l 485 994 q 712 926 629 994 q 794 738 794 857 q 640 501 794 561 q 814 261 814 444 q 731 71 814 142 q 506 0 647 0 l 121 0 m 483 906 l 221 906 l 221 542 l 496 542 q 640 591 589 542 q 692 729 692 640 q 638 859 692 813 q 483 906 583 906 m 506 454 l 221 454 l 221 90 l 506 90 q 658 139 603 90 q 713 274 713 188 q 658 406 713 358 q 506 454 603 454 z "},"C":{"ha":1013,"x_min":60,"x_max":960,"o":"m 526 -15 q 189 126 318 -15 q 60 497 60 268 q 190 869 60 726 q 532 1011 321 1011 q 808 922 693 1011 q 954 685 924 832 l 847 685 q 731 853 817 792 q 528 915 644 915 q 264 801 364 915 q 164 497 164 686 q 264 195 164 310 q 528 81 364 81 q 733 140 646 81 q 853 299 821 199 l 960 299 q 806 72 925 158 q 526 -15 686 -15 z "},"D":{"ha":981,"x_min":121,"x_max":921,"o":"m 424 0 l 121 0 l 121 994 l 421 994 q 783 858 646 994 q 921 497 921 721 q 784 137 921 274 q 424 0 647 0 m 417 903 l 221 903 l 221 92 l 419 92 q 710 201 601 92 q 818 497 818 311 q 710 793 818 683 q 417 903 601 903 z "},"E":{"ha":799,"x_min":121,"x_max":717,"o":"m 717 0 l 121 0 l 121 994 l 715 994 l 715 903 l 221 903 l 221 544 l 669 544 l 669 454 l 221 454 l 221 92 l 717 92 l 717 0 z "},"F":{"ha":754,"x_min":121,"x_max":707,"o":"m 628 438 l 221 438 l 221 0 l 121 0 l 121 994 l 707 994 l 707 903 l 221 903 l 221 528 l 628 528 l 628 438 z "},"G":{"ha":1042,"x_min":60,"x_max":964,"o":"m 538 917 q 265 801 367 917 q 164 493 164 685 q 267 190 164 301 q 540 78 371 78 q 663 94 606 78 q 767 147 719 111 q 842 247 814 183 q 869 397 869 311 l 869 449 l 510 449 l 510 538 l 964 538 l 964 -1 l 885 -1 l 875 157 q 743 32 833 81 q 536 -17 653 -17 q 192 124 324 -17 q 60 493 60 264 q 193 867 60 722 q 539 1011 326 1011 q 808 929 696 1011 q 950 711 921 847 l 842 711 q 731 864 811 811 q 538 917 650 917 z "},"H":{"ha":979,"x_min":121,"x_max":857,"o":"m 221 0 l 121 0 l 121 994 l 221 994 l 221 551 l 758 551 l 758 994 l 857 994 l 857 0 l 758 0 l 758 458 l 221 458 l 221 0 z "},"I":{"ha":342,"x_min":121,"x_max":221,"o":"m 221 994 l 221 0 l 121 0 l 121 994 l 221 994 z "},"J":{"ha":708,"x_min":28,"x_max":594,"o":"m 28 274 l 28 313 l 125 313 l 125 274 q 173 131 125 183 q 310 78 221 78 q 448 131 401 78 q 494 275 494 183 l 494 994 l 594 994 l 594 272 q 516 61 594 139 q 310 -17 438 -17 q 103 63 178 -17 q 28 274 28 142 z "},"K":{"ha":856,"x_min":121,"x_max":825,"o":"m 221 994 l 221 396 l 700 994 l 819 994 l 482 574 l 825 0 l 708 0 l 417 490 l 221 247 l 221 0 l 121 0 l 121 994 l 221 994 z "},"L":{"ha":707,"x_min":121,"x_max":678,"o":"m 221 994 l 221 92 l 678 92 l 678 0 l 121 0 l 121 994 l 221 994 z "},"M":{"ha":1165,"x_min":121,"x_max":1044,"o":"m 219 0 l 121 0 l 121 994 l 219 994 l 582 118 l 944 994 l 1044 994 l 1044 0 l 946 0 l 946 472 q 954 790 946 689 l 631 0 l 535 0 l 211 786 q 219 488 219 731 l 219 0 z "},"N":{"ha":990,"x_min":121,"x_max":868,"o":"m 221 0 l 121 0 l 121 994 l 222 994 l 769 167 l 769 994 l 868 994 l 868 0 l 769 0 l 221 828 l 221 0 z "},"O":{"ha":1068,"x_min":60,"x_max":1007,"o":"m 1007 497 q 874 127 1007 271 q 533 -17 742 -17 q 192 127 324 -17 q 60 497 60 271 q 192 868 60 724 q 533 1013 325 1013 q 875 869 743 1013 q 1007 497 1007 725 m 801 195 q 852 253 801 195 q 904 497 904 311 q 801 799 904 683 q 533 915 699 915 q 266 799 368 915 q 164 497 164 683 q 266 195 164 311 q 533 79 368 79 q 801 195 697 79 z "},"P":{"ha":853,"x_min":121,"x_max":813,"o":"m 500 365 l 221 365 l 221 0 l 121 0 l 121 994 l 500 994 q 728 909 643 994 q 813 682 813 824 q 726 455 813 544 q 500 365 640 365 m 486 904 l 221 904 l 221 456 l 481 456 q 648 517 588 456 q 708 683 708 579 q 649 845 708 786 q 486 904 589 904 z "},"Q":{"ha":1068,"x_min":60,"x_max":1007,"o":"m 906 -57 l 800 63 q 533 -17 685 -17 q 192 127 324 -17 q 60 497 60 271 q 192 868 60 724 q 533 1013 325 1013 q 875 869 743 1013 q 1007 497 1007 725 q 869 122 1007 267 l 974 6 l 906 -57 m 904 497 q 801 799 904 683 q 533 915 699 915 q 266 799 368 915 q 164 497 164 683 q 266 195 164 311 q 533 79 368 79 q 733 136 646 79 l 604 282 l 671 344 l 803 197 q 904 497 904 314 z "},"R":{"ha":889,"x_min":121,"x_max":825,"o":"m 221 0 l 121 0 l 121 994 l 492 994 q 728 917 642 994 q 815 707 815 840 q 762 528 815 600 q 613 429 708 456 l 825 0 l 714 0 l 511 413 l 221 413 l 221 0 m 221 904 l 221 503 l 494 503 q 655 556 597 503 q 713 704 713 610 q 653 852 713 800 q 492 904 594 904 l 221 904 z "},"S":{"ha":782,"x_min":49,"x_max":724,"o":"m 61 736 q 153 937 61 861 q 394 1013 244 1013 q 613 942 529 1013 q 707 746 696 871 l 606 746 q 542 876 597 831 q 393 922 486 922 q 224 872 288 922 q 161 738 161 822 q 317 568 161 607 l 488 526 q 724 265 724 469 q 631 60 724 136 q 385 -17 539 -17 q 149 54 240 -17 q 49 247 58 125 l 151 247 q 219 122 156 169 q 385 75 283 75 q 559 125 494 75 q 624 260 624 175 q 467 432 624 396 l 299 474 q 61 736 61 531 z "},"T":{"ha":746,"x_min":17,"x_max":729,"o":"m 17 903 l 17 994 l 729 994 l 729 903 l 422 903 l 422 0 l 322 0 l 322 903 l 17 903 z "},"U":{"ha":963,"x_min":114,"x_max":849,"o":"m 114 346 l 114 994 l 214 994 l 214 350 q 283 150 214 219 q 483 81 353 81 q 680 151 611 81 q 749 350 749 221 l 749 994 l 849 994 l 849 346 q 751 81 849 178 q 483 -17 653 -17 q 212 80 310 -17 q 114 346 114 176 z "},"V":{"ha":890,"x_min":14,"x_max":876,"o":"m 394 0 l 14 994 l 121 994 l 386 303 q 449 125 419 215 q 510 304 478 225 l 774 994 l 876 994 l 499 0 l 394 0 z "},"W":{"ha":1360,"x_min":21,"x_max":1339,"o":"m 317 0 l 21 994 l 125 994 l 326 311 q 365 147 349 232 q 411 311 381 215 l 628 994 l 732 994 l 949 311 q 993 147 972 232 q 1032 310 1013 243 l 1238 994 l 1339 994 l 1040 0 l 946 0 l 679 844 l 413 0 l 317 0 z "},"X":{"ha":850,"x_min":19,"x_max":835,"o":"m 367 496 l 19 994 l 138 994 l 322 733 q 425 569 385 644 l 714 994 l 829 994 l 488 499 l 835 0 l 715 0 l 526 267 q 428 419 464 356 l 138 0 l 21 0 l 367 496 z "},"Y":{"ha":799,"x_min":14,"x_max":785,"o":"m 351 415 l 14 994 l 126 994 l 372 565 q 401 506 389 533 q 432 565 414 531 l 675 994 l 785 994 l 451 415 l 451 0 l 351 0 l 351 415 z "},"Z":{"ha":806,"x_min":57,"x_max":751,"o":"m 749 0 l 57 0 l 57 92 l 629 903 l 61 903 l 61 994 l 751 994 l 751 906 l 176 92 l 749 92 l 749 0 z "},"[":{"ha":354,"x_min":72,"x_max":347,"o":"m 160 -4 l 347 -4 l 347 -82 l 72 -82 l 72 1082 l 347 1082 l 347 1004 l 160 1004 l 160 -4 z "},"\\":{"ha":485,"x_min":0,"x_max":485,"o":"m 96 994 l 485 0 l 389 0 l 0 994 l 96 994 z "},"]":{"ha":354,"x_min":7,"x_max":282,"o":"m 7 -82 l 7 -4 l 194 -4 l 194 1004 l 7 1004 l 7 1082 l 282 1082 l 282 -82 l 7 -82 z "},"^":{"ha":674,"x_min":106,"x_max":569,"o":"m 193 556 l 106 556 l 290 994 l 385 994 l 569 556 l 481 556 l 338 903 l 193 556 z "},"_":{"ha":719,"x_min":83,"x_max":636,"o":"m 83 -108 l 83 -26 l 636 -26 l 636 -108 l 83 -108 z "},"`":{"ha":303,"x_min":58,"x_max":240,"o":"m 240 1064 l 163 1064 l 58 1231 l 160 1231 l 240 1064 z "},"a":{"ha":725,"x_min":65,"x_max":633,"o":"m 293 -17 q 126 38 188 -17 q 65 182 65 92 q 132 330 65 274 q 317 396 199 386 l 539 414 l 539 436 q 361 610 539 610 q 224 572 274 610 q 175 467 175 535 l 88 467 q 163 629 88 568 q 364 690 239 690 q 560 626 486 690 q 633 435 633 563 l 633 0 l 553 0 l 540 118 q 443 19 508 54 q 293 -17 378 -17 m 315 61 q 479 128 419 61 q 539 306 539 194 l 539 342 l 340 326 q 163 185 163 311 q 203 93 163 125 q 315 61 244 61 z "},"b":{"ha":811,"x_min":100,"x_max":758,"o":"m 183 0 l 100 0 l 100 1013 l 196 1013 l 196 542 q 449 690 267 690 q 675 590 592 690 q 758 335 758 490 q 674 82 758 181 q 446 -17 590 -17 q 193 138 263 -17 l 183 0 m 197 338 q 260 144 197 218 q 431 71 322 71 q 599 144 538 71 q 661 338 661 218 q 599 530 661 456 q 431 604 538 604 q 260 530 322 604 q 197 338 197 456 z "},"c":{"ha":722,"x_min":53,"x_max":676,"o":"m 141 80 q 97 128 141 80 q 53 335 53 176 q 142 592 53 493 q 378 690 232 690 q 574 628 494 690 q 674 461 654 565 l 578 461 q 506 567 560 529 q 379 606 451 606 q 212 532 276 606 q 147 336 147 458 q 209 143 147 217 q 372 69 271 69 q 503 108 447 69 q 579 211 560 146 l 676 211 q 569 46 653 108 q 372 -17 486 -17 q 141 80 229 -17 z "},"d":{"ha":811,"x_min":53,"x_max":711,"o":"m 364 -17 q 136 82 219 -17 q 53 335 53 181 q 138 591 53 492 q 368 690 222 690 q 615 544 544 690 l 615 1013 l 711 1013 l 711 0 l 628 0 l 618 138 q 517 22 583 61 q 364 -17 450 -17 m 381 71 q 551 144 489 71 q 614 338 614 218 q 551 530 614 456 q 381 604 489 604 q 212 530 274 604 q 150 338 150 456 q 212 144 150 218 q 381 71 274 71 z "},"e":{"ha":733,"x_min":53,"x_max":681,"o":"m 382 -17 q 144 81 235 -17 q 53 336 53 178 q 142 592 53 493 q 375 690 232 690 q 596 602 511 690 q 681 371 681 514 l 681 324 l 146 324 q 213 133 151 200 q 383 65 275 65 q 589 201 550 65 l 681 201 q 576 39 653 94 q 382 -17 500 -17 m 527 549 q 498 579 527 549 q 375 608 469 608 q 221 551 281 608 q 149 393 161 493 l 585 393 q 527 549 585 490 z "},"f":{"ha":413,"x_min":25,"x_max":388,"o":"m 25 672 l 128 672 l 128 803 q 179 961 128 910 q 314 1013 231 1013 q 388 1007 358 1013 l 388 925 l 331 925 q 247 895 269 925 q 224 803 224 865 l 224 672 l 382 672 l 382 592 l 224 592 l 224 0 l 128 0 l 128 592 l 25 592 l 25 672 z "},"g":{"ha":811,"x_min":54,"x_max":711,"o":"m 138 117 q 96 166 138 117 q 54 356 54 214 q 140 594 54 497 q 369 690 226 690 q 618 538 551 690 l 628 672 l 711 672 l 711 21 q 622 -219 711 -129 q 386 -310 533 -310 q 172 -241 257 -310 q 67 -50 86 -172 l 163 -50 q 238 -177 178 -132 q 388 -222 297 -222 q 553 -158 490 -222 q 617 11 617 -94 l 617 171 q 515 60 582 100 q 363 21 449 21 q 138 117 222 21 m 150 357 q 212 178 150 250 q 376 107 274 107 q 546 176 483 107 q 608 357 608 246 q 547 536 608 467 q 378 606 486 606 q 211 534 272 606 q 150 357 150 463 z "},"h":{"ha":781,"x_min":100,"x_max":689,"o":"m 196 1 l 100 1 l 100 1013 l 196 1013 l 196 556 q 433 690 268 690 q 626 617 563 690 q 689 411 689 543 l 689 0 l 593 0 l 593 390 q 415 603 593 603 q 253 535 311 603 q 196 367 196 468 l 196 1 z "},"i":{"ha":296,"x_min":76,"x_max":219,"o":"m 198 878 q 187 867 198 878 q 147 857 176 857 q 97 878 118 857 q 76 928 76 899 q 97 978 76 957 q 147 1000 118 1000 q 198 978 176 1000 q 219 928 219 957 q 198 878 219 899 m 100 0 l 100 672 l 196 672 l 196 0 l 100 0 z "},"j":{"ha":296,"x_min":-79,"x_max":219,"o":"m 149 857 q 97 878 118 857 q 76 928 76 899 q 97 978 76 957 q 149 1000 118 1000 q 198 978 176 1000 q 219 928 219 957 q 198 878 219 899 q 149 857 176 857 m -79 -294 l -61 -207 q 4 -217 -22 -217 q 100 -96 100 -217 l 100 672 l 196 672 l 196 -101 q 147 -252 196 -197 q 11 -307 99 -307 q -79 -294 -35 -307 z "},"k":{"ha":669,"x_min":104,"x_max":656,"o":"m 200 0 l 104 0 l 104 1013 l 200 1013 l 200 325 l 533 672 l 654 672 l 396 404 l 656 0 l 544 0 l 331 336 l 200 201 l 200 0 z "},"l":{"ha":304,"x_min":104,"x_max":200,"o":"m 200 0 l 104 0 l 104 1013 l 200 1013 l 200 0 z "},"m":{"ha":1169,"x_min":100,"x_max":1076,"o":"m 196 0 l 100 0 l 100 672 l 183 672 l 194 576 q 273 660 219 629 q 397 690 326 690 q 533 652 475 690 q 614 547 590 614 q 696 652 638 614 q 835 690 754 690 q 1010 623 944 690 q 1076 440 1076 556 l 1076 0 l 983 0 l 983 421 q 939 556 983 507 q 817 604 894 604 q 686 550 735 604 q 638 415 638 496 l 638 0 l 543 0 l 543 422 q 498 555 543 507 q 376 603 453 603 q 245 549 294 603 q 196 417 196 496 l 196 0 z "},"n":{"ha":781,"x_min":100,"x_max":689,"o":"m 196 0 l 100 0 l 100 672 l 183 672 l 197 556 q 292 655 231 619 q 428 690 354 690 q 689 411 689 690 l 689 0 l 593 0 l 593 390 q 411 603 593 603 q 253 535 310 603 q 196 351 196 467 l 196 0 z "},"o":{"ha":789,"x_min":53,"x_max":736,"o":"m 53 336 q 149 590 53 490 q 394 690 246 690 q 640 590 543 690 q 736 336 736 490 q 640 83 736 183 q 394 -17 543 -17 q 149 83 246 -17 q 53 336 53 183 m 150 338 q 218 144 150 218 q 394 69 286 69 q 570 144 501 69 q 639 338 639 219 q 570 529 639 454 q 394 604 501 604 q 218 529 286 604 q 150 338 150 454 z "},"p":{"ha":811,"x_min":100,"x_max":758,"o":"m 100 -293 l 100 672 l 183 672 l 193 536 q 294 651 228 613 q 447 690 361 690 q 674 592 590 690 q 758 339 758 494 q 676 83 758 182 q 447 -17 593 -17 q 196 129 267 -17 l 196 -293 l 100 -293 m 197 336 q 260 144 197 218 q 431 69 322 69 q 599 144 538 69 q 661 336 661 218 q 599 529 661 456 q 431 603 538 603 q 260 529 322 603 q 197 336 197 456 z "},"q":{"ha":811,"x_min":53,"x_max":711,"o":"m 53 339 q 137 592 53 494 q 364 690 221 690 q 618 536 546 690 l 628 672 l 711 672 l 711 -293 l 615 -293 l 615 129 q 364 -17 544 -17 q 135 83 218 -17 q 53 339 53 182 m 150 336 q 212 144 150 218 q 381 69 274 69 q 551 144 489 69 q 614 336 614 218 q 551 529 614 456 q 381 603 489 603 q 212 529 274 603 q 150 336 150 456 z "},"r":{"ha":479,"x_min":100,"x_max":451,"o":"m 451 681 l 451 594 l 399 594 q 251 537 306 594 q 196 383 196 479 l 196 0 l 100 0 l 100 672 l 190 672 l 197 568 q 268 656 217 624 q 389 688 319 688 q 451 681 422 688 z "},"s":{"ha":603,"x_min":43,"x_max":544,"o":"m 43 189 l 135 189 q 176 97 135 131 q 288 63 217 63 q 409 94 365 63 q 453 179 453 125 q 428 247 453 222 q 346 286 404 272 l 231 315 q 57 497 57 358 q 124 638 57 585 q 300 690 190 690 q 471 635 407 690 q 538 488 535 581 l 444 488 q 403 578 442 546 q 297 611 365 611 q 188 582 226 611 q 150 499 150 553 q 260 393 150 419 l 375 364 q 503 299 463 342 q 544 183 544 256 q 474 38 544 93 q 289 -17 404 -17 q 109 39 175 -17 q 43 189 43 94 z "},"t":{"ha":414,"x_min":25,"x_max":389,"o":"m 254 0 l 160 0 l 160 592 l 25 592 l 25 672 l 160 672 l 160 885 l 254 885 l 254 672 l 389 672 l 389 592 l 254 592 l 254 0 z "},"u":{"ha":768,"x_min":92,"x_max":668,"o":"m 572 672 l 668 672 l 668 0 l 585 0 l 572 114 q 480 19 544 56 q 336 -17 415 -17 q 156 57 219 -17 q 92 256 92 131 l 92 674 l 189 674 l 189 286 q 367 69 189 69 q 518 133 464 69 q 572 315 572 196 l 572 672 z "},"v":{"ha":675,"x_min":13,"x_max":663,"o":"m 288 0 l 13 672 l 115 672 l 289 239 q 338 100 328 133 q 388 239 350 143 l 564 672 l 663 672 l 383 0 l 288 0 z "},"w":{"ha":1031,"x_min":19,"x_max":1011,"o":"m 242 0 l 19 672 l 118 672 l 250 267 q 292 122 268 214 q 332 267 301 168 l 465 672 l 564 672 l 696 267 q 738 122 715 208 q 778 267 760 213 l 911 672 l 1011 672 l 783 0 l 690 0 l 551 422 q 515 554 528 492 q 476 422 496 482 l 338 0 l 242 0 z "},"x":{"ha":632,"x_min":14,"x_max":618,"o":"m 126 0 l 14 0 l 254 336 l 15 672 l 128 672 l 318 403 l 507 672 l 618 672 l 379 335 l 617 0 l 503 0 l 314 269 l 126 0 z "},"y":{"ha":654,"x_min":13,"x_max":642,"o":"m 32 -293 l 32 -214 l 106 -214 q 150 -212 133 -214 q 189 -201 167 -210 q 227 -172 211 -192 q 256 -119 243 -151 l 285 -40 l 13 672 l 114 672 l 331 86 l 543 672 l 642 672 l 333 -154 q 133 -303 279 -303 q 32 -293 75 -303 z "},"z":{"ha":615,"x_min":54,"x_max":561,"o":"m 561 0 l 54 0 l 54 76 l 443 592 l 54 592 l 54 672 l 561 672 l 561 594 l 171 81 l 561 81 l 561 0 z "},"{":{"ha":406,"x_min":63,"x_max":399,"o":"m 63 460 l 63 542 q 183 638 183 542 l 183 951 q 220 1047 183 1011 q 321 1082 257 1082 l 399 1082 l 399 1004 l 329 1004 q 287 988 303 1004 q 271 943 271 971 l 271 632 q 181 501 271 528 q 271 368 271 471 l 271 57 q 287 13 271 29 q 329 -4 303 -4 l 399 -4 l 399 -82 l 321 -82 q 220 -47 257 -82 q 183 49 183 -11 l 183 363 q 63 460 183 460 z "},"|":{"ha":432,"x_min":176,"x_max":256,"o":"m 176 -118 l 176 1101 l 256 1101 l 256 -118 l 176 -118 z "},"}":{"ha":406,"x_min":7,"x_max":343,"o":"m 85 -82 l 7 -82 l 7 -4 l 75 -4 q 119 13 103 -4 q 135 57 135 29 l 135 368 q 224 501 135 471 q 135 632 135 528 l 135 943 q 119 988 135 971 q 75 1004 103 1004 l 7 1004 l 7 1082 l 85 1082 q 185 1046 147 1082 q 222 951 222 1010 l 222 638 q 343 542 222 542 l 343 460 q 222 363 222 460 l 222 49 q 185 -46 222 -10 q 85 -82 147 -82 z "},"~":{"ha":917,"x_min":111,"x_max":806,"o":"m 725 511 l 806 511 q 759 358 806 415 q 633 300 713 300 q 510 333 575 300 q 386 401 444 367 q 286 435 328 435 q 217 406 239 435 q 192 314 194 378 l 111 314 q 158 463 111 406 q 283 519 204 519 q 463 452 347 519 q 631 385 578 385 q 700 415 678 385 q 725 511 722 444 z "},"¡":{"ha":376,"x_min":101,"x_max":275,"o":"m 189 1014 q 249 988 224 1014 q 275 928 275 963 q 249 867 275 893 q 189 840 224 840 q 127 866 153 840 q 101 928 101 892 q 127 989 101 964 q 189 1014 153 1014 m 153 697 l 222 697 q 240 235 240 538 l 240 0 l 136 0 l 136 235 q 153 697 136 547 z "},"¢":{"ha":764,"x_min":67,"x_max":703,"o":"m 354 -1 l 354 149 q 147 258 226 164 q 67 494 67 353 q 145 735 67 639 q 354 844 224 831 l 354 994 l 440 994 l 440 844 q 614 773 546 833 q 701 618 682 713 l 603 618 q 530 724 585 688 q 396 760 475 760 q 228 688 293 760 q 164 496 164 615 q 230 307 164 379 q 400 235 296 235 q 606 374 561 235 l 703 374 q 613 217 682 278 q 440 147 544 157 l 440 -1 l 354 -1 z "},"£":{"ha":846,"x_min":44,"x_max":786,"o":"m 499 0 l 44 0 l 44 92 q 169 169 121 106 q 218 315 218 233 q 190 461 218 375 l 51 461 l 51 543 l 160 543 q 119 725 119 656 q 206 933 119 853 q 432 1013 292 1013 q 650 940 565 1013 q 746 742 735 868 l 643 742 q 579 876 635 829 q 429 922 524 922 q 274 869 331 922 q 218 725 218 817 q 263 543 218 658 l 607 543 l 607 461 l 292 461 q 315 315 315 386 q 279 179 315 242 q 183 92 243 117 l 492 92 q 644 144 597 92 q 690 310 690 196 l 786 310 q 499 0 786 0 z "},"¤":{"ha":872,"x_min":72,"x_max":800,"o":"m 735 132 l 626 239 q 435 175 543 175 q 246 239 329 175 l 138 132 l 72 197 l 181 304 q 119 490 119 388 q 182 681 119 596 l 72 788 l 138 853 l 246 746 q 435 808 331 808 q 626 746 542 808 l 735 853 l 800 788 l 690 681 q 753 490 753 596 q 692 304 753 385 l 800 197 l 735 132 m 663 490 q 596 651 663 585 q 435 718 529 718 q 276 651 342 718 q 210 490 210 585 q 276 333 210 399 q 435 267 343 267 q 595 333 528 267 q 663 490 663 399 z "},"¥":{"ha":824,"x_min":28,"x_max":796,"o":"m 335 478 l 28 994 l 140 994 l 414 511 l 685 994 l 796 994 l 493 478 l 710 478 l 710 399 l 461 399 l 461 297 l 710 297 l 710 219 l 461 219 l 461 0 l 367 0 l 367 219 l 117 219 l 117 297 l 367 297 l 367 399 l 117 399 l 117 478 l 335 478 z "},"¦":{"ha":432,"x_min":176,"x_max":256,"o":"m 256 1101 l 256 601 l 176 601 l 176 1101 l 256 1101 m 176 -118 l 176 382 l 256 382 l 256 -118 l 176 -118 z "},"§":{"ha":647,"x_min":54,"x_max":593,"o":"m 593 503 q 555 400 593 446 q 450 333 517 354 q 564 175 564 288 q 497 38 564 90 q 322 -15 429 -15 q 151 40 215 -15 q 85 188 86 94 l 176 188 q 218 96 179 129 q 324 63 257 63 q 434 92 396 63 q 472 176 472 121 q 361 283 472 258 l 224 313 q 54 494 54 350 q 92 597 54 551 q 196 664 131 643 q 83 822 83 708 q 150 961 83 908 q 325 1014 217 1014 q 495 959 431 1014 q 563 810 560 904 l 471 810 q 429 902 468 869 q 322 935 390 935 q 213 906 251 935 q 175 821 175 876 q 286 714 175 739 l 422 685 q 593 503 593 649 m 454 408 q 477 424 454 408 q 500 499 500 440 q 454 590 500 557 q 324 622 408 622 q 192 590 238 622 q 146 499 146 557 q 192 408 146 440 q 324 375 238 375 q 454 408 408 375 z "},"¨":{"ha":511,"x_min":85,"x_max":425,"o":"m 202 1112 q 192 1102 202 1112 q 154 1092 182 1092 q 106 1112 126 1092 q 85 1160 85 1132 q 106 1208 85 1188 q 154 1229 126 1229 q 201 1208 181 1229 q 222 1160 222 1188 q 202 1112 222 1132 m 357 1092 q 308 1112 328 1092 q 288 1160 288 1132 q 308 1208 288 1188 q 357 1229 329 1229 q 404 1208 383 1229 q 425 1160 425 1188 q 405 1112 425 1132 q 357 1092 385 1092 z "},"©":{"ha":1135,"x_min":56,"x_max":1079,"o":"m 567 -19 q 203 129 350 -19 q 56 497 56 278 q 203 864 56 715 q 567 1013 351 1013 q 931 864 783 1013 q 1079 497 1079 715 q 932 129 1079 278 q 567 -19 785 -19 m 567 49 q 881 177 756 49 q 1006 497 1006 306 q 880 817 1006 689 q 567 944 754 944 q 255 816 381 944 q 129 497 129 688 q 254 177 129 306 q 567 49 379 49 m 313 494 q 386 698 313 619 q 578 776 460 776 q 731 727 668 776 q 811 596 794 678 l 726 596 q 579 701 697 701 q 446 644 497 701 q 394 496 394 586 q 444 348 394 404 q 572 292 493 292 q 729 396 694 292 l 813 396 q 728 266 794 315 q 572 217 663 217 q 385 294 457 217 q 313 494 313 372 z "},"«":{"ha":825,"x_min":56,"x_max":769,"o":"m 350 0 l 56 336 l 350 672 l 463 672 l 168 336 l 463 0 l 350 0 m 657 0 l 363 336 l 657 672 l 769 672 l 475 336 l 769 0 l 657 0 z "},"¬":{"ha":917,"x_min":104,"x_max":760,"o":"m 760 468 l 760 111 l 667 111 l 667 382 l 104 382 l 104 468 l 760 468 z "},"®":{"ha":667,"x_min":56,"x_max":611,"o":"m 533 539 q 493 499 533 539 q 335 460 454 460 q 135 540 215 460 q 56 738 56 619 q 136 933 56 854 q 335 1013 217 1013 q 532 934 453 1013 q 611 738 611 856 q 533 539 611 618 m 335 503 q 500 569 433 503 q 567 738 567 636 q 500 903 567 838 q 335 969 433 969 q 168 903 235 969 q 101 738 101 836 q 167 569 101 636 q 335 503 233 503 m 275 585 l 228 585 l 228 894 l 344 894 q 426 869 396 894 q 456 801 456 844 q 392 713 456 733 l 461 585 l 408 585 l 347 701 l 275 701 l 275 585 m 406 799 q 343 850 406 850 l 275 850 l 275 744 l 343 744 q 406 799 406 744 z "},"¯":{"ha":489,"x_min":83,"x_max":406,"o":"m 83 1140 l 83 1217 l 406 1217 l 406 1140 l 83 1140 z "},"°":{"ha":365,"x_min":19,"x_max":346,"o":"m 346 849 q 299 733 346 779 q 183 686 253 686 q 67 733 114 686 q 19 849 19 779 q 67 966 19 919 q 183 1013 114 1013 q 299 966 253 1013 q 346 849 346 919 m 251 778 q 265 792 251 778 q 278 849 278 806 q 251 919 278 892 q 183 947 225 947 q 114 919 140 947 q 88 849 88 892 q 114 778 88 806 q 183 751 140 751 q 251 778 225 751 z "},"±":{"ha":917,"x_min":111,"x_max":806,"o":"m 111 564 l 415 564 l 415 824 l 501 824 l 501 564 l 806 564 l 806 479 l 501 479 l 501 218 l 415 218 l 415 479 l 111 479 l 111 564 m 111 0 l 111 86 l 806 86 l 806 0 l 111 0 z "},"²":{"ha":478,"x_min":39,"x_max":442,"o":"m 442 458 l 39 458 l 39 521 l 253 696 q 358 872 358 781 q 238 999 358 999 q 147 962 179 999 q 114 858 114 925 l 39 858 q 94 1013 39 956 q 239 1071 149 1071 q 382 1018 329 1071 q 435 875 435 965 q 301 647 435 756 l 156 529 l 442 529 l 442 458 z "},"³":{"ha":481,"x_min":31,"x_max":444,"o":"m 197 769 l 158 769 l 158 824 l 342 989 l 60 989 l 60 1060 l 431 1060 l 431 988 l 263 833 q 392 776 340 826 q 444 644 444 726 q 384 502 444 556 q 233 449 324 449 q 87 503 143 449 q 31 644 31 557 l 106 644 q 140 552 106 586 q 233 518 175 518 q 330 553 293 518 q 367 646 367 588 q 336 728 367 696 q 249 768 306 761 q 197 769 233 769 z "},"´":{"ha":306,"x_min":63,"x_max":246,"o":"m 246 1229 l 140 1064 l 63 1064 l 146 1229 l 246 1229 z "},"µ":{"ha":768,"x_min":92,"x_max":668,"o":"m 188 -293 l 92 -293 l 92 674 l 189 674 l 189 286 q 367 69 189 69 q 518 133 464 69 q 572 315 572 196 l 572 672 l 668 672 l 668 0 l 585 0 l 572 114 q 483 19 543 54 q 347 -17 424 -17 q 182 57 239 -17 l 188 -293 z "},"¶":{"ha":794,"x_min":40,"x_max":646,"o":"m 40 717 q 115 919 40 844 q 301 994 189 994 l 467 994 l 467 -92 l 378 -92 l 378 435 l 301 435 q 115 511 189 435 q 40 717 40 588 m 646 -94 l 582 -94 l 582 994 l 646 994 l 646 -94 z "},"·":{"ha":382,"x_min":71,"x_max":311,"o":"m 276 273 q 258 255 276 273 q 192 238 240 238 q 107 273 143 238 q 71 356 71 308 q 106 441 71 406 q 192 476 142 476 q 276 441 240 476 q 311 356 311 406 q 276 273 311 308 z "},"¸":{"ha":318,"x_min":53,"x_max":263,"o":"m 53 -233 l 53 -175 q 131 -197 94 -197 q 178 -185 160 -197 q 196 -150 196 -172 q 140 -104 196 -104 q 72 -121 110 -104 l 60 -86 l 118 42 l 157 40 l 157 3 l 126 -62 q 167 -56 150 -56 q 235 -80 208 -56 q 263 -147 263 -104 q 226 -226 263 -199 q 139 -254 190 -254 q 53 -233 85 -254 z "},"¹":{"ha":303,"x_min":29,"x_max":238,"o":"m 161 989 l 29 989 l 29 1060 l 238 1060 l 238 458 l 161 458 l 161 989 z "},"»":{"ha":825,"x_min":56,"x_max":769,"o":"m 168 0 l 56 0 l 350 336 l 56 672 l 168 672 l 463 336 l 168 0 m 475 0 l 363 0 l 657 336 l 363 672 l 475 672 l 769 336 l 475 0 z "},"¼":{"ha":838,"x_min":28,"x_max":803,"o":"m 138 932 l 28 932 l 28 994 l 206 994 l 206 529 l 138 529 l 138 932 m 769 986 l 131 0 l 43 0 l 681 986 l 769 986 m 678 93 l 439 93 l 439 154 l 661 465 l 744 465 l 744 156 l 803 156 l 803 93 l 744 93 l 744 0 l 678 0 l 678 93 m 514 156 l 678 156 l 678 385 l 514 156 z "},"½":{"ha":881,"x_min":28,"x_max":850,"o":"m 138 932 l 28 932 l 28 994 l 206 994 l 206 529 l 138 529 l 138 932 m 769 986 l 131 0 l 43 0 l 681 986 l 769 986 m 850 0 l 526 0 l 526 49 l 678 171 q 768 317 768 246 q 744 385 768 360 q 679 410 721 410 q 613 385 638 410 q 588 318 588 360 l 518 318 q 563 430 518 388 q 681 472 608 472 q 797 431 753 472 q 840 319 840 389 q 813 223 840 267 q 722 126 786 179 l 643 63 l 850 63 l 850 0 z "},"¾":{"ha":896,"x_min":29,"x_max":861,"o":"m 29 676 l 100 676 q 124 610 100 635 q 192 585 149 585 q 259 608 235 585 q 283 669 283 631 q 253 740 283 715 q 165 765 222 765 l 128 765 l 128 813 l 254 931 l 51 931 l 51 994 l 343 994 l 343 932 l 219 818 q 316 773 279 811 q 353 675 353 735 q 308 563 353 604 q 190 521 264 521 q 74 564 119 521 q 29 676 29 607 m 828 986 l 189 0 l 101 0 l 739 986 l 828 986 m 736 93 l 497 93 l 497 154 l 719 465 l 803 465 l 803 156 l 861 156 l 861 93 l 803 93 l 803 0 l 736 0 l 736 93 m 574 156 l 736 156 l 736 383 l 574 156 z "},"¿":{"ha":715,"x_min":47,"x_max":668,"o":"m 386 1014 q 449 988 422 1014 q 475 926 475 963 q 449 866 475 892 q 386 840 422 840 q 326 866 351 840 q 300 926 300 892 q 326 988 300 961 q 386 1014 351 1014 m 347 767 l 438 767 l 438 729 q 414 631 438 676 q 363 559 390 585 q 288 496 336 533 q 216 437 240 460 q 169 372 192 414 q 146 283 146 331 q 204 133 146 193 q 357 74 263 74 q 509 136 447 74 q 571 290 571 199 l 668 290 q 578 71 668 160 q 356 -18 488 -18 q 131 66 215 -18 q 47 279 47 150 q 61 373 47 331 q 105 450 75 415 q 158 506 135 485 q 222 556 182 526 q 317 640 288 603 q 347 729 347 678 l 347 767 z "},"À":{"ha":896,"x_min":19,"x_max":878,"o":"m 482 1069 l 404 1069 l 300 1236 l 401 1236 l 482 1069 m 121 0 l 19 0 l 385 994 l 508 994 l 878 0 l 774 0 l 676 264 l 218 264 l 121 0 m 433 854 l 249 351 l 644 351 l 458 854 q 453 868 457 860 q 448 883 450 876 q 446 894 446 890 q 433 854 443 879 z "},"Á":{"ha":896,"x_min":19,"x_max":878,"o":"m 594 1235 l 489 1069 l 411 1069 l 494 1235 l 594 1235 m 121 0 l 19 0 l 385 994 l 508 994 l 878 0 l 774 0 l 676 264 l 218 264 l 121 0 m 433 854 l 249 351 l 644 351 l 458 854 q 453 868 457 860 q 448 883 450 876 q 446 894 446 890 q 433 854 443 879 z "},"Â":{"ha":896,"x_min":19,"x_max":878,"o":"m 367 1069 l 281 1069 l 386 1239 l 507 1239 l 613 1069 l 526 1069 l 447 1193 l 367 1069 m 121 0 l 19 0 l 385 994 l 508 994 l 878 0 l 774 0 l 676 264 l 218 264 l 121 0 m 433 854 l 249 351 l 644 351 l 458 854 q 453 868 457 860 q 448 883 450 876 q 446 894 446 890 q 433 854 443 879 z "},"Ã":{"ha":896,"x_min":19,"x_max":878,"o":"m 322 1093 l 253 1093 q 276 1201 249 1161 q 354 1240 304 1240 q 446 1203 394 1240 q 524 1165 497 1165 q 571 1240 571 1165 l 639 1240 q 613 1131 642 1169 q 529 1093 585 1093 q 436 1131 486 1093 q 367 1168 386 1168 q 322 1093 322 1168 m 121 0 l 19 0 l 385 994 l 508 994 l 878 0 l 774 0 l 676 264 l 218 264 l 121 0 m 433 854 l 249 351 l 644 351 l 458 854 q 453 868 457 860 q 448 883 450 876 q 446 894 446 890 q 433 854 443 879 z "},"Ä":{"ha":896,"x_min":19,"x_max":878,"o":"m 346 1097 q 297 1117 317 1097 q 276 1165 276 1138 q 297 1214 276 1193 q 346 1235 318 1235 q 394 1214 374 1235 q 414 1165 414 1193 q 394 1117 414 1138 q 346 1097 374 1097 m 549 1097 q 499 1117 519 1097 q 479 1165 479 1138 q 500 1214 479 1193 q 549 1235 521 1235 q 597 1214 576 1235 q 617 1165 617 1193 q 597 1117 617 1138 q 549 1097 576 1097 m 121 0 l 19 0 l 385 994 l 508 994 l 878 0 l 774 0 l 676 264 l 218 264 l 121 0 m 433 854 l 249 351 l 644 351 l 458 854 q 453 868 457 860 q 448 883 450 876 q 446 894 446 890 q 433 854 443 879 z "},"Å":{"ha":896,"x_min":19,"x_max":878,"o":"m 447 1065 q 340 1108 382 1065 q 297 1217 297 1151 q 340 1323 297 1281 q 447 1365 383 1365 q 553 1322 511 1365 q 596 1217 596 1279 q 553 1109 596 1153 q 447 1065 511 1065 m 447 1132 q 504 1156 482 1132 q 526 1217 526 1179 q 504 1277 526 1253 q 447 1301 482 1301 q 389 1278 411 1301 q 367 1217 367 1254 q 389 1156 367 1179 q 447 1132 411 1132 m 121 0 l 19 0 l 385 994 l 508 994 l 878 0 l 774 0 l 676 264 l 218 264 l 121 0 m 433 854 l 249 351 l 644 351 l 458 854 q 453 868 457 860 q 448 883 450 876 q 446 894 446 890 q 433 854 443 879 z "},"Æ":{"ha":1246,"x_min":13,"x_max":1164,"o":"m 13 0 l 410 994 l 1164 994 l 1164 903 l 671 903 l 671 544 l 1117 544 l 1117 454 l 671 454 l 671 92 l 1164 92 l 1164 0 l 571 0 l 571 288 l 233 288 l 119 0 l 13 0 m 267 375 l 571 375 l 571 903 l 475 903 l 267 375 z "},"Ç":{"ha":1013,"x_min":60,"x_max":960,"o":"m 446 -233 l 446 -175 q 525 -197 488 -197 q 571 -185 553 -197 q 589 -150 589 -172 q 533 -104 589 -104 q 465 -121 504 -104 l 453 -86 l 486 -14 q 177 141 294 1 q 60 497 60 281 q 190 869 60 726 q 532 1011 321 1011 q 808 922 693 1011 q 954 685 924 832 l 847 685 q 731 853 817 792 q 528 915 644 915 q 264 801 364 915 q 164 497 164 686 q 264 195 164 310 q 528 81 364 81 q 733 140 646 81 q 853 299 821 199 l 960 299 q 812 75 926 161 q 542 -15 697 -11 l 519 -62 q 561 -56 543 -56 q 628 -80 601 -56 q 656 -147 656 -104 q 620 -226 656 -199 q 532 -254 585 -254 q 446 -233 481 -254 z "},"È":{"ha":799,"x_min":121,"x_max":717,"o":"m 447 1069 l 368 1069 l 265 1236 l 365 1236 l 447 1069 m 717 0 l 121 0 l 121 994 l 715 994 l 715 903 l 221 903 l 221 544 l 669 544 l 669 454 l 221 454 l 221 92 l 717 92 l 717 0 z "},"É":{"ha":799,"x_min":121,"x_max":717,"o":"m 560 1235 l 454 1069 l 375 1069 l 460 1235 l 560 1235 m 717 0 l 121 0 l 121 994 l 715 994 l 715 903 l 221 903 l 221 544 l 669 544 l 669 454 l 221 454 l 221 92 l 717 92 l 717 0 z "},"Ê":{"ha":799,"x_min":121,"x_max":717,"o":"m 331 1069 l 244 1069 l 350 1239 l 471 1239 l 576 1069 l 490 1069 l 411 1193 l 331 1069 m 717 0 l 121 0 l 121 994 l 715 994 l 715 903 l 221 903 l 221 544 l 669 544 l 669 454 l 221 454 l 221 92 l 717 92 l 717 0 z "},"Ë":{"ha":799,"x_min":121,"x_max":717,"o":"m 358 1117 q 348 1107 358 1117 q 310 1097 338 1097 q 262 1117 282 1097 q 242 1165 242 1138 q 262 1214 242 1193 q 310 1235 282 1235 q 358 1214 338 1235 q 379 1165 379 1193 q 358 1117 379 1138 m 560 1117 q 550 1107 560 1117 q 513 1097 540 1097 q 465 1117 485 1097 q 444 1165 444 1138 q 465 1214 444 1193 q 513 1235 485 1235 q 560 1214 540 1235 q 581 1165 581 1193 q 560 1117 581 1138 m 717 0 l 121 0 l 121 994 l 715 994 l 715 903 l 221 903 l 221 544 l 669 544 l 669 454 l 221 454 l 221 92 l 717 92 l 717 0 z "},"Ì":{"ha":342,"x_min":25,"x_max":221,"o":"m 207 1069 l 129 1069 l 25 1236 l 125 1236 l 207 1069 m 221 994 l 221 0 l 121 0 l 121 994 l 221 994 z "},"Í":{"ha":342,"x_min":121,"x_max":319,"o":"m 319 1235 l 214 1069 l 135 1069 l 219 1235 l 319 1235 m 221 994 l 221 0 l 121 0 l 121 994 l 221 994 z "},"Î":{"ha":342,"x_min":4,"x_max":338,"o":"m 90 1069 l 4 1069 l 110 1239 l 231 1239 l 338 1069 l 250 1069 l 171 1193 l 90 1069 m 221 994 l 221 0 l 121 0 l 121 994 l 221 994 z "},"Ï":{"ha":342,"x_min":1,"x_max":342,"o":"m 118 1117 q 108 1107 118 1117 q 69 1097 97 1097 q 22 1117 42 1097 q 1 1165 1 1138 q 22 1214 1 1193 q 69 1235 42 1235 q 118 1214 97 1235 q 139 1165 139 1193 q 118 1117 139 1138 m 321 1117 q 310 1107 321 1117 q 272 1097 300 1097 q 224 1117 244 1097 q 204 1165 204 1138 q 224 1214 204 1193 q 272 1235 244 1235 q 321 1214 300 1235 q 342 1165 342 1193 q 321 1117 342 1138 m 221 994 l 221 0 l 121 0 l 121 994 l 221 994 z "},"Ð":{"ha":981,"x_min":25,"x_max":921,"o":"m 424 0 l 121 0 l 121 454 l 25 454 l 25 540 l 121 540 l 121 994 l 421 994 q 783 858 646 994 q 921 497 921 721 q 784 137 921 274 q 424 0 647 0 m 435 454 l 221 454 l 221 92 l 419 92 q 710 201 601 92 q 818 497 818 311 q 710 793 818 683 q 417 903 601 903 l 221 903 l 221 540 l 435 540 l 435 454 z "},"Ñ":{"ha":990,"x_min":121,"x_max":868,"o":"m 372 1093 l 303 1093 q 326 1201 299 1161 q 404 1240 354 1240 q 496 1203 444 1240 q 574 1165 547 1165 q 621 1240 621 1165 l 689 1240 q 663 1131 692 1169 q 579 1093 635 1093 q 486 1131 536 1093 q 417 1168 436 1168 q 372 1093 372 1168 m 221 0 l 121 0 l 121 994 l 222 994 l 769 167 l 769 994 l 868 994 l 868 0 l 769 0 l 221 828 l 221 0 z "},"Ò":{"ha":1068,"x_min":60,"x_max":1007,"o":"m 569 1069 l 490 1069 l 388 1236 l 488 1236 l 569 1069 m 1007 497 q 874 127 1007 271 q 533 -17 742 -17 q 192 127 324 -17 q 60 497 60 271 q 192 868 60 724 q 533 1013 325 1013 q 875 869 743 1013 q 1007 497 1007 725 m 801 195 q 852 253 801 195 q 904 497 904 311 q 801 799 904 683 q 533 915 699 915 q 266 799 368 915 q 164 497 164 683 q 266 195 164 311 q 533 79 368 79 q 801 195 697 79 z "},"Ó":{"ha":1068,"x_min":60,"x_max":1007,"o":"m 682 1235 l 576 1069 l 497 1069 l 581 1235 l 682 1235 m 1007 497 q 874 127 1007 271 q 533 -17 742 -17 q 192 127 324 -17 q 60 497 60 271 q 192 868 60 724 q 533 1013 325 1013 q 875 869 743 1013 q 1007 497 1007 725 m 801 195 q 852 253 801 195 q 904 497 904 311 q 801 799 904 683 q 533 915 699 915 q 266 799 368 915 q 164 497 164 683 q 266 195 164 311 q 533 79 368 79 q 801 195 697 79 z "},"Ô":{"ha":1068,"x_min":60,"x_max":1007,"o":"m 453 1069 l 367 1069 l 472 1239 l 593 1239 l 699 1069 l 613 1069 l 533 1193 l 453 1069 m 1007 497 q 874 127 1007 271 q 533 -17 742 -17 q 192 127 324 -17 q 60 497 60 271 q 192 868 60 724 q 533 1013 325 1013 q 875 869 743 1013 q 1007 497 1007 725 m 801 195 q 852 253 801 195 q 904 497 904 311 q 801 799 904 683 q 533 915 699 915 q 266 799 368 915 q 164 497 164 683 q 266 195 164 311 q 533 79 368 79 q 801 195 697 79 z "},"Õ":{"ha":1068,"x_min":60,"x_max":1007,"o":"m 408 1093 l 340 1093 q 363 1201 335 1161 q 442 1240 390 1240 q 533 1203 482 1240 q 610 1165 585 1165 q 657 1240 657 1165 l 726 1240 q 617 1093 731 1093 q 522 1131 572 1093 q 453 1168 472 1168 q 408 1093 408 1168 m 1007 497 q 874 127 1007 271 q 533 -17 742 -17 q 192 127 324 -17 q 60 497 60 271 q 192 868 60 724 q 533 1013 325 1013 q 875 869 743 1013 q 1007 497 1007 725 m 801 195 q 852 253 801 195 q 904 497 904 311 q 801 799 904 683 q 533 915 699 915 q 266 799 368 915 q 164 497 164 683 q 266 195 164 311 q 533 79 368 79 q 801 195 697 79 z "},"Ö":{"ha":1068,"x_min":60,"x_max":1007,"o":"m 480 1117 q 470 1107 480 1117 q 432 1097 460 1097 q 384 1117 404 1097 q 364 1165 364 1138 q 384 1214 364 1193 q 432 1235 404 1235 q 480 1214 460 1235 q 500 1165 500 1193 q 480 1117 500 1138 m 683 1117 q 673 1107 683 1117 q 635 1097 663 1097 q 587 1117 607 1097 q 567 1165 567 1138 q 587 1214 567 1193 q 635 1235 607 1235 q 683 1214 663 1235 q 703 1165 703 1193 q 683 1117 703 1138 m 1007 497 q 874 127 1007 271 q 533 -17 742 -17 q 192 127 324 -17 q 60 497 60 271 q 192 868 60 724 q 533 1013 325 1013 q 875 869 743 1013 q 1007 497 1007 725 m 801 195 q 852 253 801 195 q 904 497 904 311 q 801 799 904 683 q 533 915 699 915 q 266 799 368 915 q 164 497 164 683 q 266 195 164 311 q 533 79 368 79 q 801 195 697 79 z "},"×":{"ha":917,"x_min":144,"x_max":772,"o":"m 207 781 l 458 529 l 711 781 l 772 719 l 519 468 l 772 215 l 711 154 l 458 407 l 206 154 l 144 215 l 397 468 l 146 719 l 207 781 z "},"Ø":{"ha":1068,"x_min":60,"x_max":1007,"o":"m 1007 497 q 874 127 1007 271 q 533 -17 742 -17 q 257 69 375 -17 l 204 0 l 104 0 l 197 122 q 60 497 60 264 q 192 868 60 724 q 533 1013 325 1013 q 811 925 690 1013 l 865 996 l 964 996 l 871 874 q 1007 497 1007 729 m 164 497 q 260 203 164 318 l 750 846 q 533 915 658 915 q 266 799 368 915 q 164 497 164 683 m 904 497 q 808 792 904 676 l 317 149 q 533 79 410 79 q 801 195 697 79 q 904 497 904 311 z "},"Ù":{"ha":963,"x_min":114,"x_max":849,"o":"m 518 1069 l 439 1069 l 336 1236 l 436 1236 l 518 1069 m 114 346 l 114 994 l 214 994 l 214 350 q 283 150 214 219 q 483 81 353 81 q 680 151 611 81 q 749 350 749 221 l 749 994 l 849 994 l 849 346 q 751 81 849 178 q 483 -17 653 -17 q 212 80 310 -17 q 114 346 114 176 z "},"Ú":{"ha":963,"x_min":114,"x_max":849,"o":"m 631 1235 l 524 1069 l 446 1069 l 529 1235 l 631 1235 m 114 346 l 114 994 l 214 994 l 214 350 q 283 150 214 219 q 483 81 353 81 q 680 151 611 81 q 749 350 749 221 l 749 994 l 849 994 l 849 346 q 751 81 849 178 q 483 -17 653 -17 q 212 80 310 -17 q 114 346 114 176 z "},"Û":{"ha":963,"x_min":114,"x_max":849,"o":"m 401 1069 l 315 1069 l 421 1239 l 542 1239 l 647 1069 l 561 1069 l 482 1193 l 401 1069 m 114 346 l 114 994 l 214 994 l 214 350 q 283 150 214 219 q 483 81 353 81 q 680 151 611 81 q 749 350 749 221 l 749 994 l 849 994 l 849 346 q 751 81 849 178 q 483 -17 653 -17 q 212 80 310 -17 q 114 346 114 176 z "},"Ü":{"ha":963,"x_min":114,"x_max":849,"o":"m 428 1117 q 418 1107 428 1117 q 381 1097 408 1097 q 333 1117 353 1097 q 313 1165 313 1138 q 333 1214 313 1193 q 381 1235 353 1235 q 428 1214 408 1235 q 449 1165 449 1193 q 428 1117 449 1138 m 631 1117 q 621 1107 631 1117 q 583 1097 611 1097 q 535 1117 556 1097 q 515 1165 515 1138 q 535 1214 515 1193 q 583 1235 556 1235 q 631 1214 611 1235 q 651 1165 651 1193 q 631 1117 651 1138 m 114 346 l 114 994 l 214 994 l 214 350 q 283 150 214 219 q 483 81 353 81 q 680 151 611 81 q 749 350 749 221 l 749 994 l 849 994 l 849 346 q 751 81 849 178 q 483 -17 653 -17 q 212 80 310 -17 q 114 346 114 176 z "},"Ý":{"ha":799,"x_min":14,"x_max":785,"o":"m 549 1235 l 443 1069 l 365 1069 l 449 1235 l 549 1235 m 351 415 l 14 994 l 126 994 l 372 565 q 401 506 389 533 q 432 565 414 531 l 675 994 l 785 994 l 451 415 l 451 0 l 351 0 l 351 415 z "},"Þ":{"ha":853,"x_min":121,"x_max":813,"o":"m 500 200 l 221 200 l 221 0 l 121 0 l 121 994 l 221 994 l 221 803 l 500 803 q 727 719 642 803 q 813 503 813 636 q 726 288 813 375 q 500 200 639 200 m 486 713 l 221 713 l 221 290 l 481 290 q 647 351 586 290 q 708 506 708 411 q 649 656 708 599 q 486 713 589 713 z "},"ß":{"ha":782,"x_min":100,"x_max":736,"o":"m 196 0 l 100 0 l 100 717 q 181 933 100 853 q 394 1013 263 1013 q 588 946 515 1013 q 661 768 661 879 q 625 644 661 699 q 525 567 589 589 q 680 473 624 544 q 736 304 736 401 q 646 86 736 172 q 397 0 556 0 q 275 8 314 0 l 275 88 l 400 88 q 576 149 513 88 q 640 306 640 211 q 576 461 640 406 q 389 517 511 517 l 319 517 l 319 599 l 389 599 q 517 644 469 599 q 565 765 565 689 q 520 883 565 838 q 396 929 475 929 q 251 874 307 929 q 196 722 196 818 l 196 0 z "},"à":{"ha":725,"x_min":65,"x_max":633,"o":"m 404 750 l 326 750 l 222 917 l 324 917 l 404 750 m 293 -17 q 126 38 188 -17 q 65 182 65 92 q 132 330 65 274 q 317 396 199 386 l 539 414 l 539 436 q 361 610 539 610 q 224 572 274 610 q 175 467 175 535 l 88 467 q 163 629 88 568 q 364 690 239 690 q 560 626 486 690 q 633 435 633 563 l 633 0 l 553 0 l 540 118 q 443 19 508 54 q 293 -17 378 -17 m 315 61 q 479 128 419 61 q 539 306 539 194 l 539 342 l 340 326 q 163 185 163 311 q 203 93 163 125 q 315 61 244 61 z "},"á":{"ha":725,"x_min":65,"x_max":633,"o":"m 517 915 l 411 750 l 333 750 l 417 915 l 517 915 m 293 -17 q 126 38 188 -17 q 65 182 65 92 q 132 330 65 274 q 317 396 199 386 l 539 414 l 539 436 q 361 610 539 610 q 224 572 274 610 q 175 467 175 535 l 88 467 q 163 629 88 568 q 364 690 239 690 q 560 626 486 690 q 633 435 633 563 l 633 0 l 553 0 l 540 118 q 443 19 508 54 q 293 -17 378 -17 m 315 61 q 479 128 419 61 q 539 306 539 194 l 539 342 l 340 326 q 163 185 163 311 q 203 93 163 125 q 315 61 244 61 z "},"â":{"ha":725,"x_min":65,"x_max":633,"o":"m 289 750 l 203 750 l 308 919 l 429 919 l 535 750 l 449 750 l 369 874 l 289 750 m 293 -17 q 126 38 188 -17 q 65 182 65 92 q 132 330 65 274 q 317 396 199 386 l 539 414 l 539 436 q 361 610 539 610 q 224 572 274 610 q 175 467 175 535 l 88 467 q 163 629 88 568 q 364 690 239 690 q 560 626 486 690 q 633 435 633 563 l 633 0 l 553 0 l 540 118 q 443 19 508 54 q 293 -17 378 -17 m 315 61 q 479 128 419 61 q 539 306 539 194 l 539 342 l 340 326 q 163 185 163 311 q 203 93 163 125 q 315 61 244 61 z "},"ã":{"ha":725,"x_min":65,"x_max":633,"o":"m 244 774 l 175 774 q 199 881 171 842 q 276 921 226 921 q 368 883 317 921 q 446 846 419 846 q 493 921 493 846 l 561 921 q 535 812 564 850 q 451 774 507 774 q 358 811 408 774 q 289 849 308 849 q 244 774 244 849 m 293 -17 q 126 38 188 -17 q 65 182 65 92 q 132 330 65 274 q 317 396 199 386 l 539 414 l 539 436 q 361 610 539 610 q 224 572 274 610 q 175 467 175 535 l 88 467 q 163 629 88 568 q 364 690 239 690 q 560 626 486 690 q 633 435 633 563 l 633 0 l 553 0 l 540 118 q 443 19 508 54 q 293 -17 378 -17 m 315 61 q 479 128 419 61 q 539 306 539 194 l 539 342 l 340 326 q 163 185 163 311 q 203 93 163 125 q 315 61 244 61 z "},"ä":{"ha":725,"x_min":65,"x_max":633,"o":"m 316 798 q 306 788 316 798 q 268 778 296 778 q 219 798 240 778 q 199 846 199 818 q 219 894 199 874 q 268 915 240 915 q 316 894 296 915 q 336 846 336 874 q 316 798 336 818 m 471 778 q 422 798 442 778 q 401 846 401 818 q 422 894 401 874 q 471 915 443 915 q 519 894 499 915 q 539 846 539 874 q 519 798 539 818 q 471 778 499 778 m 293 -17 q 126 38 188 -17 q 65 182 65 92 q 132 330 65 274 q 317 396 199 386 l 539 414 l 539 436 q 361 610 539 610 q 224 572 274 610 q 175 467 175 535 l 88 467 q 163 629 88 568 q 364 690 239 690 q 560 626 486 690 q 633 435 633 563 l 633 0 l 553 0 l 540 118 q 443 19 508 54 q 293 -17 378 -17 m 315 61 q 479 128 419 61 q 539 306 539 194 l 539 342 l 340 326 q 163 185 163 311 q 203 93 163 125 q 315 61 244 61 z "},"å":{"ha":725,"x_min":65,"x_max":633,"o":"m 369 746 q 262 789 304 746 q 219 897 219 832 q 263 1003 219 961 q 369 1046 306 1046 q 476 1003 433 1046 q 519 897 519 960 q 476 790 519 833 q 369 746 433 746 m 369 813 q 426 836 404 813 q 449 897 449 860 q 426 958 449 933 q 369 982 404 982 q 311 958 333 982 q 289 897 289 935 q 311 836 289 860 q 369 813 333 813 m 293 -17 q 126 38 188 -17 q 65 182 65 92 q 132 330 65 274 q 317 396 199 386 l 539 414 l 539 436 q 361 610 539 610 q 224 572 274 610 q 175 467 175 535 l 88 467 q 163 629 88 568 q 364 690 239 690 q 560 626 486 690 q 633 435 633 563 l 633 0 l 553 0 l 540 118 q 443 19 508 54 q 293 -17 378 -17 m 315 61 q 479 128 419 61 q 539 306 539 194 l 539 342 l 340 326 q 163 185 163 311 q 203 93 163 125 q 315 61 244 61 z "},"æ":{"ha":1217,"x_min":65,"x_max":1164,"o":"m 65 186 q 131 332 65 282 q 311 385 197 382 l 539 390 l 539 436 q 491 565 539 519 q 360 610 443 610 q 224 572 272 610 q 175 467 175 533 l 88 467 q 163 629 88 568 q 361 690 238 690 q 508 653 446 690 q 597 551 571 615 q 857 690 683 690 q 1078 602 994 690 q 1163 371 1163 514 l 1163 324 l 626 324 q 695 134 633 203 q 865 65 757 65 q 1071 201 1035 65 l 1164 201 q 1060 39 1136 94 q 864 -17 983 -17 q 692 28 765 -17 q 579 156 618 74 q 474 31 549 78 q 299 -17 399 -17 q 127 38 189 -17 q 65 186 65 93 m 857 608 q 701 549 763 608 q 629 392 640 490 l 1067 392 q 1010 549 1067 489 q 857 608 953 608 m 163 190 q 205 94 163 126 q 322 61 247 61 q 480 120 421 61 q 539 275 539 179 l 539 321 l 326 315 q 163 190 163 311 z "},"ç":{"ha":722,"x_min":53,"x_max":676,"o":"m 53 335 q 142 592 53 493 q 378 690 232 690 q 574 628 494 690 q 674 461 654 565 l 578 461 q 506 567 560 529 q 379 606 451 606 q 212 532 276 606 q 147 336 147 458 q 209 143 147 217 q 372 69 271 69 q 503 108 447 69 q 579 211 560 146 l 676 211 q 578 53 654 114 q 397 -15 503 -8 l 375 -62 q 417 -56 400 -56 q 485 -80 458 -56 q 513 -147 513 -104 q 476 -226 513 -199 q 389 -254 440 -254 q 303 -233 335 -254 l 303 -175 q 381 -197 343 -197 q 427 -185 408 -197 q 446 -150 446 -172 q 390 -104 446 -104 q 322 -121 360 -104 l 308 -86 l 342 -15 q 132 90 211 -4 q 53 335 53 185 z "},"è":{"ha":733,"x_min":53,"x_max":681,"o":"m 411 750 l 333 750 l 229 917 l 329 917 l 411 750 m 382 -17 q 144 81 235 -17 q 53 336 53 178 q 142 592 53 493 q 375 690 232 690 q 596 602 511 690 q 681 371 681 514 l 681 324 l 146 324 q 213 133 151 200 q 383 65 275 65 q 589 201 550 65 l 681 201 q 576 39 653 94 q 382 -17 500 -17 m 527 549 q 498 579 527 549 q 375 608 469 608 q 221 551 281 608 q 149 393 161 493 l 585 393 q 527 549 585 490 z "},"é":{"ha":733,"x_min":53,"x_max":681,"o":"m 524 915 l 418 750 l 339 750 l 424 915 l 524 915 m 382 -17 q 144 81 235 -17 q 53 336 53 178 q 142 592 53 493 q 375 690 232 690 q 596 602 511 690 q 681 371 681 514 l 681 324 l 146 324 q 213 133 151 200 q 383 65 275 65 q 589 201 550 65 l 681 201 q 576 39 653 94 q 382 -17 500 -17 m 527 549 q 498 579 527 549 q 375 608 469 608 q 221 551 281 608 q 149 393 161 493 l 585 393 q 527 549 585 490 z "},"ê":{"ha":733,"x_min":53,"x_max":681,"o":"m 294 750 l 208 750 l 314 919 l 435 919 l 542 750 l 454 750 l 375 874 l 294 750 m 382 -17 q 144 81 235 -17 q 53 336 53 178 q 142 592 53 493 q 375 690 232 690 q 596 602 511 690 q 681 371 681 514 l 681 324 l 146 324 q 213 133 151 200 q 383 65 275 65 q 589 201 550 65 l 681 201 q 576 39 653 94 q 382 -17 500 -17 m 527 549 q 498 579 527 549 q 375 608 469 608 q 221 551 281 608 q 149 393 161 493 l 585 393 q 527 549 585 490 z "},"ë":{"ha":733,"x_min":53,"x_max":681,"o":"m 322 798 q 312 788 322 798 q 274 778 301 778 q 226 798 246 778 q 206 846 206 818 q 226 894 206 874 q 274 915 246 915 q 322 894 301 915 q 343 846 343 874 q 322 798 343 818 m 525 798 q 515 788 525 798 q 476 778 504 778 q 428 798 449 778 q 408 846 408 818 q 428 894 408 874 q 476 915 449 915 q 525 894 504 915 q 546 846 546 874 q 525 798 546 818 m 382 -17 q 144 81 235 -17 q 53 336 53 178 q 142 592 53 493 q 375 690 232 690 q 596 602 511 690 q 681 371 681 514 l 681 324 l 146 324 q 213 133 151 200 q 383 65 275 65 q 589 201 550 65 l 681 201 q 576 39 653 94 q 382 -17 500 -17 m 527 549 q 498 579 527 549 q 375 608 469 608 q 221 551 281 608 q 149 393 161 493 l 585 393 q 527 549 585 490 z "},"ì":{"ha":296,"x_min":1,"x_max":196,"o":"m 185 750 l 106 750 l 1 917 l 103 917 l 185 750 m 100 0 l 100 672 l 196 672 l 196 0 l 100 0 z "},"í":{"ha":296,"x_min":100,"x_max":297,"o":"m 297 915 l 190 750 l 113 750 l 196 915 l 297 915 m 100 0 l 100 672 l 196 672 l 196 0 l 100 0 z "},"î":{"ha":296,"x_min":-18,"x_max":314,"o":"m 68 750 l -18 750 l 88 919 l 208 919 l 314 750 l 228 750 l 149 874 l 68 750 m 100 0 l 100 672 l 196 672 l 196 0 l 100 0 z "},"ï":{"ha":296,"x_min":-22,"x_max":318,"o":"m 95 798 q 85 788 95 798 q 47 778 75 778 q -1 798 19 778 q -22 846 -22 818 q -1 894 -22 874 q 47 915 19 915 q 95 894 75 915 q 115 846 115 874 q 95 798 115 818 m 298 798 q 288 788 298 798 q 250 778 278 778 q 201 798 222 778 q 181 846 181 818 q 201 894 181 874 q 250 915 222 915 q 298 894 278 915 q 318 846 318 874 q 298 798 318 818 m 100 0 l 100 672 l 196 672 l 196 0 l 100 0 z "},"ð":{"ha":804,"x_min":53,"x_max":751,"o":"m 53 335 q 153 581 53 481 q 396 681 254 681 q 636 565 547 681 q 451 857 585 715 l 310 779 l 281 840 l 401 907 q 293 1013 332 976 l 410 1013 q 479 949 435 990 l 592 1011 l 622 950 l 528 899 q 699 647 646 772 q 751 372 751 522 q 653 89 751 194 q 399 -17 556 -17 q 151 83 249 -17 q 53 335 53 183 m 222 519 q 186 483 222 519 q 150 332 150 446 q 219 144 150 218 q 400 69 289 69 q 583 145 513 69 q 654 338 654 221 q 585 521 654 449 q 406 593 517 593 q 222 519 293 593 z "},"ñ":{"ha":781,"x_min":100,"x_max":689,"o":"m 268 774 l 199 774 q 222 881 194 842 q 301 921 250 921 q 393 883 342 921 q 469 846 444 846 q 517 921 517 846 l 585 921 q 559 812 588 850 q 476 774 531 774 q 382 811 432 774 q 313 849 332 849 q 268 774 268 849 m 196 0 l 100 0 l 100 672 l 183 672 l 197 556 q 292 655 231 619 q 428 690 354 690 q 689 411 689 690 l 689 0 l 593 0 l 593 390 q 411 603 593 603 q 253 535 310 603 q 196 351 196 467 l 196 0 z "},"ò":{"ha":789,"x_min":53,"x_max":736,"o":"m 431 750 l 351 750 l 249 917 l 349 917 l 431 750 m 53 336 q 149 590 53 490 q 394 690 246 690 q 640 590 543 690 q 736 336 736 490 q 640 83 736 183 q 394 -17 543 -17 q 149 83 246 -17 q 53 336 53 183 m 150 338 q 218 144 150 218 q 394 69 286 69 q 570 144 501 69 q 639 338 639 219 q 570 529 639 454 q 394 604 501 604 q 218 529 286 604 q 150 338 150 454 z "},"ó":{"ha":789,"x_min":53,"x_max":736,"o":"m 543 915 l 438 750 l 358 750 l 442 915 l 543 915 m 53 336 q 149 590 53 490 q 394 690 246 690 q 640 590 543 690 q 736 336 736 490 q 640 83 736 183 q 394 -17 543 -17 q 149 83 246 -17 q 53 336 53 183 m 150 338 q 218 144 150 218 q 394 69 286 69 q 570 144 501 69 q 639 338 639 219 q 570 529 639 454 q 394 604 501 604 q 218 529 286 604 q 150 338 150 454 z "},"ô":{"ha":789,"x_min":53,"x_max":736,"o":"m 314 750 l 228 750 l 333 919 l 454 919 l 560 750 l 474 750 l 394 874 l 314 750 m 53 336 q 149 590 53 490 q 394 690 246 690 q 640 590 543 690 q 736 336 736 490 q 640 83 736 183 q 394 -17 543 -17 q 149 83 246 -17 q 53 336 53 183 m 150 338 q 218 144 150 218 q 394 69 286 69 q 570 144 501 69 q 639 338 639 219 q 570 529 639 454 q 394 604 501 604 q 218 529 286 604 q 150 338 150 454 z "},"õ":{"ha":789,"x_min":53,"x_max":736,"o":"m 269 774 l 201 774 q 224 881 197 842 q 303 921 251 921 q 394 883 343 921 q 471 846 446 846 q 518 921 518 846 l 588 921 q 478 774 592 774 q 383 811 433 774 q 314 849 333 849 q 269 774 269 849 m 53 336 q 149 590 53 490 q 394 690 246 690 q 640 590 543 690 q 736 336 736 490 q 640 83 736 183 q 394 -17 543 -17 q 149 83 246 -17 q 53 336 53 183 m 150 338 q 218 144 150 218 q 394 69 286 69 q 570 144 501 69 q 639 338 639 219 q 570 529 639 454 q 394 604 501 604 q 218 529 286 604 q 150 338 150 454 z "},"ö":{"ha":789,"x_min":53,"x_max":736,"o":"m 342 798 q 331 788 342 798 q 293 778 321 778 q 245 798 265 778 q 225 846 225 818 q 245 894 225 874 q 293 915 265 915 q 342 894 321 915 q 363 846 363 874 q 342 798 363 818 m 544 798 q 534 788 544 798 q 496 778 524 778 q 448 798 468 778 q 428 846 428 818 q 448 894 428 874 q 496 915 468 915 q 544 894 524 915 q 564 846 564 874 q 544 798 564 818 m 53 336 q 149 590 53 490 q 394 690 246 690 q 640 590 543 690 q 736 336 736 490 q 640 83 736 183 q 394 -17 543 -17 q 149 83 246 -17 q 53 336 53 183 m 150 338 q 218 144 150 218 q 394 69 286 69 q 570 144 501 69 q 639 338 639 219 q 570 529 639 454 q 394 604 501 604 q 218 529 286 604 q 150 338 150 454 z "},"÷":{"ha":917,"x_min":111,"x_max":806,"o":"m 518 631 q 506 618 518 631 q 458 606 493 606 q 399 631 424 606 q 374 689 374 656 q 399 749 374 724 q 458 774 424 774 q 518 749 493 774 q 543 689 543 724 q 518 631 543 656 m 111 463 l 806 463 l 806 376 l 111 376 l 111 463 m 518 89 q 506 76 518 89 q 458 64 493 64 q 399 89 424 64 q 374 147 374 114 q 399 207 374 182 q 458 232 424 232 q 518 207 493 232 q 543 147 543 182 q 518 89 543 114 z "},"ø":{"ha":789,"x_min":53,"x_max":736,"o":"m 53 336 q 149 590 53 490 q 394 690 246 690 q 551 656 478 690 l 596 728 l 683 728 l 614 614 q 736 336 736 513 q 640 83 736 183 q 394 -17 543 -17 q 244 15 313 -17 l 190 -71 l 101 -71 l 179 56 q 53 336 53 157 m 150 338 q 228 133 150 211 l 504 579 q 394 604 456 604 q 218 529 286 604 q 150 338 150 454 m 639 338 q 564 535 639 460 l 290 92 q 394 69 339 69 q 570 144 501 69 q 639 338 639 219 z "},"ù":{"ha":768,"x_min":92,"x_max":668,"o":"m 413 750 l 333 750 l 231 917 l 331 917 l 413 750 m 572 672 l 668 672 l 668 0 l 585 0 l 572 114 q 480 19 544 56 q 336 -17 415 -17 q 156 57 219 -17 q 92 256 92 131 l 92 674 l 189 674 l 189 286 q 367 69 189 69 q 518 133 464 69 q 572 315 572 196 l 572 672 z "},"ú":{"ha":768,"x_min":92,"x_max":668,"o":"m 525 915 l 419 750 l 340 750 l 424 915 l 525 915 m 572 672 l 668 672 l 668 0 l 585 0 l 572 114 q 480 19 544 56 q 336 -17 415 -17 q 156 57 219 -17 q 92 256 92 131 l 92 674 l 189 674 l 189 286 q 367 69 189 69 q 518 133 464 69 q 572 315 572 196 l 572 672 z "},"û":{"ha":768,"x_min":92,"x_max":668,"o":"m 296 750 l 210 750 l 315 919 l 436 919 l 542 750 l 456 750 l 376 874 l 296 750 m 572 672 l 668 672 l 668 0 l 585 0 l 572 114 q 480 19 544 56 q 336 -17 415 -17 q 156 57 219 -17 q 92 256 92 131 l 92 674 l 189 674 l 189 286 q 367 69 189 69 q 518 133 464 69 q 572 315 572 196 l 572 672 z "},"ü":{"ha":768,"x_min":92,"x_max":668,"o":"m 324 798 q 313 788 324 798 q 275 778 303 778 q 227 798 247 778 q 207 846 207 818 q 227 894 207 874 q 275 915 247 915 q 324 894 303 915 q 344 846 344 874 q 324 798 344 818 m 526 798 q 516 788 526 798 q 478 778 506 778 q 430 798 450 778 q 410 846 410 818 q 430 894 410 874 q 478 915 450 915 q 526 894 506 915 q 546 846 546 874 q 526 798 546 818 m 572 672 l 668 672 l 668 0 l 585 0 l 572 114 q 480 19 544 56 q 336 -17 415 -17 q 156 57 219 -17 q 92 256 92 131 l 92 674 l 189 674 l 189 286 q 367 69 189 69 q 518 133 464 69 q 572 315 572 196 l 572 672 z "},"ý":{"ha":654,"x_min":13,"x_max":642,"o":"m 475 915 l 368 750 l 290 750 l 374 915 l 475 915 m 32 -293 l 32 -214 l 106 -214 q 150 -212 133 -214 q 189 -201 167 -210 q 227 -172 211 -192 q 256 -119 243 -151 l 285 -40 l 13 672 l 114 672 l 331 86 l 543 672 l 642 672 l 333 -154 q 133 -303 279 -303 q 32 -293 75 -303 z "},"þ":{"ha":811,"x_min":100,"x_max":758,"o":"m 675 592 q 717 542 675 592 q 758 338 758 493 q 676 83 758 182 q 447 -17 593 -17 q 196 129 267 -17 l 196 -293 l 100 -293 l 100 1013 l 196 1013 l 196 542 q 449 690 267 690 q 675 592 592 690 m 599 144 q 630 182 599 144 q 661 338 661 219 q 599 530 661 456 q 431 604 538 604 q 260 530 322 604 q 197 338 197 456 q 260 144 197 218 q 431 69 322 69 q 599 144 538 69 z "},"ÿ":{"ha":654,"x_min":13,"x_max":642,"o":"m 273 798 q 263 788 273 798 q 225 778 253 778 q 177 798 197 778 q 157 846 157 818 q 177 894 157 874 q 225 915 197 915 q 273 894 253 915 q 293 846 293 874 q 273 798 293 818 m 476 798 q 466 788 476 798 q 428 778 456 778 q 379 798 400 778 q 358 846 358 818 q 379 894 358 874 q 428 915 400 915 q 476 894 456 915 q 496 846 496 874 q 476 798 496 818 m 32 -293 l 32 -214 l 106 -214 q 150 -212 133 -214 q 189 -201 167 -210 q 227 -172 211 -192 q 256 -119 243 -151 l 285 -40 l 13 672 l 114 672 l 331 86 l 543 672 l 642 672 l 333 -154 q 133 -303 279 -303 q 32 -293 75 -303 z "},"Ā":{"ha":896,"x_min":19,"x_max":878,"o":"m 286 1147 l 286 1224 l 607 1224 l 607 1147 l 286 1147 m 121 0 l 19 0 l 385 994 l 508 994 l 878 0 l 774 0 l 676 264 l 218 264 l 121 0 m 433 854 l 249 351 l 644 351 l 458 854 q 453 868 457 860 q 448 883 450 876 q 446 894 446 890 q 433 854 443 879 z "},"ā":{"ha":725,"x_min":65,"x_max":633,"o":"m 208 828 l 208 904 l 529 904 l 529 828 l 208 828 m 293 -17 q 126 38 188 -17 q 65 182 65 92 q 132 330 65 274 q 317 396 199 386 l 539 414 l 539 436 q 361 610 539 610 q 224 572 274 610 q 175 467 175 535 l 88 467 q 163 629 88 568 q 364 690 239 690 q 560 626 486 690 q 633 435 633 563 l 633 0 l 553 0 l 540 118 q 443 19 508 54 q 293 -17 378 -17 m 315 61 q 479 128 419 61 q 539 306 539 194 l 539 342 l 340 326 q 163 185 163 311 q 203 93 163 125 q 315 61 244 61 z "},"Ă":{"ha":896,"x_min":19,"x_max":878,"o":"m 539 1236 l 617 1236 q 571 1110 617 1157 q 447 1064 525 1064 q 323 1110 369 1064 q 276 1236 276 1156 l 354 1236 q 447 1139 354 1139 q 539 1236 539 1139 m 121 0 l 19 0 l 385 994 l 508 994 l 878 0 l 774 0 l 676 264 l 218 264 l 121 0 m 433 854 l 249 351 l 644 351 l 458 854 q 453 868 457 860 q 448 883 450 876 q 446 894 446 890 q 433 854 443 879 z "},"ă":{"ha":725,"x_min":65,"x_max":633,"o":"m 461 917 l 539 917 q 493 791 539 838 q 369 744 447 744 q 245 790 292 744 q 199 917 199 836 l 276 917 q 369 819 276 819 q 461 917 461 819 m 293 -17 q 126 38 188 -17 q 65 182 65 92 q 132 330 65 274 q 317 396 199 386 l 539 414 l 539 436 q 361 610 539 610 q 224 572 274 610 q 175 467 175 535 l 88 467 q 163 629 88 568 q 364 690 239 690 q 560 626 486 690 q 633 435 633 563 l 633 0 l 553 0 l 540 118 q 443 19 508 54 q 293 -17 378 -17 m 315 61 q 479 128 419 61 q 539 306 539 194 l 539 342 l 340 326 q 163 185 163 311 q 203 93 163 125 q 315 61 244 61 z "},"Ą":{"ha":896,"x_min":19,"x_max":878,"o":"m 121 0 l 19 0 l 385 994 l 508 994 l 878 0 l 876 0 q 797 -92 797 -35 q 846 -135 797 -135 q 875 -129 860 -135 l 875 -203 q 825 -211 853 -211 q 751 -184 779 -211 q 724 -115 724 -157 q 810 0 724 -40 l 774 0 l 676 264 l 218 264 l 121 0 m 433 854 l 249 351 l 644 351 l 458 854 q 453 868 457 860 q 448 883 450 876 q 446 894 446 890 q 433 854 443 879 z "},"ą":{"ha":725,"x_min":65,"x_max":633,"o":"m 293 -17 q 126 38 188 -17 q 65 182 65 92 q 132 330 65 274 q 317 396 199 386 l 539 414 l 539 436 q 361 610 539 610 q 224 572 274 610 q 175 467 175 535 l 88 467 q 163 629 88 568 q 364 690 239 690 q 560 626 486 690 q 633 435 633 563 l 633 0 q 554 -92 554 -33 q 603 -135 554 -135 q 631 -129 615 -135 l 631 -203 q 581 -211 608 -211 q 507 -184 535 -211 q 479 -115 479 -157 q 565 0 479 -40 l 553 0 l 540 118 q 443 19 508 54 q 293 -17 378 -17 m 315 61 q 479 128 419 61 q 539 306 539 194 l 539 342 l 340 326 q 163 185 163 311 q 203 93 163 125 q 315 61 244 61 z "},"Ć":{"ha":1013,"x_min":60,"x_max":960,"o":"m 679 1235 l 574 1069 l 494 1069 l 579 1235 l 679 1235 m 526 -15 q 189 126 318 -15 q 60 497 60 268 q 190 869 60 726 q 532 1011 321 1011 q 808 922 693 1011 q 954 685 924 832 l 847 685 q 731 853 817 792 q 528 915 644 915 q 264 801 364 915 q 164 497 164 686 q 264 195 164 310 q 528 81 364 81 q 733 140 646 81 q 853 299 821 199 l 960 299 q 806 72 925 158 q 526 -15 686 -15 z "},"ć":{"ha":722,"x_min":53,"x_max":676,"o":"m 514 915 l 408 750 l 331 750 l 414 915 l 514 915 m 141 80 q 97 128 141 80 q 53 335 53 176 q 142 592 53 493 q 378 690 232 690 q 574 628 494 690 q 674 461 654 565 l 578 461 q 506 567 560 529 q 379 606 451 606 q 212 532 276 606 q 147 336 147 458 q 209 143 147 217 q 372 69 271 69 q 503 108 447 69 q 579 211 560 146 l 676 211 q 569 46 653 108 q 372 -17 486 -17 q 141 80 229 -17 z "},"Ĉ":{"ha":1013,"x_min":60,"x_max":960,"o":"m 450 1069 l 364 1069 l 469 1239 l 590 1239 l 696 1069 l 610 1069 l 531 1193 l 450 1069 m 526 -15 q 189 126 318 -15 q 60 497 60 268 q 190 869 60 726 q 532 1011 321 1011 q 808 922 693 1011 q 954 685 924 832 l 847 685 q 731 853 817 792 q 528 915 644 915 q 264 801 364 915 q 164 497 164 686 q 264 195 164 310 q 528 81 364 81 q 733 140 646 81 q 853 299 821 199 l 960 299 q 806 72 925 158 q 526 -15 686 -15 z "},"ĉ":{"ha":722,"x_min":53,"x_max":676,"o":"m 286 750 l 199 750 l 306 919 l 426 919 l 532 750 l 446 750 l 367 874 l 286 750 m 141 80 q 97 128 141 80 q 53 335 53 176 q 142 592 53 493 q 378 690 232 690 q 574 628 494 690 q 674 461 654 565 l 578 461 q 506 567 560 529 q 379 606 451 606 q 212 532 276 606 q 147 336 147 458 q 209 143 147 217 q 372 69 271 69 q 503 108 447 69 q 579 211 560 146 l 676 211 q 569 46 653 108 q 372 -17 486 -17 q 141 80 229 -17 z "},"Ċ":{"ha":1013,"x_min":60,"x_max":960,"o":"m 531 1097 q 481 1118 501 1097 q 461 1167 461 1139 q 482 1216 461 1194 q 531 1238 503 1238 q 579 1216 558 1238 q 600 1167 600 1194 q 579 1118 600 1139 q 531 1097 558 1097 m 526 -15 q 189 126 318 -15 q 60 497 60 268 q 190 869 60 726 q 532 1011 321 1011 q 808 922 693 1011 q 954 685 924 832 l 847 685 q 731 853 817 792 q 528 915 644 915 q 264 801 364 915 q 164 497 164 686 q 264 195 164 310 q 528 81 364 81 q 733 140 646 81 q 853 299 821 199 l 960 299 q 806 72 925 158 q 526 -15 686 -15 z "},"ċ":{"ha":722,"x_min":53,"x_max":676,"o":"m 415 799 q 404 788 415 799 q 365 778 393 778 q 317 799 338 778 q 296 847 296 819 q 317 897 296 875 q 365 918 338 918 q 415 897 393 918 q 436 847 436 875 q 415 799 436 819 m 141 80 q 97 128 141 80 q 53 335 53 176 q 142 592 53 493 q 378 690 232 690 q 574 628 494 690 q 674 461 654 565 l 578 461 q 506 567 560 529 q 379 606 451 606 q 212 532 276 606 q 147 336 147 458 q 209 143 147 217 q 372 69 271 69 q 503 108 447 69 q 579 211 560 146 l 676 211 q 569 46 653 108 q 372 -17 486 -17 q 141 80 229 -17 z "},"Č":{"ha":1013,"x_min":60,"x_max":960,"o":"m 469 1069 l 364 1239 l 450 1239 l 531 1117 l 610 1239 l 697 1239 l 590 1069 l 469 1069 m 526 -15 q 189 126 318 -15 q 60 497 60 268 q 190 869 60 726 q 532 1011 321 1011 q 808 922 693 1011 q 954 685 924 832 l 847 685 q 731 853 817 792 q 528 915 644 915 q 264 801 364 915 q 164 497 164 686 q 264 195 164 310 q 528 81 364 81 q 733 140 646 81 q 853 299 821 199 l 960 299 q 806 72 925 158 q 526 -15 686 -15 z "},"č":{"ha":722,"x_min":53,"x_max":676,"o":"m 306 750 l 199 919 l 286 919 l 367 797 l 446 919 l 532 919 l 426 750 l 306 750 m 141 80 q 97 128 141 80 q 53 335 53 176 q 142 592 53 493 q 378 690 232 690 q 574 628 494 690 q 674 461 654 565 l 578 461 q 506 567 560 529 q 379 606 451 606 q 212 532 276 606 q 147 336 147 458 q 209 143 147 217 q 372 69 271 69 q 503 108 447 69 q 579 211 560 146 l 676 211 q 569 46 653 108 q 372 -17 486 -17 q 141 80 229 -17 z "},"Ď":{"ha":981,"x_min":121,"x_max":921,"o":"m 356 1069 l 250 1238 l 336 1238 l 417 1115 l 496 1238 l 582 1238 l 476 1069 l 356 1069 m 424 0 l 121 0 l 121 994 l 421 994 q 783 858 646 994 q 921 497 921 721 q 784 137 921 274 q 424 0 647 0 m 417 903 l 221 903 l 221 92 l 419 92 q 710 201 601 92 q 818 497 818 311 q 710 793 818 683 q 417 903 601 903 z "},"ď":{"ha":811,"x_min":53,"x_max":876,"o":"m 364 -17 q 136 82 219 -17 q 53 335 53 181 q 138 591 53 492 q 368 690 222 690 q 615 544 544 690 l 615 1013 l 711 1013 l 711 0 l 628 0 l 618 138 q 517 22 583 61 q 364 -17 450 -17 m 788 796 l 788 1013 l 876 1013 l 853 796 l 788 796 m 381 71 q 551 144 489 71 q 614 338 614 218 q 551 530 614 456 q 381 604 489 604 q 212 530 274 604 q 150 338 150 456 q 212 144 150 218 q 381 71 274 71 z "},"Đ":{"ha":981,"x_min":25,"x_max":921,"o":"m 424 0 l 121 0 l 121 454 l 25 454 l 25 540 l 121 540 l 121 994 l 421 994 q 783 858 646 994 q 921 497 921 721 q 784 137 921 274 q 424 0 647 0 m 435 454 l 221 454 l 221 92 l 419 92 q 710 201 601 92 q 818 497 818 311 q 710 793 818 683 q 417 903 601 903 l 221 903 l 221 540 l 435 540 l 435 454 z "},"đ":{"ha":811,"x_min":53,"x_max":794,"o":"m 364 -17 q 136 82 219 -17 q 53 335 53 181 q 138 591 53 492 q 368 690 222 690 q 615 544 544 690 l 615 801 l 392 801 l 392 869 l 615 869 l 615 1013 l 711 1013 l 711 869 l 794 869 l 794 801 l 711 801 l 711 0 l 628 0 l 618 138 q 517 22 583 61 q 364 -17 450 -17 m 381 71 q 551 144 489 71 q 614 338 614 218 q 551 530 614 456 q 381 604 489 604 q 212 530 274 604 q 150 338 150 456 q 212 144 150 218 q 381 71 274 71 z "},"Ē":{"ha":799,"x_min":121,"x_max":717,"o":"m 250 1147 l 250 1224 l 572 1224 l 572 1147 l 250 1147 m 717 0 l 121 0 l 121 994 l 715 994 l 715 903 l 221 903 l 221 544 l 669 544 l 669 454 l 221 454 l 221 92 l 717 92 l 717 0 z "},"ē":{"ha":733,"x_min":53,"x_max":681,"o":"m 214 828 l 214 904 l 536 904 l 536 828 l 214 828 m 382 -17 q 144 81 235 -17 q 53 336 53 178 q 142 592 53 493 q 375 690 232 690 q 596 602 511 690 q 681 371 681 514 l 681 324 l 146 324 q 213 133 151 200 q 383 65 275 65 q 589 201 550 65 l 681 201 q 576 39 653 94 q 382 -17 500 -17 m 527 549 q 498 579 527 549 q 375 608 469 608 q 221 551 281 608 q 149 393 161 493 l 585 393 q 527 549 585 490 z "},"Ĕ":{"ha":799,"x_min":121,"x_max":717,"o":"m 504 1236 l 582 1236 q 535 1110 582 1157 q 411 1064 489 1064 q 288 1110 333 1064 q 242 1236 242 1156 l 319 1236 q 411 1139 319 1139 q 504 1236 504 1139 m 717 0 l 121 0 l 121 994 l 715 994 l 715 903 l 221 903 l 221 544 l 669 544 l 669 454 l 221 454 l 221 92 l 717 92 l 717 0 z "},"ĕ":{"ha":733,"x_min":53,"x_max":681,"o":"m 468 917 l 546 917 q 499 791 546 838 q 375 744 453 744 q 251 790 297 744 q 206 917 206 836 l 283 917 q 375 819 283 819 q 468 917 468 819 m 382 -17 q 144 81 235 -17 q 53 336 53 178 q 142 592 53 493 q 375 690 232 690 q 596 602 511 690 q 681 371 681 514 l 681 324 l 146 324 q 213 133 151 200 q 383 65 275 65 q 589 201 550 65 l 681 201 q 576 39 653 94 q 382 -17 500 -17 m 527 549 q 498 579 527 549 q 375 608 469 608 q 221 551 281 608 q 149 393 161 493 l 585 393 q 527 549 585 490 z "},"Ė":{"ha":799,"x_min":121,"x_max":717,"o":"m 411 1097 q 362 1118 382 1097 q 342 1167 342 1139 q 363 1216 342 1194 q 411 1238 383 1238 q 460 1216 439 1238 q 481 1167 481 1194 q 460 1118 481 1139 q 411 1097 439 1097 m 717 0 l 121 0 l 121 994 l 715 994 l 715 903 l 221 903 l 221 544 l 669 544 l 669 454 l 221 454 l 221 92 l 717 92 l 717 0 z "},"ė":{"ha":733,"x_min":53,"x_max":681,"o":"m 375 778 q 326 799 346 778 q 306 847 306 819 q 326 897 306 875 q 375 918 347 918 q 424 897 403 918 q 444 847 444 875 q 424 799 444 819 q 375 778 403 778 m 382 -17 q 144 81 235 -17 q 53 336 53 178 q 142 592 53 493 q 375 690 232 690 q 596 602 511 690 q 681 371 681 514 l 681 324 l 146 324 q 213 133 151 200 q 383 65 275 65 q 589 201 550 65 l 681 201 q 576 39 653 94 q 382 -17 500 -17 m 527 549 q 498 579 527 549 q 375 608 469 608 q 221 551 281 608 q 149 393 161 493 l 585 393 q 527 549 585 490 z "},"Ę":{"ha":799,"x_min":121,"x_max":717,"o":"m 650 0 l 121 0 l 121 994 l 715 994 l 715 903 l 221 903 l 221 544 l 669 544 l 669 454 l 221 454 l 221 92 l 717 92 l 717 0 q 638 -92 638 -35 q 686 -135 638 -135 q 715 -129 700 -135 l 715 -203 q 664 -211 692 -211 q 590 -184 618 -211 q 563 -115 563 -157 q 650 0 563 -40 z "},"ę":{"ha":733,"x_min":53,"x_max":681,"o":"m 382 -17 q 144 81 235 -17 q 53 336 53 178 q 142 592 53 493 q 375 690 232 690 q 596 602 511 690 q 681 371 681 514 l 681 324 l 146 324 q 213 133 151 200 q 383 65 275 65 q 589 201 550 65 l 681 201 q 499 0 640 44 q 419 -92 419 -35 q 468 -135 419 -135 q 496 -129 483 -135 l 496 -203 q 446 -211 475 -211 q 372 -184 400 -211 q 344 -115 344 -157 q 403 -17 344 -56 l 382 -17 m 527 549 q 498 579 527 549 q 375 608 469 608 q 221 551 281 608 q 149 393 161 493 l 585 393 q 527 549 585 490 z "},"Ě":{"ha":799,"x_min":121,"x_max":717,"o":"m 350 1069 l 244 1239 l 331 1239 l 411 1117 l 490 1239 l 576 1239 l 471 1069 l 350 1069 m 717 0 l 121 0 l 121 994 l 715 994 l 715 903 l 221 903 l 221 544 l 669 544 l 669 454 l 221 454 l 221 92 l 717 92 l 717 0 z "},"ě":{"ha":733,"x_min":53,"x_max":681,"o":"m 314 750 l 208 919 l 294 919 l 375 797 l 454 919 l 542 919 l 435 750 l 314 750 m 382 -17 q 144 81 235 -17 q 53 336 53 178 q 142 592 53 493 q 375 690 232 690 q 596 602 511 690 q 681 371 681 514 l 681 324 l 146 324 q 213 133 151 200 q 383 65 275 65 q 589 201 550 65 l 681 201 q 576 39 653 94 q 382 -17 500 -17 m 527 549 q 498 579 527 549 q 375 608 469 608 q 221 551 281 608 q 149 393 161 493 l 585 393 q 527 549 585 490 z "},"Ĝ":{"ha":1042,"x_min":60,"x_max":964,"o":"m 458 1071 l 372 1071 l 478 1240 l 599 1240 l 704 1071 l 618 1071 l 539 1194 l 458 1071 m 538 917 q 265 801 367 917 q 164 493 164 685 q 267 190 164 301 q 540 78 371 78 q 663 94 606 78 q 767 147 719 111 q 842 247 814 183 q 869 397 869 311 l 869 449 l 510 449 l 510 538 l 964 538 l 964 -1 l 885 -1 l 875 157 q 743 32 833 81 q 536 -17 653 -17 q 192 124 324 -17 q 60 493 60 264 q 193 867 60 722 q 539 1011 326 1011 q 808 929 696 1011 q 950 711 921 847 l 842 711 q 731 864 811 811 q 538 917 650 917 z "},"ĝ":{"ha":811,"x_min":54,"x_max":711,"o":"m 308 764 l 221 764 l 328 932 l 449 932 l 554 764 l 468 764 l 389 886 l 308 764 m 138 117 q 96 166 138 117 q 54 356 54 214 q 140 594 54 497 q 369 690 226 690 q 618 538 551 690 l 628 672 l 711 672 l 711 21 q 622 -219 711 -129 q 386 -310 533 -310 q 172 -241 257 -310 q 67 -50 86 -172 l 163 -50 q 238 -177 178 -132 q 388 -222 297 -222 q 553 -158 490 -222 q 617 11 617 -94 l 617 171 q 515 60 582 100 q 363 21 449 21 q 138 117 222 21 m 150 357 q 212 178 150 250 q 376 107 274 107 q 546 176 483 107 q 608 357 608 246 q 547 536 608 467 q 378 606 486 606 q 211 534 272 606 q 150 357 150 463 z "},"Ğ":{"ha":1042,"x_min":60,"x_max":964,"o":"m 631 1238 l 708 1238 q 663 1111 708 1157 q 539 1065 617 1065 q 415 1112 461 1065 q 368 1238 368 1158 l 446 1238 q 539 1140 446 1140 q 631 1238 631 1140 m 538 917 q 265 801 367 917 q 164 493 164 685 q 267 190 164 301 q 540 78 371 78 q 663 94 606 78 q 767 147 719 111 q 842 247 814 183 q 869 397 869 311 l 869 449 l 510 449 l 510 538 l 964 538 l 964 -1 l 885 -1 l 875 157 q 743 32 833 81 q 536 -17 653 -17 q 192 124 324 -17 q 60 493 60 264 q 193 867 60 722 q 539 1011 326 1011 q 808 929 696 1011 q 950 711 921 847 l 842 711 q 731 864 811 811 q 538 917 650 917 z "},"ğ":{"ha":811,"x_min":54,"x_max":711,"o":"m 481 931 l 558 931 q 513 803 558 850 q 389 757 467 757 q 264 803 310 757 q 218 931 218 850 l 296 931 q 389 833 296 833 q 481 931 481 833 m 138 117 q 96 166 138 117 q 54 356 54 214 q 140 594 54 497 q 369 690 226 690 q 618 538 551 690 l 628 672 l 711 672 l 711 21 q 622 -219 711 -129 q 386 -310 533 -310 q 172 -241 257 -310 q 67 -50 86 -172 l 163 -50 q 238 -177 178 -132 q 388 -222 297 -222 q 553 -158 490 -222 q 617 11 617 -94 l 617 171 q 515 60 582 100 q 363 21 449 21 q 138 117 222 21 m 150 357 q 212 178 150 250 q 376 107 274 107 q 546 176 483 107 q 608 357 608 246 q 547 536 608 467 q 378 606 486 606 q 211 534 272 606 q 150 357 150 463 z "},"Ġ":{"ha":1042,"x_min":60,"x_max":964,"o":"m 539 1099 q 489 1119 510 1099 q 468 1168 468 1139 q 489 1217 468 1196 q 539 1239 510 1239 q 588 1217 567 1239 q 608 1168 608 1196 q 588 1119 608 1140 q 539 1099 567 1099 m 538 917 q 265 801 367 917 q 164 493 164 685 q 267 190 164 301 q 540 78 371 78 q 663 94 606 78 q 767 147 719 111 q 842 247 814 183 q 869 397 869 311 l 869 449 l 510 449 l 510 538 l 964 538 l 964 -1 l 885 -1 l 875 157 q 743 32 833 81 q 536 -17 653 -17 q 192 124 324 -17 q 60 493 60 264 q 193 867 60 722 q 539 1011 326 1011 q 808 929 696 1011 q 950 711 921 847 l 842 711 q 731 864 811 811 q 538 917 650 917 z "},"ġ":{"ha":811,"x_min":54,"x_max":711,"o":"m 437 812 q 426 802 437 812 q 388 792 415 792 q 339 812 360 792 q 318 860 318 832 q 339 910 318 889 q 388 931 360 931 q 437 910 415 931 q 458 860 458 889 q 437 812 458 832 m 138 117 q 96 166 138 117 q 54 356 54 214 q 140 594 54 497 q 369 690 226 690 q 618 538 551 690 l 628 672 l 711 672 l 711 21 q 622 -219 711 -129 q 386 -310 533 -310 q 172 -241 257 -310 q 67 -50 86 -172 l 163 -50 q 238 -177 178 -132 q 388 -222 297 -222 q 553 -158 490 -222 q 617 11 617 -94 l 617 171 q 515 60 582 100 q 363 21 449 21 q 138 117 222 21 m 150 357 q 212 178 150 250 q 376 107 274 107 q 546 176 483 107 q 608 357 608 246 q 547 536 608 467 q 378 606 486 606 q 211 534 272 606 q 150 357 150 463 z "},"Ģ":{"ha":1042,"x_min":60,"x_max":964,"o":"m 538 917 q 265 801 367 917 q 164 493 164 685 q 267 190 164 301 q 540 78 371 78 q 663 94 606 78 q 767 147 719 111 q 842 247 814 183 q 869 397 869 311 l 869 449 l 510 449 l 510 538 l 964 538 l 964 -1 l 885 -1 l 875 157 q 743 32 833 81 q 536 -17 653 -17 q 192 124 324 -17 q 60 493 60 264 q 193 867 60 722 q 539 1011 326 1011 q 808 929 696 1011 q 950 711 921 847 l 842 711 q 731 864 811 811 q 538 917 650 917 m 601 -137 q 565 -237 601 -200 q 479 -271 528 -274 l 479 -229 q 547 -174 540 -232 q 526 -178 536 -178 q 482 -161 500 -178 q 464 -118 464 -144 q 483 -69 464 -89 q 529 -50 501 -50 q 582 -73 563 -50 q 601 -137 601 -96 z "},"ģ":{"ha":811,"x_min":54,"x_max":711,"o":"m 451 821 q 433 774 451 793 q 386 754 414 754 q 334 777 353 754 q 315 842 315 800 q 351 941 315 904 q 436 975 388 978 l 436 933 q 369 879 374 936 q 390 882 383 882 q 433 865 415 882 q 451 821 451 847 m 138 117 q 96 166 138 117 q 54 356 54 214 q 140 594 54 497 q 369 690 226 690 q 618 538 551 690 l 628 672 l 711 672 l 711 21 q 622 -219 711 -129 q 386 -310 533 -310 q 172 -241 257 -310 q 67 -50 86 -172 l 163 -50 q 238 -177 178 -132 q 388 -222 297 -222 q 553 -158 490 -222 q 617 11 617 -94 l 617 171 q 515 60 582 100 q 363 21 449 21 q 138 117 222 21 m 150 357 q 212 178 150 250 q 376 107 274 107 q 546 176 483 107 q 608 357 608 246 q 547 536 608 467 q 378 606 486 606 q 211 534 272 606 q 150 357 150 463 z "},"Ħ":{"ha":979,"x_min":6,"x_max":976,"o":"m 221 0 l 121 0 l 121 757 l 6 757 l 6 844 l 121 844 l 121 994 l 221 994 l 221 844 l 758 844 l 758 994 l 857 994 l 857 844 l 976 844 l 976 757 l 857 757 l 857 0 l 758 0 l 758 458 l 221 458 l 221 0 m 221 551 l 758 551 l 758 757 l 221 757 l 221 551 z "},"ħ":{"ha":781,"x_min":15,"x_max":689,"o":"m 196 1 l 100 1 l 100 801 l 15 801 l 15 869 l 100 869 l 100 1013 l 196 1013 l 196 869 l 418 869 l 418 801 l 196 801 l 196 556 q 433 690 268 690 q 626 617 563 690 q 689 411 689 543 l 689 0 l 593 0 l 593 390 q 415 603 593 603 q 253 535 311 603 q 196 367 196 468 l 196 1 z "},"Ĩ":{"ha":342,"x_min":-22,"x_max":364,"o":"m 46 1093 l -22 1093 q 1 1201 -26 1161 q 79 1240 28 1240 q 171 1203 119 1240 q 249 1165 222 1165 q 294 1240 294 1165 l 364 1240 q 254 1093 368 1093 q 160 1131 210 1093 q 90 1168 110 1168 q 46 1093 46 1168 m 221 994 l 221 0 l 121 0 l 121 994 l 221 994 z "},"ĩ":{"ha":296,"x_min":-46,"x_max":340,"o":"m 24 774 l -46 774 q -22 881 -50 842 q 57 921 6 921 q 149 883 97 921 q 225 846 200 846 q 272 921 272 846 l 340 921 q 315 812 343 850 q 231 774 286 774 q 138 811 188 774 q 68 849 88 849 q 24 774 24 849 m 100 0 l 100 672 l 196 672 l 196 0 l 100 0 z "},"Ī":{"ha":342,"x_min":10,"x_max":332,"o":"m 10 1147 l 10 1224 l 332 1224 l 332 1147 l 10 1147 m 221 994 l 221 0 l 121 0 l 121 994 l 221 994 z "},"ī":{"ha":296,"x_min":-12,"x_max":310,"o":"m -12 828 l -12 904 l 310 904 l 310 828 l -12 828 m 100 0 l 100 672 l 196 672 l 196 0 l 100 0 z "},"Į":{"ha":342,"x_min":67,"x_max":221,"o":"m 154 0 l 121 0 l 121 994 l 221 994 l 221 0 q 142 -92 142 -35 q 190 -135 142 -135 q 219 -129 204 -135 l 219 -203 q 168 -211 196 -211 q 94 -184 122 -211 q 67 -115 67 -157 q 154 0 67 -40 z "},"į":{"ha":296,"x_min":42,"x_max":219,"o":"m 198 878 q 187 867 198 878 q 147 857 176 857 q 97 878 118 857 q 76 928 76 899 q 97 978 76 957 q 147 1000 118 1000 q 198 978 176 1000 q 219 928 219 957 q 198 878 219 899 m 100 0 l 100 672 l 196 672 l 196 0 q 117 -92 117 -33 q 164 -135 117 -135 q 193 -129 178 -135 l 193 -203 q 143 -211 169 -211 q 69 -184 97 -211 q 42 -115 42 -157 q 128 0 42 -40 l 100 0 z "},"İ":{"ha":342,"x_min":101,"x_max":240,"o":"m 171 1097 q 122 1118 142 1097 q 101 1167 101 1139 q 122 1216 101 1194 q 171 1238 143 1238 q 219 1216 199 1238 q 240 1167 240 1194 q 219 1118 240 1139 q 171 1097 199 1097 m 221 994 l 221 0 l 121 0 l 121 994 l 221 994 z "},"ı":{"ha":296,"x_min":100,"x_max":196,"o":"m 100 0 l 100 672 l 196 672 l 196 0 l 100 0 z "},"Ĵ":{"ha":708,"x_min":28,"x_max":710,"o":"m 464 1071 l 378 1071 l 483 1240 l 604 1240 l 710 1071 l 624 1071 l 544 1194 l 464 1071 m 28 274 l 28 313 l 125 313 l 125 274 q 173 131 125 183 q 310 78 221 78 q 448 131 401 78 q 494 275 494 183 l 494 994 l 594 994 l 594 272 q 516 61 594 139 q 310 -17 438 -17 q 103 63 178 -17 q 28 274 28 142 z "},"ĵ":{"ha":296,"x_min":-79,"x_max":314,"o":"m 68 750 l -18 750 l 88 919 l 208 919 l 314 750 l 228 750 l 149 874 l 68 750 m -79 -294 l -61 -207 q 4 -217 -22 -217 q 100 -96 100 -217 l 100 672 l 196 672 l 196 -101 q 147 -252 196 -197 q 11 -307 99 -307 q -79 -294 -35 -307 z "},"Ķ":{"ha":856,"x_min":121,"x_max":825,"o":"m 221 994 l 221 396 l 700 994 l 819 994 l 482 574 l 825 0 l 708 0 l 417 490 l 221 247 l 221 0 l 121 0 l 121 994 l 221 994 m 529 -137 q 492 -237 529 -200 q 407 -271 456 -274 l 407 -229 q 475 -174 468 -232 q 454 -178 464 -178 q 410 -161 428 -178 q 392 -118 392 -144 q 410 -69 392 -89 q 457 -50 429 -50 q 510 -73 490 -50 q 529 -137 529 -96 z "},"ķ":{"ha":669,"x_min":104,"x_max":656,"o":"m 200 0 l 104 0 l 104 1013 l 200 1013 l 200 325 l 533 672 l 654 672 l 396 404 l 656 0 l 544 0 l 331 336 l 200 201 l 200 0 m 414 -137 q 378 -237 414 -200 q 293 -271 342 -274 l 293 -229 q 361 -174 354 -232 q 339 -178 350 -178 q 296 -160 314 -178 q 278 -118 278 -143 q 297 -69 278 -89 q 343 -50 315 -50 q 395 -73 376 -50 q 414 -137 414 -96 z "},"Ĺ":{"ha":707,"x_min":121,"x_max":678,"o":"m 319 1229 l 214 1064 l 135 1064 l 219 1229 l 319 1229 m 221 994 l 221 92 l 678 92 l 678 0 l 121 0 l 121 994 l 221 994 z "},"ĺ":{"ha":304,"x_min":104,"x_max":300,"o":"m 300 1235 l 194 1069 l 117 1069 l 200 1235 l 300 1235 m 200 0 l 104 0 l 104 1013 l 200 1013 l 200 0 z "},"Ļ":{"ha":707,"x_min":121,"x_max":678,"o":"m 221 994 l 221 92 l 678 92 l 678 0 l 121 0 l 121 994 l 221 994 m 453 -137 q 416 -237 453 -200 q 331 -271 379 -274 l 331 -229 q 399 -174 392 -232 q 378 -178 389 -178 q 333 -161 351 -178 q 315 -118 315 -144 q 334 -69 315 -89 q 381 -50 353 -50 q 433 -73 414 -50 q 453 -137 453 -96 z "},"ļ":{"ha":304,"x_min":82,"x_max":218,"o":"m 200 0 l 104 0 l 104 1013 l 200 1013 l 200 0 m 218 -137 q 182 -237 218 -200 q 97 -271 146 -274 l 97 -229 q 165 -174 158 -232 q 143 -178 156 -178 q 100 -160 118 -178 q 82 -118 82 -143 q 101 -69 82 -89 q 147 -50 119 -50 q 199 -73 181 -50 q 218 -137 218 -96 z "},"Ľ":{"ha":707,"x_min":121,"x_max":678,"o":"m 221 994 l 221 92 l 678 92 l 678 0 l 121 0 l 121 994 l 221 994 m 297 779 l 297 994 l 388 994 l 364 779 l 297 779 z "},"ľ":{"ha":304,"x_min":104,"x_max":367,"o":"m 200 0 l 104 0 l 104 1013 l 200 1013 l 200 0 m 276 796 l 276 1013 l 367 1013 l 343 796 l 276 796 z "},"Ŀ":{"ha":707,"x_min":121,"x_max":678,"o":"m 221 994 l 221 92 l 678 92 l 678 0 l 121 0 l 121 994 l 221 994 m 474 460 q 464 451 474 460 q 428 442 454 442 q 382 460 401 442 q 363 506 363 479 q 381 553 363 533 q 428 572 400 572 q 474 552 454 572 q 493 506 493 532 q 474 460 493 479 z "},"ŀ":{"ha":458,"x_min":104,"x_max":450,"o":"m 200 0 l 104 0 l 104 1013 l 200 1013 l 200 0 m 382 435 q 333 455 354 435 q 313 503 313 475 q 333 551 313 531 q 382 571 353 571 q 430 551 410 571 q 450 503 450 531 q 429 455 450 475 q 382 435 408 435 z "},"Ł":{"ha":707,"x_min":22,"x_max":678,"o":"m 22 364 l 22 453 l 121 500 l 121 994 l 221 994 l 221 547 l 490 676 l 490 588 l 221 458 l 221 92 l 678 92 l 678 0 l 121 0 l 121 411 l 22 364 z "},"ł":{"ha":304,"x_min":18,"x_max":286,"o":"m 200 0 l 104 0 l 104 471 l 18 429 l 18 506 l 104 547 l 104 1013 l 200 1013 l 200 593 l 286 635 l 286 557 l 200 515 l 200 0 z "},"Ń":{"ha":990,"x_min":121,"x_max":868,"o":"m 644 1235 l 539 1069 l 461 1069 l 544 1235 l 644 1235 m 221 0 l 121 0 l 121 994 l 222 994 l 769 167 l 769 994 l 868 994 l 868 0 l 769 0 l 221 828 l 221 0 z "},"ń":{"ha":781,"x_min":100,"x_max":689,"o":"m 542 915 l 435 750 l 357 750 l 440 915 l 542 915 m 196 0 l 100 0 l 100 672 l 183 672 l 197 556 q 292 655 231 619 q 428 690 354 690 q 689 411 689 690 l 689 0 l 593 0 l 593 390 q 411 603 593 603 q 253 535 310 603 q 196 351 196 467 l 196 0 z "},"Ņ":{"ha":990,"x_min":121,"x_max":868,"o":"m 221 0 l 121 0 l 121 994 l 222 994 l 769 167 l 769 994 l 868 994 l 868 0 l 769 0 l 221 828 l 221 0 m 568 -137 q 532 -237 568 -200 q 447 -271 496 -274 l 447 -229 q 515 -174 508 -232 q 493 -178 506 -178 q 450 -160 468 -178 q 432 -118 432 -143 q 451 -69 432 -89 q 497 -50 469 -50 q 549 -73 531 -50 q 568 -137 568 -96 z "},"ņ":{"ha":781,"x_min":100,"x_max":689,"o":"m 196 0 l 100 0 l 100 672 l 183 672 l 197 556 q 292 655 231 619 q 428 690 354 690 q 689 411 689 690 l 689 0 l 593 0 l 593 390 q 411 603 593 603 q 253 535 310 603 q 196 351 196 467 l 196 0 m 457 -137 q 420 -237 457 -200 q 335 -271 383 -274 l 335 -229 q 403 -174 396 -232 q 382 -178 392 -178 q 338 -161 356 -178 q 319 -118 319 -144 q 338 -69 319 -89 q 385 -50 357 -50 q 438 -73 418 -50 q 457 -137 457 -96 z "},"Ň":{"ha":990,"x_min":121,"x_max":868,"o":"m 436 1069 l 331 1239 l 417 1239 l 497 1117 l 576 1239 l 663 1239 l 557 1069 l 436 1069 m 221 0 l 121 0 l 121 994 l 222 994 l 769 167 l 769 994 l 868 994 l 868 0 l 769 0 l 221 828 l 221 0 z "},"ň":{"ha":781,"x_min":100,"x_max":689,"o":"m 332 750 l 226 919 l 313 919 l 393 797 l 472 919 l 558 919 l 453 750 l 332 750 m 196 0 l 100 0 l 100 672 l 183 672 l 197 556 q 292 655 231 619 q 428 690 354 690 q 689 411 689 690 l 689 0 l 593 0 l 593 390 q 411 603 593 603 q 253 535 310 603 q 196 351 196 467 l 196 0 z "},"Ŋ":{"ha":990,"x_min":121,"x_max":868,"o":"m 685 -307 q 576 -292 626 -307 l 594 -203 q 675 -217 646 -217 q 774 -96 774 -217 l 774 -6 l 221 829 l 221 0 l 121 0 l 121 994 l 222 994 l 769 167 l 769 994 l 868 994 l 868 -101 q 820 -252 868 -197 q 685 -307 772 -307 z "},"ŋ":{"ha":781,"x_min":100,"x_max":689,"o":"m 196 0 l 100 0 l 100 672 l 183 672 l 197 556 q 292 655 231 619 q 428 690 354 690 q 689 411 689 690 l 689 -101 q 640 -252 689 -197 q 504 -307 592 -307 q 413 -294 457 -307 l 432 -207 q 497 -217 469 -217 q 593 -96 593 -217 l 593 390 q 411 603 593 603 q 253 535 310 603 q 196 351 196 467 l 196 0 z "},"Ō":{"ha":1068,"x_min":60,"x_max":1007,"o":"m 372 1147 l 372 1224 l 694 1224 l 694 1147 l 372 1147 m 1007 497 q 874 127 1007 271 q 533 -17 742 -17 q 192 127 324 -17 q 60 497 60 271 q 192 868 60 724 q 533 1013 325 1013 q 875 869 743 1013 q 1007 497 1007 725 m 801 195 q 852 253 801 195 q 904 497 904 311 q 801 799 904 683 q 533 915 699 915 q 266 799 368 915 q 164 497 164 683 q 266 195 164 311 q 533 79 368 79 q 801 195 697 79 z "},"ō":{"ha":789,"x_min":53,"x_max":736,"o":"m 233 828 l 233 904 l 556 904 l 556 828 l 233 828 m 53 336 q 149 590 53 490 q 394 690 246 690 q 640 590 543 690 q 736 336 736 490 q 640 83 736 183 q 394 -17 543 -17 q 149 83 246 -17 q 53 336 53 183 m 150 338 q 218 144 150 218 q 394 69 286 69 q 570 144 501 69 q 639 338 639 219 q 570 529 639 454 q 394 604 501 604 q 218 529 286 604 q 150 338 150 454 z "},"Ő":{"ha":1068,"x_min":60,"x_max":1007,"o":"m 603 1235 l 500 1069 l 425 1069 l 508 1235 l 603 1235 m 768 1235 l 644 1069 l 568 1069 l 669 1235 l 768 1235 m 1007 497 q 874 127 1007 271 q 533 -17 742 -17 q 192 127 324 -17 q 60 497 60 271 q 192 868 60 724 q 533 1013 325 1013 q 875 869 743 1013 q 1007 497 1007 725 m 801 195 q 852 253 801 195 q 904 497 904 311 q 801 799 904 683 q 533 915 699 915 q 266 799 368 915 q 164 497 164 683 q 266 195 164 311 q 533 79 368 79 q 801 195 697 79 z "},"ő":{"ha":789,"x_min":53,"x_max":736,"o":"m 464 915 l 361 750 l 286 750 l 371 915 l 464 915 m 629 915 l 507 750 l 429 750 l 531 915 l 629 915 m 53 336 q 149 590 53 490 q 394 690 246 690 q 640 590 543 690 q 736 336 736 490 q 640 83 736 183 q 394 -17 543 -17 q 149 83 246 -17 q 53 336 53 183 m 150 338 q 218 144 150 218 q 394 69 286 69 q 570 144 501 69 q 639 338 639 219 q 570 529 639 454 q 394 604 501 604 q 218 529 286 604 q 150 338 150 454 z "},"Œ":{"ha":1603,"x_min":60,"x_max":1521,"o":"m 60 500 q 195 867 60 722 q 540 1013 331 1013 q 769 957 664 1013 q 926 808 875 901 l 926 994 l 1521 994 l 1521 903 l 1026 903 l 1026 544 l 1474 544 l 1474 454 l 1026 454 l 1026 92 l 1521 92 l 1521 0 l 926 0 l 926 196 q 775 41 879 99 q 543 -17 671 -17 q 196 129 332 -17 q 60 500 60 275 m 164 501 q 272 197 164 315 q 546 79 379 79 q 819 196 713 79 q 926 499 926 313 q 819 801 926 685 q 544 917 713 917 q 271 801 378 917 q 164 501 164 685 z "},"œ":{"ha":1324,"x_min":53,"x_max":1271,"o":"m 53 336 q 149 590 53 490 q 394 690 246 690 q 566 647 490 690 q 686 525 642 603 q 799 647 726 603 q 964 690 871 690 q 1185 602 1101 690 q 1269 371 1269 514 l 1269 324 l 735 324 q 803 133 740 201 q 972 65 865 65 q 1178 201 1142 65 l 1271 201 q 1167 40 1244 96 q 971 -17 1090 -17 q 801 27 875 -17 q 686 149 728 71 q 567 27 643 71 q 394 -17 490 -17 q 149 83 246 -17 q 53 336 53 183 m 1116 549 q 1087 579 1116 549 q 964 608 1058 608 q 810 551 869 608 q 738 393 750 493 l 1174 393 q 1116 549 1174 490 m 150 338 q 218 144 150 218 q 394 69 286 69 q 570 144 501 69 q 639 338 639 219 q 570 529 639 454 q 394 604 501 604 q 218 529 286 604 q 150 338 150 454 z "},"Ŕ":{"ha":889,"x_min":121,"x_max":825,"o":"m 574 1236 l 467 1071 l 389 1071 l 472 1236 l 574 1236 m 221 0 l 121 0 l 121 994 l 492 994 q 728 917 642 994 q 815 707 815 840 q 762 528 815 600 q 613 429 708 456 l 825 0 l 714 0 l 511 413 l 221 413 l 221 0 m 221 904 l 221 503 l 494 503 q 655 556 597 503 q 713 704 713 610 q 653 852 713 800 q 492 904 594 904 l 221 904 z "},"ŕ":{"ha":479,"x_min":100,"x_max":451,"o":"m 399 924 l 293 758 l 214 758 l 299 924 l 399 924 m 451 681 l 451 594 l 399 594 q 251 537 306 594 q 196 383 196 479 l 196 0 l 100 0 l 100 672 l 190 672 l 197 568 q 268 656 217 624 q 389 688 319 688 q 451 681 422 688 z "},"Ŗ":{"ha":889,"x_min":121,"x_max":825,"o":"m 221 0 l 121 0 l 121 994 l 492 994 q 728 917 642 994 q 815 707 815 840 q 762 528 815 600 q 613 429 708 456 l 825 0 l 714 0 l 511 413 l 221 413 l 221 0 m 221 904 l 221 503 l 494 503 q 655 556 597 503 q 713 704 713 610 q 653 852 713 800 q 492 904 594 904 l 221 904 m 533 -137 q 497 -237 533 -200 q 413 -271 461 -274 l 413 -229 q 479 -175 475 -232 q 458 -178 465 -178 q 415 -160 433 -178 q 397 -118 397 -143 q 416 -69 397 -89 q 463 -50 435 -50 q 515 -73 496 -50 q 533 -137 533 -96 z "},"ŗ":{"ha":479,"x_min":78,"x_max":451,"o":"m 451 681 l 451 594 l 399 594 q 251 537 306 594 q 196 383 196 479 l 196 0 l 100 0 l 100 672 l 190 672 l 197 568 q 268 656 217 624 q 389 688 319 688 q 451 681 422 688 m 214 -137 q 178 -237 214 -200 q 93 -271 142 -274 l 93 -229 q 161 -174 154 -232 q 139 -178 150 -178 q 96 -160 114 -178 q 78 -118 78 -143 q 97 -69 78 -89 q 143 -50 115 -50 q 195 -73 176 -50 q 214 -137 214 -96 z "},"Ř":{"ha":889,"x_min":121,"x_max":825,"o":"m 364 1071 l 258 1240 l 344 1240 l 425 1117 l 504 1240 l 590 1240 l 485 1071 l 364 1071 m 221 0 l 121 0 l 121 994 l 492 994 q 728 917 642 994 q 815 707 815 840 q 762 528 815 600 q 613 429 708 456 l 825 0 l 714 0 l 511 413 l 221 413 l 221 0 m 221 904 l 221 503 l 494 503 q 655 556 597 503 q 713 704 713 610 q 653 852 713 800 q 492 904 594 904 l 221 904 z "},"ř":{"ha":479,"x_min":83,"x_max":451,"o":"m 189 758 l 83 926 l 171 926 l 250 804 l 329 926 l 417 926 l 311 758 l 189 758 m 451 681 l 451 594 l 399 594 q 251 537 306 594 q 196 383 196 479 l 196 0 l 100 0 l 100 672 l 190 672 l 197 568 q 268 656 217 624 q 389 688 319 688 q 451 681 422 688 z "},"Ś":{"ha":782,"x_min":49,"x_max":724,"o":"m 538 1235 l 431 1069 l 353 1069 l 436 1235 l 538 1235 m 61 736 q 153 937 61 861 q 394 1013 244 1013 q 613 942 529 1013 q 707 746 696 871 l 606 746 q 542 876 597 831 q 393 922 486 922 q 224 872 288 922 q 161 738 161 822 q 317 568 161 607 l 488 526 q 724 265 724 469 q 631 60 724 136 q 385 -17 539 -17 q 149 54 240 -17 q 49 247 58 125 l 151 247 q 219 122 156 169 q 385 75 283 75 q 559 125 494 75 q 624 260 624 175 q 467 432 624 396 l 299 474 q 61 736 61 531 z "},"ś":{"ha":603,"x_min":43,"x_max":544,"o":"m 447 949 l 342 783 l 263 783 l 346 949 l 447 949 m 43 189 l 135 189 q 176 97 135 131 q 288 63 217 63 q 409 94 365 63 q 453 179 453 125 q 428 247 453 222 q 346 286 404 272 l 231 315 q 57 497 57 358 q 124 638 57 585 q 300 690 190 690 q 471 635 407 690 q 538 488 535 581 l 444 488 q 403 578 442 546 q 297 611 365 611 q 188 582 226 611 q 150 499 150 553 q 260 393 150 419 l 375 364 q 503 299 463 342 q 544 183 544 256 q 474 38 544 93 q 289 -17 404 -17 q 109 39 175 -17 q 43 189 43 94 z "},"Ŝ":{"ha":782,"x_min":49,"x_max":724,"o":"m 308 1069 l 222 1069 l 328 1239 l 449 1239 l 554 1069 l 468 1069 l 389 1193 l 308 1069 m 61 736 q 153 937 61 861 q 394 1013 244 1013 q 613 942 529 1013 q 707 746 696 871 l 606 746 q 542 876 597 831 q 393 922 486 922 q 224 872 288 922 q 161 738 161 822 q 317 568 161 607 l 488 526 q 724 265 724 469 q 631 60 724 136 q 385 -17 539 -17 q 149 54 240 -17 q 49 247 58 125 l 151 247 q 219 122 156 169 q 385 75 283 75 q 559 125 494 75 q 624 260 624 175 q 467 432 624 396 l 299 474 q 61 736 61 531 z "},"ŝ":{"ha":603,"x_min":43,"x_max":544,"o":"m 218 783 l 132 783 l 238 953 l 358 953 l 464 783 l 378 783 l 299 907 l 218 783 m 43 189 l 135 189 q 176 97 135 131 q 288 63 217 63 q 409 94 365 63 q 453 179 453 125 q 428 247 453 222 q 346 286 404 272 l 231 315 q 57 497 57 358 q 124 638 57 585 q 300 690 190 690 q 471 635 407 690 q 538 488 535 581 l 444 488 q 403 578 442 546 q 297 611 365 611 q 188 582 226 611 q 150 499 150 553 q 260 393 150 419 l 375 364 q 503 299 463 342 q 544 183 544 256 q 474 38 544 93 q 289 -17 404 -17 q 109 39 175 -17 q 43 189 43 94 z "},"Ş":{"ha":782,"x_min":49,"x_max":724,"o":"m 308 -233 l 308 -175 q 388 -197 350 -197 q 433 -185 415 -197 q 451 -150 451 -172 q 396 -104 451 -104 q 328 -121 365 -104 l 315 -86 l 349 -15 q 138 65 218 -6 q 49 247 57 135 l 151 247 q 219 122 156 169 q 385 75 283 75 q 559 125 494 75 q 624 260 624 175 q 467 432 624 396 l 299 474 q 61 736 61 531 q 153 937 61 861 q 394 1013 244 1013 q 613 942 529 1013 q 707 746 696 871 l 606 746 q 542 876 597 831 q 393 922 486 922 q 224 872 288 922 q 161 738 161 822 q 317 568 161 607 l 488 526 q 724 265 724 469 q 637 65 724 140 q 403 -17 550 -11 l 382 -62 q 422 -56 406 -56 q 491 -80 464 -56 q 518 -147 518 -104 q 483 -226 518 -199 q 394 -254 447 -254 q 308 -233 340 -254 z "},"ş":{"ha":603,"x_min":43,"x_max":544,"o":"m 43 189 l 135 189 q 176 97 135 131 q 288 63 217 63 q 409 94 365 63 q 453 179 453 125 q 428 247 453 222 q 346 286 404 272 l 231 315 q 57 497 57 358 q 124 638 57 585 q 300 690 190 690 q 471 635 407 690 q 538 488 535 581 l 444 488 q 403 578 442 546 q 297 611 365 611 q 188 582 226 611 q 150 499 150 553 q 260 393 150 419 l 375 364 q 503 299 463 342 q 544 183 544 256 q 480 43 544 97 q 308 -17 415 -11 l 288 -62 q 329 -56 311 -56 q 398 -80 371 -56 q 425 -147 425 -104 q 389 -226 425 -199 q 301 -254 353 -254 q 215 -233 247 -254 l 215 -175 q 293 -197 256 -197 q 340 -185 321 -197 q 358 -150 358 -172 q 303 -104 358 -104 q 235 -121 272 -104 l 221 -86 l 254 -15 q 99 48 156 -7 q 43 189 43 103 z "},"Š":{"ha":782,"x_min":49,"x_max":724,"o":"m 328 1069 l 222 1239 l 308 1239 l 389 1117 l 468 1239 l 554 1239 l 449 1069 l 328 1069 m 61 736 q 153 937 61 861 q 394 1013 244 1013 q 613 942 529 1013 q 707 746 696 871 l 606 746 q 542 876 597 831 q 393 922 486 922 q 224 872 288 922 q 161 738 161 822 q 317 568 161 607 l 488 526 q 724 265 724 469 q 631 60 724 136 q 385 -17 539 -17 q 149 54 240 -17 q 49 247 58 125 l 151 247 q 219 122 156 169 q 385 75 283 75 q 559 125 494 75 q 624 260 624 175 q 467 432 624 396 l 299 474 q 61 736 61 531 z "},"š":{"ha":603,"x_min":43,"x_max":544,"o":"m 238 783 l 132 953 l 218 953 l 299 829 l 378 953 l 464 953 l 358 783 l 238 783 m 43 189 l 135 189 q 176 97 135 131 q 288 63 217 63 q 409 94 365 63 q 453 179 453 125 q 428 247 453 222 q 346 286 404 272 l 231 315 q 57 497 57 358 q 124 638 57 585 q 300 690 190 690 q 471 635 407 690 q 538 488 535 581 l 444 488 q 403 578 442 546 q 297 611 365 611 q 188 582 226 611 q 150 499 150 553 q 260 393 150 419 l 375 364 q 503 299 463 342 q 544 183 544 256 q 474 38 544 93 q 289 -17 404 -17 q 109 39 175 -17 q 43 189 43 94 z "},"Ţ":{"ha":746,"x_min":17,"x_max":729,"o":"m 297 -233 l 297 -175 q 375 -197 339 -197 q 422 -185 404 -197 q 440 -150 440 -172 q 385 -104 440 -104 q 317 -121 354 -104 l 304 -86 l 344 0 l 322 0 l 322 903 l 17 903 l 17 994 l 729 994 l 729 903 l 422 903 l 422 0 l 400 0 l 371 -62 q 411 -56 394 -56 q 480 -80 453 -56 q 507 -147 507 -104 q 472 -226 507 -199 q 383 -254 436 -254 q 297 -233 329 -254 z "},"ţ":{"ha":414,"x_min":25,"x_max":389,"o":"m 254 0 l 233 0 l 204 -62 q 246 -56 228 -56 q 314 -80 286 -56 q 342 -147 342 -104 q 306 -226 342 -199 q 218 -254 269 -254 q 132 -233 164 -254 l 132 -175 q 210 -197 172 -197 q 256 -185 238 -197 q 275 -150 275 -172 q 218 -104 275 -104 q 150 -121 189 -104 l 138 -86 l 178 0 l 160 0 l 160 592 l 25 592 l 25 672 l 160 672 l 160 885 l 254 885 l 254 672 l 389 672 l 389 592 l 254 592 l 254 0 z "},"Ť":{"ha":746,"x_min":17,"x_max":729,"o":"m 311 1069 l 206 1239 l 293 1239 l 372 1117 l 451 1239 l 539 1239 l 433 1069 l 311 1069 m 17 903 l 17 994 l 729 994 l 729 903 l 422 903 l 422 0 l 322 0 l 322 903 l 17 903 z "},"ť":{"ha":414,"x_min":25,"x_max":415,"o":"m 325 781 l 325 997 l 415 997 l 392 781 l 325 781 m 254 0 l 160 0 l 160 592 l 25 592 l 25 672 l 160 672 l 160 885 l 254 885 l 254 672 l 389 672 l 389 592 l 254 592 l 254 0 z "},"Ŧ":{"ha":746,"x_min":17,"x_max":729,"o":"m 168 514 l 168 600 l 322 600 l 322 903 l 17 903 l 17 994 l 729 994 l 729 903 l 422 903 l 422 600 l 578 600 l 578 514 l 422 514 l 422 0 l 322 0 l 322 514 l 168 514 z "},"ŧ":{"ha":414,"x_min":25,"x_max":389,"o":"m 254 0 l 160 0 l 160 338 l 61 338 l 61 414 l 160 414 l 160 592 l 25 592 l 25 672 l 160 672 l 160 885 l 254 885 l 254 672 l 389 672 l 389 592 l 254 592 l 254 414 l 353 414 l 353 338 l 254 338 l 254 0 z "},"Ũ":{"ha":963,"x_min":114,"x_max":849,"o":"m 357 1093 l 289 1093 q 311 1201 283 1161 q 390 1240 339 1240 q 482 1203 431 1240 q 558 1165 533 1165 q 606 1240 606 1165 l 675 1240 q 565 1093 679 1093 q 471 1131 521 1093 q 401 1168 421 1168 q 357 1093 357 1168 m 114 346 l 114 994 l 214 994 l 214 350 q 283 150 214 219 q 483 81 353 81 q 680 151 611 81 q 749 350 749 221 l 749 994 l 849 994 l 849 346 q 751 81 849 178 q 483 -17 653 -17 q 212 80 310 -17 q 114 346 114 176 z "},"ũ":{"ha":768,"x_min":92,"x_max":668,"o":"m 251 774 l 183 774 q 206 881 179 842 q 285 921 233 921 q 376 883 325 921 q 454 846 428 846 q 500 921 500 846 l 569 921 q 460 774 574 774 q 365 811 415 774 q 296 849 315 849 q 251 774 251 849 m 572 672 l 668 672 l 668 0 l 585 0 l 572 114 q 480 19 544 56 q 336 -17 415 -17 q 156 57 219 -17 q 92 256 92 131 l 92 674 l 189 674 l 189 286 q 367 69 189 69 q 518 133 464 69 q 572 315 572 196 l 572 672 z "},"Ū":{"ha":963,"x_min":114,"x_max":849,"o":"m 321 1147 l 321 1224 l 643 1224 l 643 1147 l 321 1147 m 114 346 l 114 994 l 214 994 l 214 350 q 283 150 214 219 q 483 81 353 81 q 680 151 611 81 q 749 350 749 221 l 749 994 l 849 994 l 849 346 q 751 81 849 178 q 483 -17 653 -17 q 212 80 310 -17 q 114 346 114 176 z "},"ū":{"ha":768,"x_min":92,"x_max":668,"o":"m 215 828 l 215 904 l 538 904 l 538 828 l 215 828 m 572 672 l 668 672 l 668 0 l 585 0 l 572 114 q 480 19 544 56 q 336 -17 415 -17 q 156 57 219 -17 q 92 256 92 131 l 92 674 l 189 674 l 189 286 q 367 69 189 69 q 518 133 464 69 q 572 315 572 196 l 572 672 z "},"Ů":{"ha":963,"x_min":114,"x_max":849,"o":"m 482 1065 q 374 1108 417 1065 q 332 1217 332 1151 q 375 1323 332 1281 q 482 1365 418 1365 q 589 1322 546 1365 q 632 1217 632 1279 q 589 1109 632 1153 q 482 1065 546 1065 m 425 1156 q 436 1144 425 1156 q 482 1132 447 1132 q 539 1156 517 1132 q 561 1217 561 1179 q 539 1277 561 1253 q 482 1301 517 1301 q 425 1278 447 1301 q 403 1217 403 1254 q 425 1156 403 1179 m 114 346 l 114 994 l 214 994 l 214 350 q 283 150 214 219 q 483 81 353 81 q 680 151 611 81 q 749 350 749 221 l 749 994 l 849 994 l 849 346 q 751 81 849 178 q 483 -17 653 -17 q 212 80 310 -17 q 114 346 114 176 z "},"ů":{"ha":768,"x_min":92,"x_max":668,"o":"m 376 746 q 269 789 311 746 q 226 897 226 832 q 269 1003 226 961 q 376 1046 313 1046 q 483 1003 440 1046 q 526 897 526 960 q 483 790 526 833 q 376 746 440 746 m 376 813 q 435 836 413 813 q 457 897 457 860 q 434 958 457 933 q 376 982 411 982 q 319 958 342 982 q 297 897 297 935 q 319 836 297 860 q 376 813 342 813 m 572 672 l 668 672 l 668 0 l 585 0 l 572 114 q 480 19 544 56 q 336 -17 415 -17 q 156 57 219 -17 q 92 256 92 131 l 92 674 l 189 674 l 189 286 q 367 69 189 69 q 518 133 464 69 q 572 315 572 196 l 572 672 z "},"Ű":{"ha":963,"x_min":114,"x_max":849,"o":"m 551 1235 l 449 1069 l 374 1069 l 457 1235 l 551 1235 m 717 1235 l 593 1069 l 517 1069 l 618 1235 l 717 1235 m 114 346 l 114 994 l 214 994 l 214 350 q 283 150 214 219 q 483 81 353 81 q 680 151 611 81 q 749 350 749 221 l 749 994 l 849 994 l 849 346 q 751 81 849 178 q 483 -17 653 -17 q 212 80 310 -17 q 114 346 114 176 z "},"ű":{"ha":768,"x_min":92,"x_max":668,"o":"m 446 915 l 343 750 l 268 750 l 353 915 l 446 915 m 611 915 l 489 750 l 411 750 l 513 915 l 611 915 m 572 672 l 668 672 l 668 0 l 585 0 l 572 114 q 480 19 544 56 q 336 -17 415 -17 q 156 57 219 -17 q 92 256 92 131 l 92 674 l 189 674 l 189 286 q 367 69 189 69 q 518 133 464 69 q 572 315 572 196 l 572 672 z "},"Ų":{"ha":963,"x_min":114,"x_max":849,"o":"m 114 346 l 114 994 l 214 994 l 214 350 q 283 150 214 219 q 483 81 353 81 q 680 151 611 81 q 749 350 749 221 l 749 994 l 849 994 l 849 346 q 785 120 849 210 q 606 -1 721 31 q 529 -92 529 -35 q 576 -135 529 -135 q 606 -129 590 -135 l 606 -203 q 556 -211 583 -211 q 482 -184 510 -211 q 454 -115 454 -157 q 513 -15 454 -57 q 483 -17 503 -17 q 212 80 310 -17 q 114 346 114 176 z "},"ų":{"ha":768,"x_min":92,"x_max":668,"o":"m 600 0 l 585 0 l 572 114 q 480 19 544 56 q 336 -17 415 -17 q 156 57 219 -17 q 92 256 92 131 l 92 674 l 189 674 l 189 286 q 367 69 189 69 q 518 133 464 69 q 572 315 572 196 l 572 672 l 668 672 l 668 0 q 589 -92 589 -33 q 636 -135 589 -135 q 665 -129 650 -135 l 665 -203 q 615 -211 642 -211 q 542 -184 569 -211 q 514 -115 514 -157 q 600 0 514 -40 z "},"Ŵ":{"ha":1360,"x_min":21,"x_max":1339,"o":"m 599 1069 l 513 1069 l 618 1239 l 739 1239 l 844 1069 l 758 1069 l 679 1193 l 599 1069 m 317 0 l 21 994 l 125 994 l 326 311 q 365 147 349 232 q 411 311 381 215 l 628 994 l 732 994 l 949 311 q 993 147 972 232 q 1032 310 1013 243 l 1238 994 l 1339 994 l 1040 0 l 946 0 l 679 844 l 413 0 l 317 0 z "},"ŵ":{"ha":1031,"x_min":19,"x_max":1011,"o":"m 435 750 l 349 750 l 454 919 l 575 919 l 681 750 l 594 750 l 515 874 l 435 750 m 242 0 l 19 672 l 118 672 l 250 267 q 292 122 268 214 q 332 267 301 168 l 465 672 l 564 672 l 696 267 q 738 122 715 208 q 778 267 760 213 l 911 672 l 1011 672 l 783 0 l 690 0 l 551 422 q 515 554 528 492 q 476 422 496 482 l 338 0 l 242 0 z "},"Ŷ":{"ha":799,"x_min":14,"x_max":785,"o":"m 321 1069 l 233 1069 l 340 1239 l 461 1239 l 567 1069 l 479 1069 l 400 1193 l 321 1069 m 351 415 l 14 994 l 126 994 l 372 565 q 401 506 389 533 q 432 565 414 531 l 675 994 l 785 994 l 451 415 l 451 0 l 351 0 l 351 415 z "},"ŷ":{"ha":654,"x_min":13,"x_max":642,"o":"m 246 750 l 160 750 l 265 919 l 386 919 l 492 750 l 406 750 l 326 874 l 246 750 m 32 -293 l 32 -214 l 106 -214 q 150 -212 133 -214 q 189 -201 167 -210 q 227 -172 211 -192 q 256 -119 243 -151 l 285 -40 l 13 672 l 114 672 l 331 86 l 543 672 l 642 672 l 333 -154 q 133 -303 279 -303 q 32 -293 75 -303 z "},"Ÿ":{"ha":799,"x_min":14,"x_max":785,"o":"m 300 1097 q 251 1117 271 1097 q 231 1165 231 1138 q 251 1214 231 1193 q 300 1235 272 1235 q 348 1214 328 1235 q 368 1165 368 1193 q 348 1117 368 1138 q 300 1097 328 1097 m 550 1117 q 540 1107 550 1117 q 501 1097 529 1097 q 453 1117 474 1097 q 433 1165 433 1138 q 453 1214 433 1193 q 501 1235 474 1235 q 550 1214 529 1235 q 571 1165 571 1193 q 550 1117 571 1138 m 351 415 l 14 994 l 126 994 l 372 565 q 401 506 389 533 q 432 565 414 531 l 675 994 l 785 994 l 451 415 l 451 0 l 351 0 l 351 415 z "},"Ź":{"ha":806,"x_min":57,"x_max":751,"o":"m 542 1235 l 436 1069 l 357 1069 l 440 1235 l 542 1235 m 749 0 l 57 0 l 57 92 l 629 903 l 61 903 l 61 994 l 751 994 l 751 906 l 176 92 l 749 92 l 749 0 z "},"ź":{"ha":615,"x_min":54,"x_max":561,"o":"m 456 915 l 350 750 l 272 750 l 356 915 l 456 915 m 561 0 l 54 0 l 54 76 l 443 592 l 54 592 l 54 672 l 561 672 l 561 594 l 171 81 l 561 81 l 561 0 z "},"Ż":{"ha":806,"x_min":57,"x_max":751,"o":"m 393 1097 q 344 1118 364 1097 q 324 1167 324 1139 q 344 1217 324 1196 q 393 1238 364 1238 q 442 1216 421 1238 q 463 1167 463 1194 q 442 1118 463 1139 q 393 1097 421 1097 m 749 0 l 57 0 l 57 92 l 629 903 l 61 903 l 61 994 l 751 994 l 751 906 l 176 92 l 749 92 l 749 0 z "},"ż":{"ha":615,"x_min":54,"x_max":561,"o":"m 356 799 q 345 788 356 799 q 307 778 335 778 q 258 799 279 778 q 238 847 238 819 q 258 897 238 875 q 307 918 279 918 q 356 897 335 918 q 378 847 378 875 q 356 799 378 819 m 561 0 l 54 0 l 54 76 l 443 592 l 54 592 l 54 672 l 561 672 l 561 594 l 171 81 l 561 81 l 561 0 z "},"Ž":{"ha":806,"x_min":57,"x_max":751,"o":"m 332 1069 l 226 1239 l 313 1239 l 393 1117 l 472 1239 l 558 1239 l 453 1069 l 332 1069 m 749 0 l 57 0 l 57 92 l 629 903 l 61 903 l 61 994 l 751 994 l 751 906 l 176 92 l 749 92 l 749 0 z "},"ž":{"ha":615,"x_min":54,"x_max":561,"o":"m 247 750 l 140 919 l 228 919 l 308 797 l 388 919 l 474 919 l 368 750 l 247 750 m 561 0 l 54 0 l 54 76 l 443 592 l 54 592 l 54 672 l 561 672 l 561 594 l 171 81 l 561 81 l 561 0 z "},"ƒ":{"ha":774,"x_min":58,"x_max":692,"o":"m 101 558 l 350 558 l 390 838 q 575 999 413 999 l 692 999 l 692 907 l 565 907 q 489 835 499 907 l 450 558 l 690 558 l 690 468 l 436 468 l 367 -21 q 311 -135 357 -96 q 192 -175 265 -175 l 58 -175 l 58 -83 l 193 -83 q 243 -65 222 -83 q 269 -14 264 -46 l 338 468 l 101 468 l 101 558 z "},"Ǻ":{"ha":896,"x_min":19,"x_max":878,"o":"m 594 1425 l 489 1260 l 410 1260 l 494 1425 l 594 1425 m 121 0 l 19 0 l 369 954 q 296 1085 296 994 q 339 1192 296 1149 q 446 1235 382 1235 q 553 1192 510 1235 q 596 1085 596 1149 q 522 956 596 999 l 878 0 l 774 0 l 676 264 l 218 264 l 121 0 m 388 1024 q 399 1012 388 1024 q 446 1000 410 1000 q 503 1024 482 1000 q 525 1086 525 1047 q 503 1147 525 1122 q 446 1171 481 1171 q 388 1147 410 1171 q 365 1086 365 1124 q 388 1024 365 1047 m 433 854 l 249 351 l 644 351 l 458 854 q 453 868 457 860 q 448 883 450 876 q 446 894 446 890 q 433 854 443 879 z "},"ǻ":{"ha":725,"x_min":65,"x_max":633,"o":"m 504 1106 l 401 947 l 325 947 l 407 1106 l 504 1106 m 293 -17 q 126 38 188 -17 q 65 182 65 92 q 132 330 65 274 q 317 396 199 386 l 539 414 l 539 436 q 361 610 539 610 q 224 572 274 610 q 175 467 175 535 l 88 467 q 131 597 88 542 q 251 675 175 651 q 215 775 215 714 q 258 882 215 839 q 365 925 301 925 q 472 882 429 925 q 515 775 515 839 q 478 674 515 715 q 633 435 633 621 l 633 0 l 553 0 l 540 118 q 443 19 508 54 q 293 -17 378 -17 m 365 690 q 422 714 400 690 q 444 775 444 738 q 422 835 444 811 q 365 860 400 860 q 307 836 329 860 q 285 775 285 813 q 307 714 285 738 q 365 690 329 690 m 315 61 q 479 128 419 61 q 539 306 539 194 l 539 342 l 340 326 q 163 185 163 311 q 203 93 163 125 q 315 61 244 61 z "},"Ǽ":{"ha":1246,"x_min":13,"x_max":1164,"o":"m 925 1235 l 818 1069 l 740 1069 l 824 1235 l 925 1235 m 13 0 l 410 994 l 1164 994 l 1164 903 l 671 903 l 671 544 l 1117 544 l 1117 454 l 671 454 l 671 92 l 1164 92 l 1164 0 l 571 0 l 571 288 l 233 288 l 119 0 l 13 0 m 267 375 l 571 375 l 571 903 l 475 903 l 267 375 z "},"ǽ":{"ha":1217,"x_min":65,"x_max":1164,"o":"m 744 915 l 638 750 l 560 750 l 643 915 l 744 915 m 65 186 q 131 332 65 282 q 311 385 197 382 l 539 390 l 539 436 q 491 565 539 519 q 360 610 443 610 q 224 572 272 610 q 175 467 175 533 l 88 467 q 163 629 88 568 q 361 690 238 690 q 508 653 446 690 q 597 551 571 615 q 857 690 683 690 q 1078 602 994 690 q 1163 371 1163 514 l 1163 324 l 626 324 q 695 134 633 203 q 865 65 757 65 q 1071 201 1035 65 l 1164 201 q 1060 39 1136 94 q 864 -17 983 -17 q 692 28 765 -17 q 579 156 618 74 q 474 31 549 78 q 299 -17 399 -17 q 127 38 189 -17 q 65 186 65 93 m 857 608 q 701 549 763 608 q 629 392 640 490 l 1067 392 q 1010 549 1067 489 q 857 608 953 608 m 163 190 q 205 94 163 126 q 322 61 247 61 q 480 120 421 61 q 539 275 539 179 l 539 321 l 326 315 q 163 190 163 311 z "},"Ǿ":{"ha":1068,"x_min":60,"x_max":1007,"o":"m 679 1231 l 574 1065 l 494 1065 l 579 1231 l 679 1231 m 1007 497 q 874 127 1007 271 q 533 -17 742 -17 q 257 69 375 -17 l 204 0 l 104 0 l 197 122 q 60 497 60 264 q 192 868 60 724 q 533 1013 325 1013 q 811 925 690 1013 l 865 996 l 964 996 l 871 874 q 1007 497 1007 729 m 164 497 q 260 203 164 318 l 750 846 q 533 915 658 915 q 266 799 368 915 q 164 497 164 683 m 904 497 q 808 792 904 676 l 317 149 q 533 79 410 79 q 801 195 697 79 q 904 497 904 311 z "},"ǿ":{"ha":789,"x_min":53,"x_max":736,"o":"m 543 915 l 438 750 l 358 750 l 442 915 l 543 915 m 53 336 q 149 590 53 490 q 394 690 246 690 q 551 656 478 690 l 596 728 l 683 728 l 614 614 q 736 336 736 513 q 640 83 736 183 q 394 -17 543 -17 q 244 15 313 -17 l 190 -71 l 101 -71 l 179 56 q 53 336 53 157 m 150 338 q 228 133 150 211 l 504 579 q 394 604 456 604 q 218 529 286 604 q 150 338 150 454 m 639 338 q 564 535 639 460 l 290 92 q 394 69 339 69 q 570 144 501 69 q 639 338 639 219 z "},"Ș":{"ha":782,"x_min":49,"x_max":724,"o":"m 61 736 q 153 937 61 861 q 394 1013 244 1013 q 613 942 529 1013 q 707 746 696 871 l 606 746 q 542 876 597 831 q 393 922 486 922 q 224 872 288 922 q 161 738 161 822 q 317 568 161 607 l 488 526 q 724 265 724 469 q 631 60 724 136 q 385 -17 539 -17 q 149 54 240 -17 q 49 247 58 125 l 151 247 q 219 122 156 169 q 385 75 283 75 q 559 125 494 75 q 624 260 624 175 q 467 432 624 396 l 299 474 q 61 736 61 531 m 450 -137 q 414 -237 450 -200 q 329 -271 378 -274 l 329 -229 q 396 -175 392 -232 q 375 -178 382 -178 q 332 -160 350 -178 q 314 -118 314 -143 q 333 -69 314 -89 q 379 -50 351 -50 q 431 -73 413 -50 q 450 -137 450 -96 z "},"ș":{"ha":603,"x_min":43,"x_max":544,"o":"m 43 189 l 135 189 q 176 97 135 131 q 288 63 217 63 q 409 94 365 63 q 453 179 453 125 q 428 247 453 222 q 346 286 404 272 l 231 315 q 57 497 57 358 q 124 638 57 585 q 300 690 190 690 q 471 635 407 690 q 538 488 535 581 l 444 488 q 403 578 442 546 q 297 611 365 611 q 188 582 226 611 q 150 499 150 553 q 260 393 150 419 l 375 364 q 503 299 463 342 q 544 183 544 256 q 474 38 544 93 q 289 -17 404 -17 q 109 39 175 -17 q 43 189 43 94 m 357 -137 q 320 -237 357 -200 q 235 -271 283 -274 l 235 -229 q 303 -174 296 -232 q 282 -178 292 -178 q 238 -161 256 -178 q 219 -118 219 -144 q 238 -69 219 -89 q 285 -50 257 -50 q 338 -73 318 -50 q 357 -137 357 -96 z "},"Ț":{"ha":746,"x_min":17,"x_max":729,"o":"m 17 903 l 17 994 l 729 994 l 729 903 l 422 903 l 422 0 l 322 0 l 322 903 l 17 903 m 439 -137 q 402 -236 439 -199 q 318 -271 365 -274 l 318 -229 q 385 -175 381 -232 q 364 -178 371 -178 q 321 -160 339 -178 q 303 -118 303 -143 q 322 -69 303 -89 q 368 -50 340 -50 q 420 -73 401 -50 q 439 -137 439 -96 z "},"ț":{"ha":414,"x_min":25,"x_max":389,"o":"m 254 0 l 160 0 l 160 592 l 25 592 l 25 672 l 160 672 l 160 885 l 254 885 l 254 672 l 389 672 l 389 592 l 254 592 l 254 0 m 274 -137 q 237 -237 274 -200 q 151 -271 200 -274 l 151 -229 q 219 -174 213 -232 q 199 -178 208 -178 q 154 -161 172 -178 q 136 -118 136 -144 q 155 -69 136 -89 q 201 -50 174 -50 q 254 -73 235 -50 q 274 -137 274 -96 z "},"ȷ":{"ha":296,"x_min":-79,"x_max":196,"o":"m -79 -294 l -61 -207 q 4 -217 -22 -217 q 100 -96 100 -217 l 100 672 l 196 672 l 196 -101 q 147 -252 196 -197 q 11 -307 99 -307 q -79 -294 -35 -307 z "},"ˆ":{"ha":443,"x_min":56,"x_max":388,"o":"m 142 1064 l 56 1064 l 161 1233 l 282 1233 l 388 1064 l 301 1064 l 222 1188 l 142 1064 z "},"ˇ":{"ha":443,"x_min":56,"x_max":388,"o":"m 161 1064 l 56 1233 l 142 1233 l 222 1110 l 301 1233 l 388 1233 l 282 1064 l 161 1064 z "},"˘":{"ha":476,"x_min":68,"x_max":408,"o":"m 331 1231 l 408 1231 q 363 1105 408 1151 q 239 1058 317 1058 q 115 1104 161 1058 q 68 1231 68 1150 l 146 1231 q 239 1133 146 1133 q 331 1231 331 1133 z "},"˙":{"ha":275,"x_min":68,"x_max":207,"o":"m 138 1092 q 88 1112 108 1092 q 68 1161 68 1132 q 88 1211 68 1190 q 138 1232 108 1232 q 186 1210 165 1232 q 207 1161 207 1189 q 186 1113 207 1133 q 138 1092 165 1092 z "},"˚":{"ha":408,"x_min":54,"x_max":354,"o":"m 204 1060 q 97 1102 139 1060 q 54 1210 54 1144 q 97 1317 54 1274 q 204 1360 140 1360 q 311 1317 268 1360 q 354 1210 354 1274 q 311 1103 354 1147 q 204 1060 268 1060 m 147 1149 q 157 1137 147 1149 q 204 1125 168 1125 q 263 1149 240 1125 q 285 1211 285 1172 q 262 1272 285 1247 q 204 1296 239 1296 q 147 1272 169 1296 q 125 1211 125 1249 q 147 1149 125 1172 z "},"˛":{"ha":265,"x_min":57,"x_max":211,"o":"m 143 0 l 211 0 q 132 -92 132 -33 q 181 -135 132 -135 q 208 -129 193 -135 l 208 -203 q 158 -211 186 -211 q 85 -184 113 -211 q 57 -115 57 -157 q 143 0 57 -40 z "},"˜":{"ha":515,"x_min":64,"x_max":450,"o":"m 133 1088 l 64 1086 q 88 1195 60 1156 q 167 1235 115 1235 q 258 1197 207 1235 q 335 1160 310 1160 q 382 1235 382 1160 l 450 1235 q 424 1125 453 1164 q 342 1086 396 1086 q 247 1124 297 1086 q 178 1163 197 1163 q 133 1088 133 1163 z "},"˝":{"ha":467,"x_min":58,"x_max":400,"o":"m 236 1229 l 132 1064 l 58 1064 l 142 1229 l 236 1229 m 400 1229 l 278 1064 l 201 1064 l 303 1229 l 400 1229 z "},"̀":{"ha":303,"x_min":58,"x_max":240,"o":"m 240 1064 l 163 1064 l 58 1231 l 160 1231 l 240 1064 z "},"́":{"ha":306,"x_min":63,"x_max":246,"o":"m 246 1229 l 140 1064 l 63 1064 l 146 1229 l 246 1229 z "},"̂":{"ha":443,"x_min":56,"x_max":388,"o":"m 142 1064 l 56 1064 l 161 1233 l 282 1233 l 388 1064 l 301 1064 l 222 1188 l 142 1064 z "},"̃":{"ha":515,"x_min":64,"x_max":450,"o":"m 133 1088 l 64 1086 q 88 1195 60 1156 q 167 1235 115 1235 q 258 1197 207 1235 q 335 1160 310 1160 q 382 1235 382 1160 l 450 1235 q 424 1125 453 1164 q 342 1086 396 1086 q 247 1124 297 1086 q 178 1163 197 1163 q 133 1088 133 1163 z "},"̄":{"ha":489,"x_min":83,"x_max":406,"o":"m 83 1140 l 83 1217 l 406 1217 l 406 1140 l 83 1140 z "},"̆":{"ha":476,"x_min":68,"x_max":408,"o":"m 331 1231 l 408 1231 q 363 1105 408 1151 q 239 1058 317 1058 q 115 1104 161 1058 q 68 1231 68 1150 l 146 1231 q 239 1133 146 1133 q 331 1231 331 1133 z "},"̇":{"ha":275,"x_min":68,"x_max":207,"o":"m 138 1092 q 88 1112 108 1092 q 68 1161 68 1132 q 88 1211 68 1190 q 138 1232 108 1232 q 186 1210 165 1232 q 207 1161 207 1189 q 186 1113 207 1133 q 138 1092 165 1092 z "},"̈":{"ha":511,"x_min":85,"x_max":425,"o":"m 202 1112 q 192 1102 202 1112 q 154 1092 182 1092 q 106 1112 126 1092 q 85 1160 85 1132 q 106 1208 85 1188 q 154 1229 126 1229 q 201 1208 181 1229 q 222 1160 222 1188 q 202 1112 222 1132 m 357 1092 q 308 1112 328 1092 q 288 1160 288 1132 q 308 1208 288 1188 q 357 1229 329 1229 q 404 1208 383 1229 q 425 1160 425 1188 q 405 1112 425 1132 q 357 1092 385 1092 z "},"̊":{"ha":408,"x_min":54,"x_max":354,"o":"m 204 1060 q 97 1102 139 1060 q 54 1210 54 1144 q 97 1317 54 1274 q 204 1360 140 1360 q 311 1317 268 1360 q 354 1210 354 1274 q 311 1103 354 1147 q 204 1060 268 1060 m 147 1149 q 157 1137 147 1149 q 204 1125 168 1125 q 263 1149 240 1125 q 285 1211 285 1172 q 262 1272 285 1247 q 204 1296 239 1296 q 147 1272 169 1296 q 125 1211 125 1249 q 147 1149 125 1172 z "},"̋":{"ha":467,"x_min":58,"x_max":400,"o":"m 236 1229 l 132 1064 l 58 1064 l 142 1229 l 236 1229 m 400 1229 l 278 1064 l 201 1064 l 303 1229 l 400 1229 z "},"̌":{"ha":443,"x_min":56,"x_max":388,"o":"m 161 1064 l 56 1233 l 142 1233 l 222 1110 l 301 1233 l 388 1233 l 282 1064 l 161 1064 z "},"̒":{"ha":256,"x_min":60,"x_max":197,"o":"m 197 1122 q 178 1074 197 1093 q 132 1054 160 1054 q 79 1077 99 1054 q 60 1142 60 1100 q 97 1240 60 1203 q 181 1275 133 1278 l 181 1233 q 114 1179 118 1236 q 135 1182 128 1182 q 179 1165 161 1182 q 197 1122 197 1149 z "},"̦":{"ha":256,"x_min":56,"x_max":192,"o":"m 192 -114 q 156 -213 192 -176 q 71 -247 119 -250 l 71 -207 q 139 -151 132 -207 q 117 -154 132 -154 q 74 -137 92 -154 q 56 -94 56 -119 q 74 -47 56 -65 q 121 -28 93 -28 q 173 -50 154 -28 q 192 -114 192 -72 z "},"̧":{"ha":318,"x_min":53,"x_max":263,"o":"m 53 -233 l 53 -175 q 131 -197 94 -197 q 178 -185 160 -197 q 196 -150 196 -172 q 140 -104 196 -104 q 72 -121 110 -104 l 60 -86 l 118 42 l 157 40 l 157 3 l 126 -62 q 167 -56 150 -56 q 235 -80 208 -56 q 263 -147 263 -104 q 226 -226 263 -199 q 139 -254 190 -254 q 53 -233 85 -254 z "},"̵":{"ha":678,"x_min":100,"x_max":501,"o":"m 100 844 l 501 844 l 501 776 l 100 776 l 100 844 z "},"̷":{"ha":322,"x_min":28,"x_max":296,"o":"m 28 440 l 28 517 l 296 646 l 296 568 l 28 440 z "},"̸":{"ha":693,"x_min":56,"x_max":638,"o":"m 638 742 l 144 -57 l 56 -57 l 550 742 l 638 742 z "},"Ω":{"ha":889,"x_min":103,"x_max":786,"o":"m 386 0 l 104 0 l 104 81 l 247 81 q 140 208 178 133 q 103 367 103 283 q 201 599 103 507 q 446 690 299 690 q 690 599 593 690 q 786 368 786 507 q 642 81 786 189 l 785 81 l 785 0 l 503 0 l 503 81 q 648 196 597 118 q 699 361 699 274 q 626 537 699 469 q 446 604 553 604 q 265 537 338 604 q 192 361 192 469 q 244 193 192 271 q 386 81 296 115 l 386 0 z "},"π":{"ha":836,"x_min":26,"x_max":779,"o":"m 161 0 l 161 588 l 26 588 l 26 672 l 779 672 l 779 588 l 633 588 l 633 164 q 703 85 633 88 l 779 83 l 779 6 q 678 -1 736 -1 q 572 35 606 -1 q 538 154 538 71 l 538 588 l 256 588 l 256 0 l 161 0 z "},"Ẁ":{"ha":1360,"x_min":21,"x_max":1339,"o":"m 715 1069 l 636 1069 l 533 1236 l 633 1236 l 715 1069 m 317 0 l 21 994 l 125 994 l 326 311 q 365 147 349 232 q 411 311 381 215 l 628 994 l 732 994 l 949 311 q 993 147 972 232 q 1032 310 1013 243 l 1238 994 l 1339 994 l 1040 0 l 946 0 l 679 844 l 413 0 l 317 0 z "},"ẁ":{"ha":1031,"x_min":19,"x_max":1011,"o":"m 551 750 l 472 750 l 369 917 l 469 917 l 551 750 m 242 0 l 19 672 l 118 672 l 250 267 q 292 122 268 214 q 332 267 301 168 l 465 672 l 564 672 l 696 267 q 738 122 715 208 q 778 267 760 213 l 911 672 l 1011 672 l 783 0 l 690 0 l 551 422 q 515 554 528 492 q 476 422 496 482 l 338 0 l 242 0 z "},"Ẃ":{"ha":1360,"x_min":21,"x_max":1339,"o":"m 828 1235 l 722 1069 l 643 1069 l 728 1235 l 828 1235 m 317 0 l 21 994 l 125 994 l 326 311 q 365 147 349 232 q 411 311 381 215 l 628 994 l 732 994 l 949 311 q 993 147 972 232 q 1032 310 1013 243 l 1238 994 l 1339 994 l 1040 0 l 946 0 l 679 844 l 413 0 l 317 0 z "},"ẃ":{"ha":1031,"x_min":19,"x_max":1011,"o":"m 664 915 l 558 750 l 479 750 l 564 915 l 664 915 m 242 0 l 19 672 l 118 672 l 250 267 q 292 122 268 214 q 332 267 301 168 l 465 672 l 564 672 l 696 267 q 738 122 715 208 q 778 267 760 213 l 911 672 l 1011 672 l 783 0 l 690 0 l 551 422 q 515 554 528 492 q 476 422 496 482 l 338 0 l 242 0 z "},"Ẅ":{"ha":1360,"x_min":21,"x_max":1339,"o":"m 626 1117 q 616 1107 626 1117 q 578 1097 606 1097 q 530 1117 550 1097 q 510 1165 510 1138 q 530 1214 510 1193 q 578 1235 550 1235 q 626 1214 606 1235 q 647 1165 647 1193 q 626 1117 647 1138 m 828 1117 q 818 1107 828 1117 q 781 1097 808 1097 q 733 1117 753 1097 q 713 1165 713 1138 q 733 1214 713 1193 q 781 1235 753 1235 q 828 1214 808 1235 q 849 1165 849 1193 q 828 1117 849 1138 m 317 0 l 21 994 l 125 994 l 326 311 q 365 147 349 232 q 411 311 381 215 l 628 994 l 732 994 l 949 311 q 993 147 972 232 q 1032 310 1013 243 l 1238 994 l 1339 994 l 1040 0 l 946 0 l 679 844 l 413 0 l 317 0 z "},"ẅ":{"ha":1031,"x_min":19,"x_max":1011,"o":"m 463 798 q 452 788 463 798 q 414 778 442 778 q 366 798 386 778 q 346 846 346 818 q 366 894 346 874 q 414 915 386 915 q 463 894 442 915 q 483 846 483 874 q 463 798 483 818 m 665 798 q 655 788 665 798 q 617 778 644 778 q 569 798 589 778 q 549 846 549 818 q 569 894 549 874 q 617 915 589 915 q 665 894 644 915 q 685 846 685 874 q 665 798 685 818 m 242 0 l 19 672 l 118 672 l 250 267 q 292 122 268 214 q 332 267 301 168 l 465 672 l 564 672 l 696 267 q 738 122 715 208 q 778 267 760 213 l 911 672 l 1011 672 l 783 0 l 690 0 l 551 422 q 515 554 528 492 q 476 422 496 482 l 338 0 l 242 0 z "},"Ỳ":{"ha":799,"x_min":14,"x_max":785,"o":"m 436 1069 l 358 1069 l 254 1236 l 356 1236 l 436 1069 m 351 415 l 14 994 l 126 994 l 372 565 q 401 506 389 533 q 432 565 414 531 l 675 994 l 785 994 l 451 415 l 451 0 l 351 0 l 351 415 z "},"ỳ":{"ha":654,"x_min":13,"x_max":642,"o":"m 363 750 l 283 750 l 181 917 l 281 917 l 363 750 m 32 -293 l 32 -214 l 106 -214 q 150 -212 133 -214 q 189 -201 167 -210 q 227 -172 211 -192 q 256 -119 243 -151 l 285 -40 l 13 672 l 114 672 l 331 86 l 543 672 l 642 672 l 333 -154 q 133 -303 279 -303 q 32 -293 75 -303 z "},"–":{"ha":1288,"x_min":92,"x_max":1196,"o":"m 92 322 l 92 407 l 1196 407 l 1196 322 l 92 322 z "},"—":{"ha":1581,"x_min":92,"x_max":1489,"o":"m 92 322 l 92 407 l 1489 407 l 1489 322 l 92 322 z "},"‘":{"ha":340,"x_min":85,"x_max":256,"o":"m 236 867 q 246 857 236 867 q 256 813 256 847 q 233 755 256 778 q 175 732 211 732 q 111 761 138 732 q 85 840 85 790 q 128 953 85 904 q 235 1014 171 1003 l 235 963 q 174 932 199 956 q 150 878 150 908 q 188 888 164 888 q 236 867 217 888 z "},"’":{"ha":340,"x_min":85,"x_max":256,"o":"m 256 906 q 213 791 256 840 q 106 732 171 742 l 106 783 q 166 814 142 790 q 190 867 190 838 q 153 858 178 858 q 105 878 125 858 q 85 932 85 897 q 108 991 85 968 q 167 1014 131 1014 q 230 984 204 1014 q 256 906 256 954 z "},"‚":{"ha":340,"x_min":85,"x_max":256,"o":"m 256 44 q 213 -70 256 -21 q 106 -129 171 -119 l 106 -78 q 166 -48 142 -72 q 190 6 190 -24 q 153 -4 179 -4 q 104 16 124 -4 q 85 71 85 36 q 108 128 85 106 q 167 151 131 151 q 230 122 204 151 q 256 44 256 93 z "},"“":{"ha":565,"x_min":85,"x_max":481,"o":"m 236 867 q 246 857 236 867 q 256 813 256 847 q 233 755 256 778 q 175 732 211 732 q 111 761 138 732 q 85 840 85 790 q 128 953 85 904 q 235 1014 171 1003 l 235 963 q 174 932 199 956 q 150 878 150 908 q 188 888 164 888 q 236 867 217 888 m 461 867 q 471 857 461 867 q 481 813 481 847 q 458 755 481 778 q 399 732 435 732 q 335 761 361 732 q 308 840 308 790 q 351 953 308 904 q 460 1014 394 1003 l 460 963 q 399 932 424 956 q 375 879 375 908 q 413 888 388 888 q 461 867 442 888 z "},"”":{"ha":565,"x_min":85,"x_max":481,"o":"m 256 906 q 213 791 256 840 q 106 732 171 742 l 106 783 q 166 814 142 790 q 190 867 190 838 q 153 858 178 858 q 105 878 125 858 q 85 932 85 897 q 108 991 85 968 q 167 1014 131 1014 q 230 984 204 1014 q 256 906 256 954 m 481 906 q 438 791 481 840 q 331 732 394 742 l 331 783 q 391 814 367 790 q 415 868 415 838 q 378 858 400 858 q 328 878 349 858 q 308 932 308 899 q 331 991 308 968 q 390 1014 354 1014 q 454 985 428 1014 q 481 906 481 956 z "},"„":{"ha":565,"x_min":85,"x_max":481,"o":"m 256 44 q 213 -70 256 -21 q 106 -129 171 -119 l 106 -78 q 166 -48 142 -72 q 190 6 190 -24 q 153 -4 179 -4 q 104 16 124 -4 q 85 71 85 36 q 108 128 85 106 q 167 151 131 151 q 230 122 204 151 q 256 44 256 93 m 481 44 q 438 -70 481 -21 q 331 -129 394 -119 l 331 -78 q 391 -48 367 -72 q 415 6 415 -24 q 378 -4 400 -4 q 328 16 349 -4 q 308 71 308 36 q 331 128 308 106 q 390 151 354 151 q 454 122 428 151 q 481 44 481 93 z "},"†":{"ha":414,"x_min":35,"x_max":379,"o":"m 172 375 l 172 789 l 35 789 l 35 856 l 172 856 l 172 994 l 242 994 l 242 856 l 379 856 l 379 789 l 242 789 l 242 375 l 172 375 z "},"‡":{"ha":415,"x_min":35,"x_max":381,"o":"m 172 375 l 172 547 l 36 547 l 36 614 l 172 614 l 172 757 l 35 757 l 35 824 l 172 824 l 172 994 l 242 994 l 242 824 l 379 824 l 379 757 l 242 757 l 242 614 l 381 614 l 381 547 l 242 547 l 242 375 l 172 375 z "},"•":{"ha":522,"x_min":71,"x_max":451,"o":"m 263 176 q 128 233 185 176 q 71 365 71 289 q 127 499 71 443 q 263 556 183 556 q 395 499 339 556 q 451 365 451 443 q 395 233 451 289 q 263 176 339 176 z "},"…":{"ha":961,"x_min":94,"x_max":865,"o":"m 244 10 q 231 -3 244 10 q 182 -15 218 -15 q 120 10 146 -15 q 94 69 94 35 q 121 131 94 106 q 182 157 147 157 q 243 131 217 157 q 269 69 269 106 q 244 10 269 35 m 542 10 q 530 -3 542 10 q 481 -15 517 -15 q 419 10 444 -15 q 393 69 393 35 q 419 131 393 106 q 481 157 444 157 q 542 131 517 157 q 568 69 568 106 q 542 10 568 35 m 778 -15 q 717 10 743 -15 q 692 69 692 35 q 717 131 692 106 q 778 157 743 157 q 840 131 814 157 q 865 69 865 106 q 840 10 865 35 q 778 -15 814 -15 z "},"‰":{"ha":1797,"x_min":67,"x_max":1731,"o":"m 485 944 q 520 909 485 944 q 554 767 554 874 q 485 590 554 660 q 311 521 417 521 q 135 590 204 521 q 67 767 67 660 q 136 944 67 874 q 311 1014 206 1014 q 485 944 417 1014 m 1058 994 l 303 0 l 203 0 l 957 994 l 1058 994 m 471 767 q 426 887 471 840 q 311 933 382 933 q 194 887 239 933 q 150 767 150 840 q 195 647 150 693 q 311 600 240 600 q 426 647 381 600 q 471 767 471 694 m 1127 405 q 1161 370 1127 405 q 1196 228 1196 335 q 1127 51 1196 121 q 953 -18 1058 -18 q 777 51 846 -18 q 708 228 708 121 q 778 405 708 335 q 953 475 847 475 q 1127 405 1058 475 m 1661 405 q 1696 370 1661 405 q 1731 228 1731 335 q 1662 51 1731 121 q 1486 -18 1593 -18 q 1312 51 1381 -18 q 1243 228 1243 121 q 1312 405 1243 335 q 1486 475 1381 475 q 1661 405 1592 475 m 1113 228 q 1068 348 1113 301 q 953 394 1024 394 q 836 348 881 394 q 792 228 792 301 q 837 109 792 156 q 953 63 882 63 q 1067 109 1022 63 q 1113 228 1113 156 m 1647 228 q 1603 348 1647 301 q 1486 394 1558 394 q 1371 348 1415 394 q 1326 228 1326 301 q 1372 109 1326 156 q 1486 63 1417 63 q 1602 109 1557 63 q 1647 228 1647 156 z "},"′":{"ha":242,"x_min":67,"x_max":174,"o":"m 174 949 l 150 697 l 92 697 l 67 949 q 81 997 64 979 q 121 1014 97 1014 q 160 997 144 1014 q 174 949 176 979 z "},"‹":{"ha":518,"x_min":56,"x_max":463,"o":"m 350 0 l 56 336 l 350 672 l 463 672 l 168 336 l 463 0 l 350 0 z "},"›":{"ha":518,"x_min":56,"x_max":463,"o":"m 168 0 l 56 0 l 350 336 l 56 672 l 168 672 l 463 336 l 168 0 z "},"⁂":{"ha":1219,"x_min":40,"x_max":1178,"o":"m 457 796 l 371 828 l 396 888 l 479 860 q 588 807 539 839 q 575 928 575 872 l 575 1019 l 640 1019 l 640 928 q 629 807 640 853 q 739 860 681 839 l 824 889 l 847 828 l 760 796 q 643 768 701 775 q 721 676 678 736 l 772 601 l 718 563 l 667 638 q 608 743 628 692 q 551 638 592 693 l 499 563 l 443 601 l 496 676 q 575 768 536 732 q 457 796 515 776 m 129 268 l 40 300 l 65 363 l 150 333 q 260 281 219 308 q 247 401 247 343 l 247 493 l 313 493 l 313 401 q 301 281 313 333 q 410 333 344 308 l 494 363 l 519 300 l 432 269 q 314 242 375 249 q 393 149 360 194 l 443 74 l 389 38 l 338 110 q 278 217 300 163 q 224 110 263 167 l 168 36 l 115 74 l 167 149 q 246 242 206 200 q 129 268 176 251 m 788 268 l 699 300 l 724 361 l 807 333 q 917 281 876 308 q 904 401 904 343 l 904 493 l 971 493 l 971 401 q 960 281 971 333 q 1067 333 1008 313 l 1153 363 l 1178 300 l 1089 269 q 972 242 1031 249 q 1050 149 1018 193 l 1101 74 l 1047 38 l 996 110 q 936 217 958 163 q 881 110 918 164 l 826 36 l 772 74 l 825 149 q 904 242 863 203 q 788 268 835 251 z "},"⁄":{"ha":163,"x_min":-282,"x_max":444,"o":"m 444 986 l -194 0 l -282 0 l 356 986 l 444 986 z "},"⁰":{"ha":576,"x_min":43,"x_max":535,"o":"m 43 747 q 110 974 43 888 q 289 1060 176 1060 q 469 974 403 1060 q 535 747 535 889 q 468 522 535 607 q 289 436 401 436 q 109 521 175 436 q 43 747 43 606 m 164 925 q 142 893 164 925 q 119 747 119 861 q 164 569 119 633 q 289 506 208 506 q 413 569 368 506 q 457 747 457 633 q 413 925 457 861 q 289 989 368 989 q 164 925 208 989 z "},"⁴":{"ha":517,"x_min":29,"x_max":496,"o":"m 496 579 l 424 579 l 424 458 l 350 458 l 350 579 l 29 579 l 29 650 l 325 1060 l 424 1060 l 424 649 l 496 649 l 496 579 m 117 649 l 350 649 l 350 975 l 117 649 z "},"⁵":{"ha":490,"x_min":31,"x_max":460,"o":"m 31 653 l 106 653 q 144 556 106 593 q 244 518 183 518 q 344 557 306 518 q 382 658 382 596 q 344 758 382 719 q 244 796 306 796 q 122 740 169 796 l 50 753 l 125 1060 l 425 1060 l 425 989 l 182 989 l 142 826 q 256 863 189 863 q 402 804 344 863 q 460 657 460 746 q 399 508 460 567 q 244 449 338 449 q 92 506 153 449 q 31 653 31 564 z "},"⁶":{"ha":518,"x_min":39,"x_max":479,"o":"m 119 867 l 263 1063 l 350 1063 l 200 864 q 267 878 232 878 q 420 818 361 878 q 479 668 479 758 q 417 511 479 574 q 261 449 354 449 q 103 512 167 449 q 39 668 39 575 q 57 764 39 721 q 119 867 75 807 m 158 770 q 138 750 158 770 q 118 665 118 729 q 158 560 118 601 q 261 518 197 518 q 362 560 322 518 q 401 665 401 601 q 362 769 401 728 q 261 811 322 811 q 158 770 197 811 z "},"⁷":{"ha":447,"x_min":22,"x_max":426,"o":"m 426 989 l 208 458 l 131 458 l 350 989 l 22 989 l 22 1060 l 426 1060 l 426 989 z "},"⁸":{"ha":511,"x_min":39,"x_max":472,"o":"m 39 621 q 70 719 39 676 q 154 779 101 761 q 65 914 65 814 q 119 1028 65 985 q 257 1071 172 1071 q 394 1028 340 1071 q 447 913 447 985 q 424 830 447 865 q 357 778 400 794 q 442 719 411 763 q 472 621 472 676 q 412 496 472 543 q 256 449 351 449 q 99 496 160 449 q 39 621 39 543 m 167 978 q 149 965 167 978 q 132 908 132 953 q 165 836 132 864 q 256 808 197 808 q 345 836 313 808 q 378 907 378 864 q 344 978 378 953 q 256 1003 310 1003 q 167 978 201 1003 m 156 713 q 136 698 156 713 q 117 631 117 683 q 156 548 117 578 q 256 518 194 518 q 356 548 317 518 q 396 631 396 578 q 356 712 396 682 q 256 742 317 742 q 156 713 194 742 z "},"⁹":{"ha":518,"x_min":39,"x_max":479,"o":"m 400 654 l 256 458 l 169 458 l 318 657 q 251 643 289 643 q 98 703 157 643 q 39 854 39 763 q 102 1011 39 949 q 258 1074 165 1074 q 415 1010 351 1074 q 479 854 479 947 q 462 757 479 801 q 400 654 444 713 m 401 856 q 361 961 401 919 q 258 1003 321 1003 q 156 961 196 1003 q 117 856 117 919 q 156 752 117 793 q 258 711 196 711 q 361 752 321 711 q 401 856 401 793 z "},"₀":{"ha":578,"x_min":43,"x_max":535,"o":"m 109 -66 q 76 -24 109 -66 q 43 160 43 18 q 110 388 43 301 q 289 474 176 474 q 469 388 403 474 q 535 160 535 301 q 468 -65 535 19 q 289 -150 401 -150 q 109 -66 175 -150 m 119 160 q 164 -17 119 47 q 289 -81 208 -81 q 413 -17 368 -81 q 457 160 457 47 q 413 338 457 274 q 289 403 368 403 q 164 338 208 403 q 119 160 119 274 z "},"₁":{"ha":303,"x_min":29,"x_max":238,"o":"m 161 392 l 29 392 l 29 463 l 238 463 l 238 -139 l 161 -139 l 161 392 z "},"₂":{"ha":478,"x_min":39,"x_max":442,"o":"m 442 -139 l 39 -139 l 39 -76 l 253 99 q 358 275 358 183 q 238 401 358 401 q 147 365 179 401 q 114 261 114 328 l 39 261 q 94 416 39 358 q 239 474 149 474 q 382 421 329 474 q 435 278 435 368 q 301 50 435 158 l 156 -68 l 442 -68 l 442 -139 z "},"₃":{"ha":481,"x_min":31,"x_max":444,"o":"m 197 172 l 158 172 l 158 226 l 342 392 l 60 392 l 60 463 l 431 463 l 431 390 l 263 236 q 392 179 340 229 q 444 47 444 129 q 384 -95 444 -42 q 233 -149 324 -149 q 87 -94 143 -149 q 31 47 31 -40 l 106 47 q 140 -45 106 -11 q 233 -79 175 -79 q 330 -44 293 -79 q 367 49 367 -10 q 336 131 367 99 q 249 171 306 164 q 197 172 233 172 z "},"₄":{"ha":522,"x_min":29,"x_max":496,"o":"m 496 -18 l 424 -18 l 424 -139 l 350 -139 l 350 -18 l 29 -18 l 29 53 l 325 463 l 424 463 l 424 51 l 496 51 l 496 -18 m 117 51 l 350 51 l 350 378 l 117 51 z "},"₅":{"ha":490,"x_min":31,"x_max":460,"o":"m 31 56 l 106 56 q 144 -42 106 -4 q 244 -79 183 -79 q 344 -40 306 -79 q 382 61 382 -1 q 344 160 382 122 q 244 199 306 199 q 122 143 169 199 l 50 156 l 125 463 l 425 463 l 425 392 l 182 392 l 142 229 q 256 265 189 265 q 402 207 344 265 q 460 60 460 149 q 399 -90 460 -31 q 244 -149 338 -149 q 92 -91 153 -149 q 31 56 31 -33 z "},"₆":{"ha":518,"x_min":39,"x_max":479,"o":"m 119 269 l 263 465 l 350 465 l 200 267 q 267 281 232 281 q 420 221 361 281 q 479 71 479 161 q 417 -86 479 -24 q 261 -149 354 -149 q 103 -85 167 -149 q 39 71 39 -22 q 57 167 39 124 q 119 269 75 210 m 158 173 q 138 152 158 173 q 118 68 118 132 q 158 -37 118 4 q 261 -79 197 -79 q 362 -37 322 -79 q 401 68 401 4 q 362 172 401 131 q 261 214 322 214 q 158 173 197 214 z "},"₇":{"ha":447,"x_min":22,"x_max":426,"o":"m 426 392 l 208 -139 l 131 -139 l 350 392 l 22 392 l 22 463 l 426 463 l 426 392 z "},"₈":{"ha":511,"x_min":39,"x_max":472,"o":"m 39 24 q 70 122 39 79 q 154 182 101 164 q 65 317 65 217 q 119 431 65 388 q 257 474 172 474 q 394 431 340 474 q 447 315 447 388 q 424 233 447 268 q 357 181 400 197 q 442 122 411 165 q 472 24 472 79 q 412 -101 472 -54 q 256 -149 351 -149 q 99 -101 160 -149 q 39 24 39 -54 m 167 381 q 149 368 167 381 q 132 311 132 356 q 165 239 132 267 q 256 211 197 211 q 345 239 313 211 q 378 310 378 267 q 344 381 378 356 q 256 406 310 406 q 167 381 201 406 m 156 115 q 136 101 156 115 q 117 33 117 86 q 156 -49 117 -19 q 256 -79 194 -79 q 356 -49 317 -79 q 396 33 396 -19 q 356 115 396 85 q 256 144 317 144 q 156 115 194 144 z "},"₉":{"ha":518,"x_min":39,"x_max":479,"o":"m 400 57 l 256 -139 l 169 -139 l 318 60 q 251 46 289 46 q 98 106 157 46 q 39 257 39 165 q 102 414 39 351 q 258 476 165 476 q 415 413 351 476 q 479 257 479 350 q 462 160 479 204 q 400 57 444 115 m 401 258 q 361 364 401 322 q 258 406 321 406 q 156 364 196 406 q 117 258 117 322 q 156 155 117 196 q 258 114 196 114 q 361 155 321 114 q 401 258 401 196 z "},"€":{"ha":910,"x_min":39,"x_max":833,"o":"m 644 -17 q 322 83 456 -17 q 150 360 189 183 l 39 360 l 39 439 l 138 439 q 135 497 135 478 q 138 560 135 518 l 39 560 l 39 639 l 150 639 q 324 912 190 813 q 650 1011 457 1011 q 831 985 756 1011 l 831 890 q 650 917 751 917 q 393 844 497 917 q 251 639 289 771 l 668 639 l 668 560 l 236 560 q 233 497 233 521 q 236 439 233 478 l 668 439 l 668 360 l 250 360 q 392 151 286 225 q 650 76 499 76 q 833 106 743 76 l 833 10 q 644 -17 742 -17 z "},"№":{"ha":1721,"x_min":121,"x_max":1653,"o":"m 1653 689 q 1557 453 1653 549 q 1321 358 1461 358 q 1085 455 1182 358 q 989 689 989 551 q 1085 920 989 826 q 1321 1014 1181 1014 q 1557 921 1461 1014 q 1653 689 1653 828 m 221 0 l 121 0 l 121 994 l 222 994 l 769 167 l 769 994 l 868 994 l 868 0 l 769 0 l 221 828 l 221 0 m 1560 688 q 1492 858 1560 790 q 1321 925 1424 925 q 1150 857 1218 925 q 1082 688 1082 789 q 1152 516 1082 586 q 1321 446 1222 446 q 1492 515 1424 446 q 1560 688 1560 583 m 1614 172 l 1028 172 l 1028 258 l 1614 258 l 1614 172 z "},"℗":{"ha":667,"x_min":56,"x_max":611,"o":"m 533 539 q 493 499 533 539 q 335 460 454 460 q 135 540 215 460 q 56 738 56 619 q 136 933 56 854 q 335 1013 217 1013 q 532 934 453 1013 q 611 738 611 856 q 533 539 611 618 m 335 503 q 500 569 433 503 q 567 738 567 636 q 500 903 567 838 q 335 969 433 969 q 168 903 235 969 q 101 738 101 836 q 167 569 101 636 q 335 503 233 503 m 292 579 l 244 579 l 244 888 l 360 888 q 442 860 411 888 q 472 783 472 832 q 442 705 472 733 q 360 676 413 676 l 292 676 l 292 579 m 292 843 l 292 721 l 358 721 q 422 782 422 721 q 358 843 422 843 l 292 843 z "},"™":{"ha":883,"x_min":36,"x_max":800,"o":"m 167 943 l 36 943 l 36 994 l 353 994 l 353 943 l 222 943 l 222 608 l 167 608 l 167 943 m 456 608 l 403 608 l 403 994 l 456 994 l 603 667 l 747 994 l 800 994 l 800 608 l 747 608 l 747 879 l 628 608 l 576 608 l 456 875 l 456 608 z "},"℮":{"ha":1082,"x_min":83,"x_max":999,"o":"m 83 490 q 212 848 83 710 q 542 986 340 986 q 872 863 746 986 q 999 529 999 740 q 997 456 999 476 l 222 456 l 222 206 q 558 43 336 43 q 755 94 665 43 q 889 228 844 144 l 942 208 q 788 47 890 106 q 556 -12 685 -12 q 213 126 343 -12 q 83 490 83 265 m 222 758 l 222 506 l 860 506 l 860 783 q 725 892 808 854 q 542 931 642 931 q 358 884 440 931 q 222 758 275 838 z "},"⅛":{"ha":899,"x_min":28,"x_max":861,"o":"m 138 932 l 28 932 l 28 994 l 206 994 l 206 529 l 138 529 l 138 932 m 769 986 l 131 0 l 43 0 l 681 986 l 769 986 m 525 126 q 549 201 525 169 q 613 247 572 233 q 544 351 544 276 q 586 439 544 406 q 693 472 628 472 q 800 440 758 472 q 842 351 842 407 q 772 247 842 275 q 838 202 814 235 q 861 126 861 169 q 815 29 861 65 q 693 -7 768 -7 q 572 29 618 -7 q 525 126 525 65 m 607 344 q 630 294 607 314 q 693 275 653 275 q 756 294 732 275 q 779 344 779 313 q 756 394 779 376 q 693 411 732 411 q 631 394 654 411 q 607 344 607 376 m 622 192 q 608 182 622 192 q 594 135 594 172 q 622 76 594 97 q 693 56 650 56 q 763 77 736 56 q 790 135 790 99 q 763 192 790 172 q 693 213 736 213 q 622 192 650 213 z "},"⅜":{"ha":957,"x_min":29,"x_max":919,"o":"m 29 676 l 100 676 q 124 610 100 635 q 192 585 149 585 q 259 608 235 585 q 283 669 283 631 q 253 740 283 715 q 165 765 222 765 l 128 765 l 128 813 l 254 931 l 51 931 l 51 994 l 343 994 l 343 932 l 219 818 q 316 773 279 811 q 353 675 353 735 q 308 563 353 604 q 190 521 264 521 q 74 564 119 521 q 29 676 29 607 m 828 986 l 189 0 l 101 0 l 739 986 l 828 986 m 583 126 q 607 201 583 168 q 671 247 631 233 q 603 351 603 276 q 644 439 603 406 q 751 472 686 472 q 858 440 817 472 q 900 351 900 407 q 831 247 900 275 q 896 202 872 235 q 919 126 919 169 q 873 29 919 65 q 751 -7 826 -7 q 630 29 676 -7 q 583 126 583 65 m 665 344 q 688 294 665 314 q 751 275 711 275 q 814 294 790 275 q 838 344 838 313 q 814 394 838 376 q 751 411 790 411 q 689 394 713 411 q 665 344 665 376 m 681 192 q 668 182 681 192 q 654 135 654 172 q 681 76 654 97 q 751 56 708 56 q 822 77 794 56 q 850 135 850 99 q 822 192 850 172 q 751 213 794 213 q 681 192 708 213 z "},"⅝":{"ha":978,"x_min":33,"x_max":939,"o":"m 200 522 q 81 567 128 522 q 33 682 33 611 l 104 682 q 131 613 104 639 q 201 586 157 586 q 273 614 246 586 q 300 686 300 642 q 273 758 300 731 q 200 786 246 786 q 111 743 143 786 l 46 754 l 106 994 l 346 994 l 346 931 l 156 931 l 126 818 q 210 844 160 844 q 326 799 283 844 q 369 686 369 754 q 322 568 369 614 q 200 522 275 522 m 849 986 l 208 0 l 121 0 l 760 986 l 849 986 m 603 126 q 626 201 603 168 q 690 247 650 233 q 624 351 624 278 q 665 439 624 406 q 772 472 707 472 q 878 440 838 472 q 919 351 919 407 q 851 247 919 275 q 915 202 892 235 q 939 126 939 169 q 892 29 939 65 q 771 -7 846 -7 q 649 29 696 -7 q 603 126 603 65 m 685 344 q 708 294 685 314 q 771 275 731 275 q 834 294 811 275 q 857 344 857 313 q 833 394 857 376 q 771 411 810 411 q 708 394 732 411 q 685 344 685 376 m 701 192 q 687 182 701 192 q 674 135 674 172 q 701 76 674 97 q 771 56 729 56 q 842 77 814 56 q 869 135 869 99 q 842 192 869 172 q 771 213 814 213 q 701 192 728 213 z "},"⅞":{"ha":875,"x_min":17,"x_max":838,"o":"m 271 929 l 17 929 l 17 994 l 340 994 l 340 929 l 163 529 l 89 529 l 271 929 m 746 986 l 107 0 l 19 0 l 657 986 l 746 986 m 501 126 q 525 201 501 169 q 589 247 549 233 q 521 351 521 276 q 563 439 521 406 q 669 472 604 472 q 776 440 735 472 q 818 351 818 407 q 749 247 818 275 q 814 202 790 235 q 838 126 838 169 q 791 29 838 65 q 669 -7 744 -7 q 548 29 594 -7 q 501 126 501 65 m 583 344 q 606 294 583 314 q 669 275 629 275 q 732 294 708 275 q 756 344 756 313 q 732 394 756 376 q 669 411 708 411 q 607 394 631 411 q 583 344 583 376 m 599 192 q 585 182 599 192 q 571 135 571 172 q 599 76 571 97 q 669 56 626 56 q 740 77 713 56 q 767 135 767 99 q 740 192 767 172 q 669 213 713 213 q 599 192 626 213 z "},"←":{"ha":1267,"x_min":83,"x_max":1183,"o":"m 572 -18 l 514 -76 l 83 353 l 514 783 l 572 726 l 242 394 l 1183 394 l 1183 313 l 242 313 l 572 -18 z "},"↑":{"ha":1036,"x_min":83,"x_max":953,"o":"m 142 547 l 83 607 l 518 1033 l 953 607 l 894 547 l 560 875 l 560 0 l 478 0 l 478 875 l 142 547 z "},"→":{"ha":1267,"x_min":83,"x_max":1183,"o":"m 696 782 l 753 839 l 1183 410 l 753 -19 l 696 38 l 1025 369 l 83 369 l 83 450 l 1025 450 l 696 782 z "},"↓":{"ha":1025,"x_min":83,"x_max":942,"o":"m 885 344 l 942 286 l 513 -144 l 83 286 l 142 344 l 472 14 l 472 1003 l 554 1003 l 554 14 l 885 344 z "},"↔":{"ha":1464,"x_min":83,"x_max":1381,"o":"m 83 356 l 385 661 l 385 539 l 246 397 l 561 399 l 561 400 l 903 400 l 1219 399 l 1079 540 l 1079 661 l 1381 357 l 1081 50 l 1081 174 l 1218 315 l 564 314 l 564 315 l 244 314 l 386 169 l 386 50 l 83 356 z "},"↕":{"ha":776,"x_min":83,"x_max":693,"o":"m 388 -226 l 83 75 l 203 75 l 346 -64 l 344 253 l 344 593 l 346 910 l 203 771 l 83 771 l 388 1071 l 693 771 l 571 771 l 429 910 l 429 -64 l 571 75 l 693 75 l 388 -226 z "},"↖":{"ha":1154,"x_min":83,"x_max":1071,"o":"m 83 994 l 692 994 l 692 913 l 224 911 l 1071 57 l 1014 0 l 165 854 l 165 386 l 83 386 l 83 994 z "},"↗":{"ha":1163,"x_min":83,"x_max":1079,"o":"m 471 913 l 471 994 l 1079 994 l 1079 388 l 996 388 l 996 854 l 142 0 l 83 57 l 938 913 l 471 913 z "},"↘":{"ha":1160,"x_min":83,"x_max":1076,"o":"m 994 611 l 1076 610 l 1076 3 l 468 3 l 468 85 l 936 85 l 83 938 l 140 994 l 993 143 l 994 611 z "},"↙":{"ha":1164,"x_min":83,"x_max":1081,"o":"m 692 81 l 692 -1 l 83 -1 l 83 607 l 167 607 l 167 139 l 1022 996 l 1081 938 l 224 82 l 692 81 z "},"∂":{"ha":864,"x_min":79,"x_max":785,"o":"m 79 340 q 180 592 79 490 q 425 693 281 693 q 665 578 575 693 q 549 790 625 696 q 329 1008 472 885 l 453 1008 q 703 714 622 864 q 785 382 785 564 q 684 91 785 199 q 425 -17 583 -17 q 178 84 278 -17 q 79 340 79 185 m 176 339 q 247 145 176 221 q 429 69 318 69 q 615 147 542 69 q 688 344 688 224 q 617 533 688 460 q 436 607 546 607 q 250 531 324 607 q 176 339 176 456 z "},"∅":{"ha":1113,"x_min":38,"x_max":1075,"o":"m 554 -17 q 207 129 344 -17 l 88 21 l 38 75 l 161 188 q 69 497 69 321 q 208 867 69 721 q 554 1013 347 1013 q 903 865 764 1013 l 1025 976 l 1075 922 l 949 807 q 1039 497 1039 672 q 900 129 1039 275 q 554 -17 761 -17 m 168 497 q 233 253 168 360 l 832 800 q 554 919 721 919 q 278 801 388 919 q 168 497 168 682 m 278 194 q 554 75 386 75 q 832 194 722 75 q 942 497 942 313 q 876 742 942 635 l 278 194 z "},"∆":{"ha":922,"x_min":58,"x_max":864,"o":"m 864 0 l 58 0 l 58 88 l 400 994 l 519 994 l 864 83 l 864 0 m 447 861 l 157 83 l 764 83 l 469 861 q 466 872 468 867 q 462 885 464 878 q 458 894 460 892 q 447 861 457 885 z "},"∏":{"ha":935,"x_min":121,"x_max":813,"o":"m 221 0 l 121 0 l 121 994 l 813 994 l 813 0 l 713 0 l 713 903 l 221 903 l 221 0 z "},"∑":{"ha":740,"x_min":36,"x_max":682,"o":"m 682 0 l 36 0 l 36 104 l 344 497 l 36 890 l 36 994 l 682 994 l 682 903 l 146 903 l 463 494 l 146 92 l 682 92 l 682 0 z "},"−":{"ha":917,"x_min":111,"x_max":806,"o":"m 111 511 l 806 511 l 806 425 l 111 425 l 111 511 z "},"√":{"ha":964,"x_min":0,"x_max":914,"o":"m 275 0 l 0 671 l 101 671 l 321 121 l 649 996 l 914 996 l 914 906 l 715 906 l 367 0 l 275 0 z "},"∞":{"ha":1193,"x_min":78,"x_max":1115,"o":"m 78 392 q 147 568 78 499 q 326 638 217 638 q 472 594 408 638 q 597 458 536 550 q 721 594 657 550 q 867 638 785 638 q 1046 568 976 638 q 1115 392 1115 499 q 1045 215 1115 283 q 867 146 975 146 q 721 189 785 146 q 597 324 657 232 q 472 189 536 232 q 326 146 408 146 q 148 215 218 146 q 78 392 78 283 m 215 507 q 193 485 215 507 q 171 392 171 464 q 215 276 171 319 q 332 232 258 232 q 536 392 450 232 q 332 550 450 550 q 215 507 258 550 m 657 392 q 861 232 743 232 q 978 276 935 232 q 1022 392 1022 319 q 978 507 1022 464 q 861 550 935 550 q 657 392 743 550 z "},"∫":{"ha":515,"x_min":42,"x_max":474,"o":"m 147 -19 l 42 -19 l 42 68 l 144 68 q 192 88 174 68 q 210 139 210 107 l 210 853 q 255 968 210 922 q 368 1014 300 1014 l 474 1014 l 474 928 l 371 928 q 324 908 342 928 q 306 857 306 889 l 306 143 q 260 27 306 74 q 147 -19 215 -19 z "},"≈":{"ha":917,"x_min":111,"x_max":806,"o":"m 725 639 l 806 639 q 759 486 806 543 q 633 429 713 429 q 510 463 575 429 q 386 531 444 497 q 286 564 328 564 q 217 535 239 564 q 192 442 194 507 l 111 442 q 158 590 111 533 q 283 647 204 647 q 463 580 347 647 q 631 513 578 513 q 700 542 678 513 q 725 639 722 572 m 725 385 l 806 385 q 759 233 806 290 q 633 175 713 175 q 510 208 575 175 q 386 276 444 242 q 286 310 328 310 q 217 281 239 310 q 192 189 194 253 l 111 189 q 158 338 111 281 q 283 394 204 394 q 463 327 347 394 q 631 260 578 260 q 700 290 678 260 q 725 385 722 319 z "},"≠":{"ha":917,"x_min":111,"x_max":806,"o":"m 201 26 l 310 225 l 111 225 l 111 311 l 356 311 l 465 511 l 111 511 l 111 597 l 511 597 l 619 796 l 715 796 l 607 597 l 806 597 l 806 511 l 561 511 l 451 311 l 806 311 l 806 225 l 406 225 l 297 26 l 201 26 z "},"≤":{"ha":917,"x_min":111,"x_max":806,"o":"m 806 253 l 806 158 l 111 403 l 111 501 l 806 747 l 806 651 l 218 453 l 806 253 m 111 0 l 111 86 l 806 86 l 806 0 l 111 0 z "},"≥":{"ha":917,"x_min":111,"x_max":806,"o":"m 806 403 l 111 158 l 111 253 l 699 453 l 111 651 l 111 747 l 806 501 l 806 403 m 111 86 l 806 86 l 806 0 l 111 0 l 111 86 z "},"■":{"ha":1153,"x_min":83,"x_max":1069,"o":"m 83 0 l 83 986 l 1069 986 l 1069 0 l 83 0 z "},"□":{"ha":1153,"x_min":83,"x_max":1069,"o":"m 83 0 l 83 986 l 1069 986 l 1069 0 l 83 0 m 986 903 l 167 903 l 167 83 l 986 83 l 986 903 z "},"▲":{"ha":1342,"x_min":83,"x_max":1258,"o":"m 83 0 l 671 986 l 1258 0 l 83 0 z "},"△":{"ha":1344,"x_min":83,"x_max":1261,"o":"m 672 989 l 1261 1 l 83 1 l 672 989 m 232 83 l 1111 83 l 672 821 l 232 83 z "},"◊":{"ha":839,"x_min":83,"x_max":756,"o":"m 756 493 l 468 0 l 369 0 l 83 493 l 369 986 l 468 986 l 756 493 m 654 493 l 419 900 l 185 493 l 419 86 l 654 493 z "},"○":{"ha":1250,"x_min":83,"x_max":1167,"o":"m 1008 80 q 928 0 1008 80 q 625 -79 849 -79 q 242 80 401 -79 q 83 463 83 239 q 242 845 83 686 q 625 1004 401 1004 q 1008 845 849 1004 q 1167 463 1167 686 q 1008 80 1167 239 m 305 142 q 371 76 305 142 q 625 10 438 10 q 946 142 813 10 q 1079 463 1079 275 q 945 783 1079 649 q 625 917 811 917 q 305 783 438 917 q 172 463 172 650 q 305 142 172 275 z "},"●":{"ha":1250,"x_min":83,"x_max":1167,"o":"m 1008 80 q 928 0 1008 80 q 625 -79 849 -79 q 242 80 401 -79 q 83 463 83 239 q 242 845 83 686 q 625 1004 401 1004 q 1008 845 849 1004 q 1167 463 1167 686 q 1008 80 1167 239 z "},"☮":{"ha":1250,"x_min":83,"x_max":1167,"o":"m 1008 80 q 928 0 1008 80 q 625 -79 849 -79 q 242 80 401 -79 q 83 463 83 239 q 242 845 83 686 q 625 1004 401 1004 q 1008 845 849 1004 q 1167 463 1167 686 q 1008 80 1167 239 m 172 463 q 214 274 172 365 l 586 517 l 586 915 q 292 770 411 900 q 172 463 172 640 m 1079 463 q 959 768 1079 638 q 667 915 839 899 l 667 517 l 1039 275 q 1079 463 1079 367 m 253 204 q 397 72 310 122 q 586 11 485 21 l 586 419 l 253 204 m 667 419 l 667 11 q 855 72 768 21 q 999 206 942 124 l 667 419 z "},"✓":{"ha":1029,"x_min":43,"x_max":875,"o":"m 343 10 l 43 332 l 107 397 l 339 147 l 803 707 l 875 649 l 343 10 z "},"":{"ha":2415,"x_min":139,"x_max":2249,"o":"m 139 0 l 139 972 l 439 972 l 439 0 l 139 0 m 501 689 l 501 972 l 801 972 l 801 689 l 501 689 m 863 0 l 863 972 l 1164 972 l 1164 0 l 863 0 m 1225 689 l 1225 972 l 1525 972 l 1525 689 l 1225 689 m 1586 0 l 1586 972 l 1888 972 l 1888 0 l 1586 0 m 1949 689 l 1949 972 l 2249 972 l 2249 689 l 1949 689 m 1949 343 l 1949 628 l 2249 628 l 2249 343 l 1949 343 z "},"ﬀ":{"ha":828,"x_min":25,"x_max":803,"o":"m 25 672 l 128 672 l 128 803 q 179 962 128 911 q 314 1013 231 1013 q 388 1007 358 1013 l 388 924 l 329 924 q 247 894 269 924 q 224 803 224 865 l 224 672 l 543 672 l 543 803 q 594 961 543 910 q 729 1013 646 1013 q 803 1007 774 1013 l 803 924 l 746 924 q 662 894 685 924 q 639 803 639 865 l 639 672 l 797 672 l 797 592 l 639 592 l 639 0 l 543 0 l 543 592 l 224 592 l 224 0 l 128 0 l 128 592 l 25 592 l 25 672 z "},"ﬁ":{"ha":735,"x_min":25,"x_max":657,"o":"m 543 0 l 543 592 l 224 592 l 224 0 l 128 0 l 128 592 l 25 592 l 25 672 l 128 672 l 128 803 q 178 961 128 910 q 310 1013 229 1013 q 385 1007 356 1013 l 385 924 l 326 924 q 246 894 268 924 q 224 803 224 865 l 224 672 l 639 672 l 639 0 l 543 0 m 590 864 q 542 883 561 864 q 524 931 524 901 q 542 979 524 960 q 590 999 561 999 q 638 979 618 999 q 657 931 657 960 q 638 883 657 901 q 590 864 618 864 z "},"ﬂ":{"ha":726,"x_min":25,"x_max":622,"o":"m 622 0 l 526 0 l 526 592 l 224 592 l 224 0 l 128 0 l 128 592 l 25 592 l 25 672 l 128 672 l 128 803 q 178 961 128 910 q 310 1013 229 1013 q 383 1007 354 1013 l 383 924 l 326 924 q 246 894 268 924 q 224 803 224 865 l 224 672 l 526 672 l 526 1013 l 622 1013 l 622 0 z "},"ﬃ":{"ha":1150,"x_min":25,"x_max":1072,"o":"m 25 672 l 128 672 l 128 803 q 179 962 128 911 q 314 1013 231 1013 q 388 1007 358 1013 l 388 924 l 329 924 q 247 894 269 924 q 224 803 224 865 l 224 672 l 543 672 l 543 803 q 594 961 543 910 q 726 1013 644 1013 q 800 1007 771 1013 l 800 924 l 743 924 q 662 894 685 924 q 639 803 639 865 l 639 672 l 1054 672 l 1054 0 l 958 0 l 958 592 l 639 592 l 639 0 l 543 0 l 543 592 l 224 592 l 224 0 l 128 0 l 128 592 l 25 592 l 25 672 m 1006 878 q 958 897 978 878 q 939 943 939 915 q 958 992 939 972 q 1006 1013 978 1013 q 1053 992 1035 1013 q 1072 943 1072 972 q 1053 897 1072 915 q 1006 878 1035 878 z "},"ﬄ":{"ha":1143,"x_min":25,"x_max":1038,"o":"m 25 672 l 128 672 l 128 803 q 179 962 128 911 q 314 1013 231 1013 q 388 1007 358 1013 l 388 924 l 329 924 q 247 894 269 924 q 224 803 224 865 l 224 672 l 543 672 l 543 803 q 594 961 543 910 q 729 1013 646 1013 q 803 1007 774 1013 l 803 924 l 746 924 q 662 894 685 924 q 639 803 639 865 l 639 672 l 943 672 l 943 1013 l 1038 1013 l 1038 0 l 943 0 l 943 592 l 639 592 l 639 0 l 543 0 l 543 592 l 224 592 l 224 0 l 128 0 l 128 592 l 25 592 l 25 672 z "}}}
